<svg xmlns="http://www.w3.org/2000/svg" width="900" height="420" viewBox="0 0 900 420">
  <rect width="900" height="420" fill="white"/>
  <defs>
    <marker id="ah-dark" markerWidth="8" markerHeight="6" refX="7" refY="3" orient="auto">
      <polygon points="0 0,8 3,0 6" fill="#374151"/>
    </marker>
    <marker id="ah-blue" markerWidth="8" markerHeight="6" refX="7" refY="3" orient="auto">
      <polygon points="0 0,8 3,0 6" fill="#2563eb"/>
    </marker>
    <marker id="ah-purple" markerWidth="8" markerHeight="6" refX="7" refY="3" orient="auto">
      <polygon points="0 0,8 3,0 6" fill="#7c3aed"/>
    </marker>
    <marker id="ah-gray" markerWidth="8" markerHeight="6" refX="7" refY="3" orient="auto">
      <polygon points="0 0,8 3,0 6" fill="#9ca3af"/>
    </marker>
  </defs>

  <!-- Panel divider -->
  <line x1="450" y1="0" x2="450" y2="420" stroke="#e5e7eb" stroke-width="1"/>

  <!-- Panel titles -->
  <text x="225" y="22" text-anchor="middle" font-family="sans-serif" font-size="13" font-weight="bold" fill="#111827">Before: tangled routing</text>
  <text x="675" y="22" text-anchor="middle" font-family="sans-serif" font-size="13" font-weight="bold" fill="#111827">After: highway corridors</text>

  <!-- ====== BEFORE PANEL ====== -->
  <!-- Left column blocks: 1,2,3 -->
  <rect x="45" y="73" width="72" height="32" rx="4" fill="#dbeafe" stroke="#2563eb" stroke-width="1.5"/>
  <text x="81" y="93" text-anchor="middle" font-family="sans-serif" font-size="12" fill="#1e40af">Block 1</text>
  <rect x="45" y="193" width="72" height="32" rx="4" fill="#dbeafe" stroke="#2563eb" stroke-width="1.5"/>
  <text x="81" y="213" text-anchor="middle" font-family="sans-serif" font-size="12" fill="#1e40af">Block 2</text>
  <rect x="45" y="296" width="72" height="32" rx="4" fill="#dbeafe" stroke="#2563eb" stroke-width="1.5"/>
  <text x="81" y="316" text-anchor="middle" font-family="sans-serif" font-size="12" fill="#1e40af">Block 3</text>
  <!-- Right column blocks: 4,5,6 -->
  <rect x="315" y="73" width="72" height="32" rx="4" fill="#dbeafe" stroke="#2563eb" stroke-width="1.5"/>
  <text x="351" y="93" text-anchor="middle" font-family="sans-serif" font-size="12" fill="#1e40af">Block 4</text>
  <rect x="315" y="193" width="72" height="32" rx="4" fill="#dbeafe" stroke="#2563eb" stroke-width="1.5"/>
  <text x="351" y="213" text-anchor="middle" font-family="sans-serif" font-size="12" fill="#1e40af">Block 5</text>
  <rect x="315" y="296" width="72" height="32" rx="4" fill="#dbeafe" stroke="#2563eb" stroke-width="1.5"/>
  <text x="351" y="316" text-anchor="middle" font-family="sans-serif" font-size="12" fill="#1e40af">Block 6</text>

  <!-- Messy edges (Before) — all dark gray with arrowheads -->
  <!-- 1 to 4: straight horizontal -->
  <line x1="117" y1="89" x2="315" y2="89" stroke="#374151" stroke-width="1.5" marker-end="url(#ah-dark)"/>
  <!-- 1 to 6: diagonal down-right -->
  <line x1="117" y1="94" x2="315" y2="316" stroke="#374151" stroke-width="1.5" marker-end="url(#ah-dark)"/>
  <!-- 4 to 2: diagonal down-left, crosses 1->6 -->
  <line x1="315" y1="86" x2="117" y2="213" stroke="#374151" stroke-width="1.5" marker-end="url(#ah-dark)"/>
  <!-- 4 to 3: steep diagonal down-left -->
  <line x1="315" y1="92" x2="117" y2="316" stroke="#374151" stroke-width="1.5" marker-end="url(#ah-dark)"/>
  <!-- 5 to 2: horizontal crossing -->
  <line x1="315" y1="209" x2="117" y2="209" stroke="#374151" stroke-width="1.5" marker-end="url(#ah-dark)"/>
  <!-- 2 to 3: local vertical (left col) -->
  <line x1="76" y1="225" x2="76" y2="296" stroke="#374151" stroke-width="1.5" marker-end="url(#ah-dark)"/>
  <!-- 5 to 6: local vertical (right col) -->
  <line x1="356" y1="225" x2="356" y2="296" stroke="#374151" stroke-width="1.5" marker-end="url(#ah-dark)"/>

  <!-- ====== AFTER PANEL ====== -->
  <!-- Highway corridor (amber band) between the two columns -->
  <rect x="610" y="48" width="70" height="335" fill="#fef3c7" stroke="#d97706" stroke-width="1.5"/>
  <text x="645" y="40" text-anchor="middle" font-family="sans-serif" font-size="10" fill="#92400e">Highway</text>

  <!-- Left column blocks: 1,2,3 -->
  <rect x="495" y="73" width="72" height="32" rx="4" fill="#dbeafe" stroke="#2563eb" stroke-width="1.5"/>
  <text x="531" y="93" text-anchor="middle" font-family="sans-serif" font-size="12" fill="#1e40af">Block 1</text>
  <rect x="495" y="193" width="72" height="32" rx="4" fill="#dbeafe" stroke="#2563eb" stroke-width="1.5"/>
  <text x="531" y="213" text-anchor="middle" font-family="sans-serif" font-size="12" fill="#1e40af">Block 2</text>
  <rect x="495" y="296" width="72" height="32" rx="4" fill="#dbeafe" stroke="#2563eb" stroke-width="1.5"/>
  <text x="531" y="316" text-anchor="middle" font-family="sans-serif" font-size="12" fill="#1e40af">Block 3</text>
  <!-- Right column blocks: 4,5,6 -->
  <rect x="762" y="73" width="72" height="32" rx="4" fill="#dbeafe" stroke="#2563eb" stroke-width="1.5"/>
  <text x="798" y="93" text-anchor="middle" font-family="sans-serif" font-size="12" fill="#1e40af">Block 4</text>
  <rect x="762" y="193" width="72" height="32" rx="4" fill="#dbeafe" stroke="#2563eb" stroke-width="1.5"/>
  <text x="798" y="213" text-anchor="middle" font-family="sans-serif" font-size="12" fill="#1e40af">Block 5</text>
  <rect x="762" y="296" width="72" height="32" rx="4" fill="#dbeafe" stroke="#2563eb" stroke-width="1.5"/>
  <text x="798" y="316" text-anchor="middle" font-family="sans-serif" font-size="12" fill="#1e40af">Block 6</text>

  <!-- Bundle A (blue): 1->4 and 1->6 via merged trunk -->
  <!-- Merged trunk: Block1 right face to corridor left wall -->
  <line x1="567" y1="89" x2="610" y2="89" stroke="#2563eb" stroke-width="3"/>
  <!-- Comb spine at corridor left wall, fanning from trunk y=89 -->
  <line x1="610" y1="83" x2="610" y2="95" stroke="#2563eb" stroke-width="1.5"/>
  <!-- 1->4 wire: horizontal through corridor, small elbow to Block 4 -->
  <path d="M 610 83 H 680 V 89 H 762" fill="none" stroke="#2563eb" stroke-width="1.5" marker-end="url(#ah-blue)"/>
  <!-- 1->6 wire: horizontal to corridor right wall, then south to Block 6 -->
  <path d="M 610 95 H 680 V 312 H 762" fill="none" stroke="#2563eb" stroke-width="1.5" marker-end="url(#ah-blue)"/>
  <!-- Bundle A label inside corridor -->
  <text x="619" y="73" font-family="sans-serif" font-size="9" fill="#1d4ed8" font-weight="bold">A</text>

  <!-- Bundle B (purple): 4->2 and 4->3 via merged trunk -->
  <!-- Merged trunk: Block4 left face to corridor right wall -->
  <line x1="762" y1="89" x2="680" y2="89" stroke="#7c3aed" stroke-width="3"/>
  <!-- Comb spine at corridor right wall, dropping from trunk y=89 -->
  <line x1="680" y1="89" x2="680" y2="117" stroke="#7c3aed" stroke-width="1.5"/>
  <!-- 4->2 wire: left through corridor, then south to Block 2 -->
  <path d="M 680 107 H 610 V 205 H 567" fill="none" stroke="#7c3aed" stroke-width="1.5" marker-end="url(#ah-purple)"/>
  <!-- 4->3 wire: left through corridor, then south to Block 3 -->
  <path d="M 680 117 H 610 V 312 H 567" fill="none" stroke="#7c3aed" stroke-width="1.5" marker-end="url(#ah-purple)"/>
  <!-- Bundle B label inside corridor -->
  <text x="619" y="104" font-family="sans-serif" font-size="9" fill="#6d28d9" font-weight="bold">B</text>

  <!-- 5->2 single crossing wire (gray, not bundled) -->
  <path d="M 762 213 H 567" fill="none" stroke="#9ca3af" stroke-width="1.5" marker-end="url(#ah-gray)"/>
  <text x="645" y="204" text-anchor="middle" font-family="sans-serif" font-size="8" fill="#6b7280">5&#x2192;2</text>

  <!-- Local wires outside highway -->
  <!-- 2->3 local (left col) -->
  <line x1="526" y1="225" x2="526" y2="296" stroke="#374151" stroke-width="1.5" marker-end="url(#ah-dark)"/>
  <!-- 5->6 local (right col) -->
  <line x1="803" y1="225" x2="803" y2="296" stroke="#374151" stroke-width="1.5" marker-end="url(#ah-dark)"/>

  <!-- Legend at bottom of After panel -->
  <text x="458" y="400" font-family="sans-serif" font-size="9" fill="#1d4ed8">Bundle A: 1&#x2192;{4,6}</text>
  <text x="575" y="400" font-family="sans-serif" font-size="9" fill="#6d28d9">Bundle B: 4&#x2192;{2,3}</text>
  <text x="690" y="400" font-family="sans-serif" font-size="9" fill="#9ca3af">5&#x2192;2 (single wire)</text>
  <text x="808" y="400" font-family="sans-serif" font-size="9" fill="#374151">local wires</text>
</svg>
