<svg xmlns="http://www.w3.org/2000/svg" width="750.40" height="2042.00" viewBox="0 0 750.40 2042.00">
  <defs>
    <marker id="arrowhead-open" markerWidth="10" markerHeight="7" refX="9" refY="3.5" orient="auto">
      <polygon points="0 0, 10 3.5, 0 7" fill="none" stroke="#1A1A2E" stroke-width="1.50"/>
    </marker>
    <marker id="arrowhead-filled" markerWidth="10" markerHeight="7" refX="9" refY="3.5" orient="auto">
      <polygon points="0 0, 10 3.5, 0 7" fill="#1A1A2E" stroke="#1A1A2E" stroke-width="1.50"/>
    </marker>
    <marker id="arrowhead-open-crossbar" markerWidth="10" markerHeight="7" refX="9" refY="3.5" orient="auto">
      <polygon points="0 0, 10 3.5, 0 7" fill="none" stroke="#1A1A2E" stroke-width="1.50"/>
      <line x1="7" y1="0" x2="7" y2="7" stroke="#1A1A2E" stroke-width="1.50"/>
    </marker>
    <marker id="arrowhead-diamond" markerWidth="14" markerHeight="8" refX="13" refY="4" orient="auto">
      <polygon points="1 4, 7 0, 13 4, 7 8" fill="none" stroke="#1A1A2E" stroke-width="1.50"/>
    </marker>
    <marker id="arrowhead-filled-diamond" markerWidth="14" markerHeight="8" refX="13" refY="4" orient="auto">
      <polygon points="1 4, 7 0, 13 4, 7 8" fill="#1A1A2E" stroke="#1A1A2E" stroke-width="1.50"/>
    </marker>
    <marker id="arrowhead-circle" markerWidth="10" markerHeight="10" refX="9" refY="5" orient="auto">
      <circle cx="5" cy="5" r="4" fill="none" stroke="#1A1A2E" stroke-width="1.50"/>
    </marker>
    <marker id="arrowhead-bar" markerWidth="4" markerHeight="12" refX="2" refY="6" orient="auto">
      <line x1="2" y1="0" x2="2" y2="12" stroke="#1A1A2E" stroke-width="1.50"/>
    </marker>
    <filter id="label-bg" x="-0.05" y="-0.05" width="1.1" height="1.1">
      <feFlood flood-color="#FFFFFF"/>
      <feComposite in="SourceGraphic" operator="over"/>
    </filter>
  </defs>
  <path d="M 12.00 36.00 L 12.00 12.00 L 123.00 12.00 L 123.00 36.00 L 738.40 36.00 L 738.40 2030.00 L 12.00 2030.00 Z" fill="#FFFFFF" stroke="#1A1A2E" stroke-width="1.50"/>
  <text x="375.20" y="24.00" font-family="Noto Sans, sans-serif" font-size="12.00" font-style="italic" fill="#1A1A2E" text-anchor="middle" dominant-baseline="middle">«package»</text>
  <text x="375.20" y="43.00" font-family="Noto Sans, sans-serif" font-size="14.00" font-weight="bold" fill="#1A1A2E" text-anchor="middle" dominant-baseline="middle">QuadcopterDrone</text>
  <rect x="24.00" y="68.00" width="130.00" height="50.00" fill="#EEF4FF" stroke="#1A1A2E" stroke-width="1.50"/>
  <text x="89.00" y="80.00" font-family="Noto Sans, sans-serif" font-size="12.00" font-style="italic" fill="#1A1A2E" text-anchor="middle" dominant-baseline="middle">«interface def»</text>
  <text x="89.00" y="99.00" font-family="Noto Sans, sans-serif" font-size="14.00" font-weight="bold" fill="#1A1A2E" text-anchor="middle" dominant-baseline="middle">PowerBus</text>
  <rect x="178.00" y="68.00" width="130.00" height="50.00" fill="#EEF4FF" stroke="#1A1A2E" stroke-width="1.50"/>
  <text x="243.00" y="80.00" font-family="Noto Sans, sans-serif" font-size="12.00" font-style="italic" fill="#1A1A2E" text-anchor="middle" dominant-baseline="middle">«interface def»</text>
  <text x="243.00" y="99.00" font-family="Noto Sans, sans-serif" font-size="14.00" font-weight="bold" fill="#1A1A2E" text-anchor="middle" dominant-baseline="middle">DataBus</text>
  <rect x="332.00" y="68.00" width="130.00" height="50.00" fill="#EEF4FF" stroke="#1A1A2E" stroke-width="1.50"/>
  <text x="397.00" y="80.00" font-family="Noto Sans, sans-serif" font-size="12.00" font-style="italic" fill="#1A1A2E" text-anchor="middle" dominant-baseline="middle">«port def»</text>
  <text x="397.00" y="99.00" font-family="Noto Sans, sans-serif" font-size="14.00" font-weight="bold" fill="#1A1A2E" text-anchor="middle" dominant-baseline="middle">PowerPort</text>
  <rect x="486.00" y="68.00" width="130.00" height="50.00" fill="#EEF4FF" stroke="#1A1A2E" stroke-width="1.50"/>
  <text x="551.00" y="80.00" font-family="Noto Sans, sans-serif" font-size="12.00" font-style="italic" fill="#1A1A2E" text-anchor="middle" dominant-baseline="middle">«port def»</text>
  <text x="551.00" y="99.00" font-family="Noto Sans, sans-serif" font-size="14.00" font-weight="bold" fill="#1A1A2E" text-anchor="middle" dominant-baseline="middle">TelemetryPort</text>
  <rect x="24.00" y="358.00" width="150.88" height="50.00" fill="#EEF4FF" stroke="#1A1A2E" stroke-width="1.50"/>
  <text x="99.44" y="370.00" font-family="Noto Sans, sans-serif" font-size="12.00" font-style="italic" fill="#1A1A2E" text-anchor="middle" dominant-baseline="middle">«port def»</text>
  <text x="99.44" y="389.00" font-family="Noto Sans, sans-serif" font-size="14.00" font-weight="bold" fill="#1A1A2E" text-anchor="middle" dominant-baseline="middle">MotorControlPort</text>
  <rect x="198.88" y="358.00" width="130.00" height="50.00" fill="#EEF4FF" stroke="#1A1A2E" stroke-width="1.50"/>
  <text x="263.88" y="370.00" font-family="Noto Sans, sans-serif" font-size="12.00" font-style="italic" fill="#1A1A2E" text-anchor="middle" dominant-baseline="middle">«port def»</text>
  <text x="263.88" y="389.00" font-family="Noto Sans, sans-serif" font-size="14.00" font-weight="bold" fill="#1A1A2E" text-anchor="middle" dominant-baseline="middle">SensorPort</text>
  <rect x="352.88" y="358.00" width="130.00" height="50.00" fill="#EEF4FF" stroke="#1A1A2E" stroke-width="1.50"/>
  <text x="417.88" y="370.00" font-family="Noto Sans, sans-serif" font-size="12.00" font-style="italic" fill="#1A1A2E" text-anchor="middle" dominant-baseline="middle">«attribute def»</text>
  <text x="417.88" y="389.00" font-family="Noto Sans, sans-serif" font-size="14.00" font-weight="bold" fill="#1A1A2E" text-anchor="middle" dominant-baseline="middle">Mass</text>
  <rect x="506.88" y="358.00" width="130.00" height="50.00" fill="#EEF4FF" stroke="#1A1A2E" stroke-width="1.50"/>
  <text x="571.88" y="370.00" font-family="Noto Sans, sans-serif" font-size="12.00" font-style="italic" fill="#1A1A2E" text-anchor="middle" dominant-baseline="middle">«attribute def»</text>
  <text x="571.88" y="389.00" font-family="Noto Sans, sans-serif" font-size="14.00" font-weight="bold" fill="#1A1A2E" text-anchor="middle" dominant-baseline="middle">Voltage</text>
  <rect x="24.00" y="648.00" width="130.00" height="50.00" fill="#EEF4FF" stroke="#1A1A2E" stroke-width="1.50"/>
  <text x="89.00" y="660.00" font-family="Noto Sans, sans-serif" font-size="12.00" font-style="italic" fill="#1A1A2E" text-anchor="middle" dominant-baseline="middle">«enum def»</text>
  <text x="89.00" y="679.00" font-family="Noto Sans, sans-serif" font-size="14.00" font-weight="bold" fill="#1A1A2E" text-anchor="middle" dominant-baseline="middle">FlightMode</text>
  <rect x="178.00" y="648.00" width="151.92" height="146.00" fill="#EEF4FF" stroke="#1A1A2E" stroke-width="1.50"/>
  <text x="253.96" y="660.00" font-family="Noto Sans, sans-serif" font-size="12.00" font-style="italic" fill="#1A1A2E" text-anchor="middle" dominant-baseline="middle">«part def»</text>
  <text x="253.96" y="679.00" font-family="Noto Sans, sans-serif" font-size="14.00" font-weight="bold" fill="#1A1A2E" text-anchor="middle" dominant-baseline="middle">Battery</text>
  <line x1="178.00" y1="692.00" x2="329.92" y2="692.00" stroke="#1A1A2E" stroke-width="1.50"/>
  <text x="184.00" y="704.00" font-family="Noto Sans, sans-serif" font-size="12.00" font-weight="bold" font-style="italic" fill="#1A1A2E" text-anchor="start" dominant-baseline="middle">attributes</text>
  <text x="184.00" y="728.00" font-family="Noto Sans, sans-serif" font-size="12.00" fill="#1A1A2E" text-anchor="start" dominant-baseline="middle">capacity : Voltage</text>
  <line x1="178.00" y1="740.00" x2="329.92" y2="740.00" stroke="#1A1A2E" stroke-width="1.50"/>
  <text x="184.00" y="752.00" font-family="Noto Sans, sans-serif" font-size="12.00" font-weight="bold" font-style="italic" fill="#1A1A2E" text-anchor="start" dominant-baseline="middle">ports</text>
  <text x="184.00" y="776.00" font-family="Noto Sans, sans-serif" font-size="12.00" fill="#1A1A2E" text-anchor="start" dominant-baseline="middle">output : PowerPort</text>
  <rect x="353.92" y="648.00" width="204.00" height="200.00" fill="#EEF4FF" stroke="#1A1A2E" stroke-width="1.50"/>
  <text x="455.92" y="660.00" font-family="Noto Sans, sans-serif" font-size="12.00" font-style="italic" fill="#1A1A2E" text-anchor="middle" dominant-baseline="middle">«part def»</text>
  <text x="455.92" y="679.00" font-family="Noto Sans, sans-serif" font-size="14.00" font-weight="bold" fill="#1A1A2E" text-anchor="middle" dominant-baseline="middle">FlightController</text>
  <line x1="353.92" y1="692.00" x2="557.92" y2="692.00" stroke="#1A1A2E" stroke-width="1.50"/>
  <text x="359.92" y="704.00" font-family="Noto Sans, sans-serif" font-size="12.00" font-weight="bold" font-style="italic" fill="#1A1A2E" text-anchor="start" dominant-baseline="middle">attributes</text>
  <text x="359.92" y="728.00" font-family="Noto Sans, sans-serif" font-size="12.00" fill="#1A1A2E" text-anchor="start" dominant-baseline="middle">mode : FlightMode</text>
  <line x1="353.92" y1="740.00" x2="557.92" y2="740.00" stroke="#1A1A2E" stroke-width="1.50"/>
  <text x="359.92" y="752.00" font-family="Noto Sans, sans-serif" font-size="12.00" font-weight="bold" font-style="italic" fill="#1A1A2E" text-anchor="start" dominant-baseline="middle">ports</text>
  <text x="359.92" y="776.00" font-family="Noto Sans, sans-serif" font-size="12.00" fill="#1A1A2E" text-anchor="start" dominant-baseline="middle">power : PowerPort</text>
  <text x="359.92" y="794.00" font-family="Noto Sans, sans-serif" font-size="12.00" fill="#1A1A2E" text-anchor="start" dominant-baseline="middle">telemetry : TelemetryPort</text>
  <text x="359.92" y="812.00" font-family="Noto Sans, sans-serif" font-size="12.00" fill="#1A1A2E" text-anchor="start" dominant-baseline="middle">motors : MotorControlPort</text>
  <text x="359.92" y="830.00" font-family="Noto Sans, sans-serif" font-size="12.00" fill="#1A1A2E" text-anchor="start" dominant-baseline="middle">sensors : SensorPort</text>
  <rect x="24.00" y="1088.00" width="211.44" height="146.00" fill="#EEF4FF" stroke="#1A1A2E" stroke-width="1.50"/>
  <text x="129.72" y="1100.00" font-family="Noto Sans, sans-serif" font-size="12.00" font-style="italic" fill="#1A1A2E" text-anchor="middle" dominant-baseline="middle">«part def»</text>
  <text x="129.72" y="1119.00" font-family="Noto Sans, sans-serif" font-size="14.00" font-weight="bold" fill="#1A1A2E" text-anchor="middle" dominant-baseline="middle">Motor</text>
  <line x1="24.00" y1="1132.00" x2="235.44" y2="1132.00" stroke="#1A1A2E" stroke-width="1.50"/>
  <text x="30.00" y="1144.00" font-family="Noto Sans, sans-serif" font-size="12.00" font-weight="bold" font-style="italic" fill="#1A1A2E" text-anchor="start" dominant-baseline="middle">attributes</text>
  <text x="30.00" y="1168.00" font-family="Noto Sans, sans-serif" font-size="12.00" fill="#1A1A2E" text-anchor="start" dominant-baseline="middle">maxThrust : Mass</text>
  <line x1="24.00" y1="1180.00" x2="235.44" y2="1180.00" stroke="#1A1A2E" stroke-width="1.50"/>
  <text x="30.00" y="1192.00" font-family="Noto Sans, sans-serif" font-size="12.00" font-weight="bold" font-style="italic" fill="#1A1A2E" text-anchor="start" dominant-baseline="middle">ports</text>
  <text x="30.00" y="1216.00" font-family="Noto Sans, sans-serif" font-size="12.00" fill="#1A1A2E" text-anchor="start" dominant-baseline="middle">control : MotorControlPort</text>
  <rect x="259.44" y="1088.00" width="130.00" height="50.00" fill="#EEF4FF" stroke="#1A1A2E" stroke-width="1.50"/>
  <text x="324.44" y="1100.00" font-family="Noto Sans, sans-serif" font-size="12.00" font-style="italic" fill="#1A1A2E" text-anchor="middle" dominant-baseline="middle">«part def»</text>
  <text x="324.44" y="1119.00" font-family="Noto Sans, sans-serif" font-size="14.00" font-weight="bold" fill="#1A1A2E" text-anchor="middle" dominant-baseline="middle">Propeller</text>
  <rect x="413.44" y="1088.00" width="144.48" height="98.00" fill="#EEF4FF" stroke="#1A1A2E" stroke-width="1.50"/>
  <text x="485.68" y="1100.00" font-family="Noto Sans, sans-serif" font-size="12.00" font-style="italic" fill="#1A1A2E" text-anchor="middle" dominant-baseline="middle">«part def»</text>
  <text x="485.68" y="1119.00" font-family="Noto Sans, sans-serif" font-size="14.00" font-weight="bold" fill="#1A1A2E" text-anchor="middle" dominant-baseline="middle">ImuSensor</text>
  <line x1="413.44" y1="1132.00" x2="557.92" y2="1132.00" stroke="#1A1A2E" stroke-width="1.50"/>
  <text x="419.44" y="1144.00" font-family="Noto Sans, sans-serif" font-size="12.00" font-weight="bold" font-style="italic" fill="#1A1A2E" text-anchor="start" dominant-baseline="middle">ports</text>
  <text x="419.44" y="1168.00" font-family="Noto Sans, sans-serif" font-size="12.00" fill="#1A1A2E" text-anchor="start" dominant-baseline="middle">data : SensorPort</text>
  <rect x="581.92" y="1088.00" width="144.48" height="98.00" fill="#EEF4FF" stroke="#1A1A2E" stroke-width="1.50"/>
  <text x="654.16" y="1100.00" font-family="Noto Sans, sans-serif" font-size="12.00" font-style="italic" fill="#1A1A2E" text-anchor="middle" dominant-baseline="middle">«part def»</text>
  <text x="654.16" y="1119.00" font-family="Noto Sans, sans-serif" font-size="14.00" font-weight="bold" fill="#1A1A2E" text-anchor="middle" dominant-baseline="middle">GpsSensor</text>
  <line x1="581.92" y1="1132.00" x2="726.40" y2="1132.00" stroke="#1A1A2E" stroke-width="1.50"/>
  <text x="587.92" y="1144.00" font-family="Noto Sans, sans-serif" font-size="12.00" font-weight="bold" font-style="italic" fill="#1A1A2E" text-anchor="start" dominant-baseline="middle">ports</text>
  <text x="587.92" y="1168.00" font-family="Noto Sans, sans-serif" font-size="12.00" fill="#1A1A2E" text-anchor="start" dominant-baseline="middle">data : SensorPort</text>
  <rect x="24.00" y="1474.00" width="130.00" height="50.00" fill="#EEF4FF" stroke="#1A1A2E" stroke-width="1.50"/>
  <text x="89.00" y="1486.00" font-family="Noto Sans, sans-serif" font-size="12.00" font-style="italic" fill="#1A1A2E" text-anchor="middle" dominant-baseline="middle">«part def»</text>
  <text x="89.00" y="1505.00" font-family="Noto Sans, sans-serif" font-size="14.00" font-weight="bold" fill="#1A1A2E" text-anchor="middle" dominant-baseline="middle">Frame</text>
  <rect x="178.00" y="1474.00" width="130.00" height="50.00" fill="#EEF4FF" stroke="#1A1A2E" stroke-width="1.50"/>
  <text x="243.00" y="1486.00" font-family="Noto Sans, sans-serif" font-size="12.00" font-style="italic" fill="#1A1A2E" text-anchor="middle" dominant-baseline="middle">«part def»</text>
  <text x="243.00" y="1505.00" font-family="Noto Sans, sans-serif" font-size="14.00" font-weight="bold" fill="#1A1A2E" text-anchor="middle" dominant-baseline="middle">RacingMotor</text>
  <rect x="332.00" y="1474.00" width="150.88" height="50.00" fill="#EEF4FF" stroke="#1A1A2E" stroke-width="1.50"/>
  <text x="407.44" y="1486.00" font-family="Noto Sans, sans-serif" font-size="12.00" font-style="italic" fill="#1A1A2E" text-anchor="middle" dominant-baseline="middle">«part def»</text>
  <text x="407.44" y="1505.00" font-family="Noto Sans, sans-serif" font-size="14.00" font-weight="bold" fill="#1A1A2E" text-anchor="middle" dominant-baseline="middle">EnduranceBattery</text>
  <rect x="24.00" y="1764.00" width="233.76" height="254.00" fill="#EEF4FF" stroke="#1A1A2E" stroke-width="1.50"/>
  <text x="140.88" y="1776.00" font-family="Noto Sans, sans-serif" font-size="12.00" font-style="italic" fill="#1A1A2E" text-anchor="middle" dominant-baseline="middle">«part def»</text>
  <text x="140.88" y="1795.00" font-family="Noto Sans, sans-serif" font-size="14.00" font-weight="bold" fill="#1A1A2E" text-anchor="middle" dominant-baseline="middle">Drone</text>
  <line x1="24.00" y1="1808.00" x2="257.76" y2="1808.00" stroke="#1A1A2E" stroke-width="1.50"/>
  <text x="30.00" y="1820.00" font-family="Noto Sans, sans-serif" font-size="12.00" font-weight="bold" font-style="italic" fill="#1A1A2E" text-anchor="start" dominant-baseline="middle">attributes</text>
  <text x="30.00" y="1844.00" font-family="Noto Sans, sans-serif" font-size="12.00" fill="#1A1A2E" text-anchor="start" dominant-baseline="middle">totalMass : Mass</text>
  <line x1="24.00" y1="1856.00" x2="257.76" y2="1856.00" stroke="#1A1A2E" stroke-width="1.50"/>
  <text x="30.00" y="1868.00" font-family="Noto Sans, sans-serif" font-size="12.00" font-weight="bold" font-style="italic" fill="#1A1A2E" text-anchor="start" dominant-baseline="middle">parts</text>
  <text x="30.00" y="1892.00" font-family="Noto Sans, sans-serif" font-size="12.00" fill="#1A1A2E" text-anchor="start" dominant-baseline="middle">airframe : Frame</text>
  <text x="30.00" y="1910.00" font-family="Noto Sans, sans-serif" font-size="12.00" fill="#1A1A2E" text-anchor="start" dominant-baseline="middle">battery : Battery</text>
  <text x="30.00" y="1928.00" font-family="Noto Sans, sans-serif" font-size="12.00" fill="#1A1A2E" text-anchor="start" dominant-baseline="middle">controller : FlightController</text>
  <text x="30.00" y="1946.00" font-family="Noto Sans, sans-serif" font-size="12.00" fill="#1A1A2E" text-anchor="start" dominant-baseline="middle">motors : Motor [4]</text>
  <text x="30.00" y="1964.00" font-family="Noto Sans, sans-serif" font-size="12.00" fill="#1A1A2E" text-anchor="start" dominant-baseline="middle">propellers : Propeller [4]</text>
  <text x="30.00" y="1982.00" font-family="Noto Sans, sans-serif" font-size="12.00" fill="#1A1A2E" text-anchor="start" dominant-baseline="middle">imu : ImuSensor</text>
  <text x="30.00" y="2000.00" font-family="Noto Sans, sans-serif" font-size="12.00" fill="#1A1A2E" text-anchor="start" dominant-baseline="middle">gps : GpsSensor</text>
  <rect x="281.76" y="1764.00" width="194.28" height="50.00" fill="#EEF4FF" stroke="#1A1A2E" stroke-width="1.50"/>
  <text x="378.90" y="1776.00" font-family="Noto Sans, sans-serif" font-size="12.00" font-style="italic" fill="#1A1A2E" text-anchor="middle" dominant-baseline="middle">«requirement def»</text>
  <text x="378.90" y="1795.00" font-family="Noto Sans, sans-serif" font-size="14.00" font-weight="bold" fill="#1A1A2E" text-anchor="middle" dominant-baseline="middle">FlightTimeRequirement</text>
  <path d="M 243.00 1474.00 L 243.00 1458.00 A 4.00 4.00 0 0 0 239.00 1454.00 L 133.72 1454.00 A 4.00 4.00 0 0 1 129.72 1450.00 L 129.72 1234.00" fill="none" stroke="#1A1A2E" stroke-width="1.50" marker-end="url(#arrowhead-open)"/>
  <path d="M 407.44 1474.00 L 407.44 1458.00 A 4.00 4.00 0 0 0 403.44 1454.00 L 251.44 1454.00 A 4.00 4.00 0 0 1 247.44 1450.00 L 247.44 817.26 A 3.26 3.26 0 0 1 250.70 814.00 L 250.70 814.00 A 3.26 3.26 0 0 0 253.96 810.74 L 253.96 794.00" fill="none" stroke="#1A1A2E" stroke-width="1.50" marker-end="url(#arrowhead-open)"/>
  <path d="M 397.00 118.00 L 397.00 134.00 A 4.00 4.00 0 0 1 393.00 138.00 L 344.88 138.00 A 4.00 4.00 0 0 0 340.88 142.00 L 340.88 624.00 A 4.00 4.00 0 0 1 336.88 628.00 L 257.96 628.00 A 4.00 4.00 0 0 0 253.96 632.00 L 253.96 648.00" fill="none" stroke="#1A1A2E" stroke-width="1.50" marker-end="url(#arrowhead-filled-diamond)"/>
  <path d="M 397.00 118.00 L 397.00 134.00 A 4.00 4.00 0 0 0 401.00 138.00 L 490.88 138.00 A 4.00 4.00 0 0 1 494.88 142.00 L 494.88 624.00 A 4.00 4.00 0 0 1 490.88 628.00 L 459.92 628.00 A 4.00 4.00 0 0 0 455.92 632.00 L 455.92 648.00" fill="none" stroke="#1A1A2E" stroke-width="1.50" marker-end="url(#arrowhead-filled-diamond)"/>
  <path d="M 551.00 118.00 L 551.00 134.00 A 4.00 4.00 0 0 1 547.00 138.00 L 498.88 138.00 A 4.00 4.00 0 0 0 494.88 142.00 L 494.88 624.00 A 4.00 4.00 0 0 1 490.88 628.00 L 459.92 628.00 A 4.00 4.00 0 0 0 455.92 632.00 L 455.92 648.00" fill="none" stroke="#1A1A2E" stroke-width="1.50" marker-end="url(#arrowhead-filled-diamond)"/>
  <path d="M 99.44 408.00 L 99.44 424.00 A 4.00 4.00 0 0 0 103.44 428.00 L 451.92 428.00 A 4.00 4.00 0 0 1 455.92 432.00 L 455.92 648.00" fill="none" stroke="#1A1A2E" stroke-width="1.50" marker-end="url(#arrowhead-filled-diamond)"/>
  <path d="M 263.88 408.00 L 263.88 624.00 A 4.00 4.00 0 0 0 267.88 628.00 L 451.92 628.00 A 4.00 4.00 0 0 1 455.92 632.00 L 455.92 648.00" fill="none" stroke="#1A1A2E" stroke-width="1.50" marker-end="url(#arrowhead-filled-diamond)"/>
  <path d="M 99.44 408.00 L 99.44 424.00 A 4.00 4.00 0 0 0 103.44 428.00 L 162.00 428.00 A 4.00 4.00 0 0 1 166.00 432.00 L 166.00 1064.00 A 4.00 4.00 0 0 1 162.00 1068.00 L 133.72 1068.00 A 4.00 4.00 0 0 0 129.72 1072.00 L 129.72 1088.00" fill="none" stroke="#1A1A2E" stroke-width="1.50" marker-end="url(#arrowhead-filled-diamond)"/>
  <path d="M 263.88 408.00 L 263.88 424.00 A 4.00 4.00 0 0 0 267.88 428.00 L 337.92 428.00 A 4.00 4.00 0 0 1 341.92 432.00 L 341.92 1064.00 A 4.00 4.00 0 0 0 345.92 1068.00 L 481.68 1068.00 A 4.00 4.00 0 0 1 485.68 1072.00 L 485.68 1088.00" fill="none" stroke="#1A1A2E" stroke-width="1.50" marker-end="url(#arrowhead-filled-diamond)"/>
  <path d="M 263.88 408.00 L 263.88 424.00 A 4.00 4.00 0 0 0 267.88 428.00 L 650.16 428.00 A 4.00 4.00 0 0 1 654.16 432.00 L 654.16 1088.00" fill="none" stroke="#1A1A2E" stroke-width="1.50" marker-end="url(#arrowhead-filled-diamond)"/>
  <path d="M 89.00 1524.00 L 89.00 1740.00 A 4.00 4.00 0 0 0 93.00 1744.00 L 136.88 1744.00 A 4.00 4.00 0 0 1 140.88 1748.00 L 140.88 1764.00" fill="none" stroke="#1A1A2E" stroke-width="1.50" marker-end="url(#arrowhead-filled-diamond)"/>
  <path d="M 253.96 794.00 L 253.96 810.74 A 3.26 3.26 0 0 1 250.70 814.00 L 250.70 814.00 A 3.26 3.26 0 0 0 247.44 817.26 L 247.44 1458.00 A 4.00 4.00 0 0 1 243.44 1462.00 L 170.00 1462.00 A 4.00 4.00 0 0 0 166.00 1466.00 L 166.00 1740.00 A 4.00 4.00 0 0 1 162.00 1744.00 L 144.88 1744.00 A 4.00 4.00 0 0 0 140.88 1748.00 L 140.88 1764.00" fill="none" stroke="#1A1A2E" stroke-width="1.50" marker-end="url(#arrowhead-filled-diamond)"/>
  <path d="M 455.92 848.00 L 455.92 864.00 A 4.00 4.00 0 0 1 451.92 868.00 L 251.44 868.00 A 4.00 4.00 0 0 0 247.44 872.00 L 247.44 1458.00 A 4.00 4.00 0 0 1 243.44 1462.00 L 170.00 1462.00 A 4.00 4.00 0 0 0 166.00 1466.00 L 166.00 1740.00 A 4.00 4.00 0 0 1 162.00 1744.00 L 144.88 1744.00 A 4.00 4.00 0 0 0 140.88 1748.00 L 140.88 1764.00" fill="none" stroke="#1A1A2E" stroke-width="1.50" marker-end="url(#arrowhead-filled-diamond)"/>
  <path d="M 129.72 1234.00 L 129.72 1250.00 A 4.00 4.00 0 0 0 133.72 1254.00 L 162.00 1254.00 A 4.00 4.00 0 0 1 166.00 1258.00 L 166.00 1740.00 A 4.00 4.00 0 0 1 162.00 1744.00 L 144.88 1744.00 A 4.00 4.00 0 0 0 140.88 1748.00 L 140.88 1764.00" fill="none" stroke="#1A1A2E" stroke-width="1.50" marker-end="url(#arrowhead-filled-diamond)"/>
  <path d="M 324.44 1138.00 L 324.44 1155.78 A 2.22 2.22 0 0 1 322.22 1158.00 L 322.22 1158.00 A 2.22 2.22 0 0 0 320.00 1160.22 L 320.00 1740.00 A 4.00 4.00 0 0 1 316.00 1744.00 L 144.88 1744.00 A 4.00 4.00 0 0 0 140.88 1748.00 L 140.88 1764.00" fill="none" stroke="#1A1A2E" stroke-width="1.50" marker-end="url(#arrowhead-filled-diamond)"/>
  <path d="M 485.68 1186.00 L 485.68 1202.00 A 4.00 4.00 0 0 1 481.68 1206.00 L 324.00 1206.00 A 4.00 4.00 0 0 0 320.00 1210.00 L 320.00 1740.00 A 4.00 4.00 0 0 1 316.00 1744.00 L 144.88 1744.00 A 4.00 4.00 0 0 0 140.88 1748.00 L 140.88 1764.00" fill="none" stroke="#1A1A2E" stroke-width="1.50" marker-end="url(#arrowhead-filled-diamond)"/>
  <path d="M 654.16 1186.00 L 654.16 1740.00 A 4.00 4.00 0 0 1 650.16 1744.00 L 144.88 1744.00 A 4.00 4.00 0 0 0 140.88 1748.00 L 140.88 1764.00" fill="none" stroke="#1A1A2E" stroke-width="1.50" marker-end="url(#arrowhead-filled-diamond)"/>
</svg>
