<svg xmlns="http://www.w3.org/2000/svg" width="1247.48" height="1327.00" viewBox="0 0 1247.48 1327.00">
  <defs>
    <marker id="line-end-open-chevron" markerWidth="10" markerHeight="7" refX="9" refY="3.5" orient="auto">
      <polyline points="0 0, 10 3.5, 0 7" fill="none" stroke="#1A1A2E" stroke-width="1.50"/>
    </marker>
    <marker id="line-end-hollow-triangle" markerWidth="10" markerHeight="7" refX="9" refY="3.5" orient="auto">
      <polygon points="0 0, 10 3.5, 0 7" fill="#FFFFFF" stroke="#1A1A2E" stroke-width="1.50"/>
    </marker>
    <marker id="line-end-filled-arrow" markerWidth="10" markerHeight="7" refX="9" refY="3.5" orient="auto">
      <polygon points="0 0, 10 3.5, 0 7" fill="#1A1A2E" stroke="#1A1A2E" stroke-width="1.50"/>
    </marker>
    <marker id="line-end-hollow-triangle-crossbar" markerWidth="10" markerHeight="7" refX="9" refY="3.5" orient="auto">
      <polygon points="0 0, 10 3.5, 0 7" fill="#FFFFFF" stroke="#1A1A2E" stroke-width="1.50"/>
      <line x1="7" y1="0" x2="7" y2="7" stroke="#1A1A2E" stroke-width="1.50"/>
    </marker>
    <marker id="line-end-hollow-diamond" markerWidth="14" markerHeight="8" refX="13" refY="4" orient="auto">
      <polygon points="1 4, 7 0, 13 4, 7 8" fill="#FFFFFF" stroke="#1A1A2E" stroke-width="1.50"/>
    </marker>
    <marker id="line-end-filled-diamond" markerWidth="14" markerHeight="8" refX="13" refY="4" orient="auto">
      <polygon points="1 4, 7 0, 13 4, 7 8" fill="#1A1A2E" stroke="#1A1A2E" stroke-width="1.50"/>
    </marker>
    <marker id="line-end-circle" markerWidth="10" markerHeight="10" refX="9" refY="5" orient="auto">
      <circle cx="5" cy="5" r="4" fill="#FFFFFF" stroke="#1A1A2E" stroke-width="1.50"/>
    </marker>
    <marker id="line-end-bar" markerWidth="4" markerHeight="12" refX="2" refY="6" orient="auto">
      <line x1="2" y1="0" x2="2" y2="12" stroke="#1A1A2E" stroke-width="1.50"/>
    </marker>
    <filter id="label-bg" x="-0.05" y="-0.05" width="1.1" height="1.1">
      <feFlood flood-color="#FFFFFF"/>
      <feComposite in="SourceGraphic" operator="over"/>
    </filter>
  </defs>
  <path d="M 12.00 36.00 L 12.00 12.00 L 123.00 12.00 L 123.00 36.00 L 1235.48 36.00 L 1235.48 1315.00 L 12.00 1315.00 Z" fill="#FFFFFF" stroke="#1A1A2E" stroke-width="1.50"/>
  <text x="623.74" y="24.00" font-family="Noto Sans, sans-serif" font-size="12.00" font-style="italic" fill="#1A1A2E" text-anchor="middle" dominant-baseline="middle">«package»</text>
  <text x="623.74" y="43.00" font-family="Noto Sans, sans-serif" font-size="14.00" font-weight="bold" fill="#1A1A2E" text-anchor="middle" dominant-baseline="middle">QuadcopterDrone</text>
  <rect x="24.00" y="68.00" width="130.00" height="50.00" fill="#EEF4FF" stroke="#1A1A2E" stroke-width="1.50"/>
  <text x="89.00" y="80.00" font-family="Noto Sans, sans-serif" font-size="12.00" font-style="italic" fill="#1A1A2E" text-anchor="middle" dominant-baseline="middle">«interface def»</text>
  <text x="89.00" y="99.00" font-family="Noto Sans, sans-serif" font-size="14.00" font-weight="bold" fill="#1A1A2E" text-anchor="middle" dominant-baseline="middle">PowerBus</text>
  <rect x="24.00" y="402.50" width="130.00" height="50.00" fill="#EEF4FF" stroke="#1A1A2E" stroke-width="1.50"/>
  <text x="89.00" y="414.50" font-family="Noto Sans, sans-serif" font-size="12.00" font-style="italic" fill="#1A1A2E" text-anchor="middle" dominant-baseline="middle">«interface def»</text>
  <text x="89.00" y="433.50" font-family="Noto Sans, sans-serif" font-size="14.00" font-weight="bold" fill="#1A1A2E" text-anchor="middle" dominant-baseline="middle">DataBus</text>
  <rect x="24.00" y="579.00" width="130.00" height="50.00" fill="#EEF4FF" stroke="#1A1A2E" stroke-width="1.50"/>
  <text x="89.00" y="591.00" font-family="Noto Sans, sans-serif" font-size="12.00" font-style="italic" fill="#1A1A2E" text-anchor="middle" dominant-baseline="middle">«port def»</text>
  <text x="89.00" y="610.00" font-family="Noto Sans, sans-serif" font-size="14.00" font-weight="bold" fill="#1A1A2E" text-anchor="middle" dominant-baseline="middle">PowerPort</text>
  <rect x="24.00" y="148.00" width="130.00" height="50.00" fill="#EEF4FF" stroke="#1A1A2E" stroke-width="1.50"/>
  <text x="89.00" y="160.00" font-family="Noto Sans, sans-serif" font-size="12.00" font-style="italic" fill="#1A1A2E" text-anchor="middle" dominant-baseline="middle">«port def»</text>
  <text x="89.00" y="179.00" font-family="Noto Sans, sans-serif" font-size="14.00" font-weight="bold" fill="#1A1A2E" text-anchor="middle" dominant-baseline="middle">TelemetryPort</text>
  <rect x="24.00" y="499.00" width="150.88" height="50.00" fill="#EEF4FF" stroke="#1A1A2E" stroke-width="1.50"/>
  <text x="99.44" y="511.00" font-family="Noto Sans, sans-serif" font-size="12.00" font-style="italic" fill="#1A1A2E" text-anchor="middle" dominant-baseline="middle">«port def»</text>
  <text x="99.44" y="530.00" font-family="Noto Sans, sans-serif" font-size="14.00" font-weight="bold" fill="#1A1A2E" text-anchor="middle" dominant-baseline="middle">MotorControlPort</text>
  <rect x="24.00" y="322.50" width="130.00" height="50.00" fill="#EEF4FF" stroke="#1A1A2E" stroke-width="1.50"/>
  <text x="89.00" y="334.50" font-family="Noto Sans, sans-serif" font-size="12.00" font-style="italic" fill="#1A1A2E" text-anchor="middle" dominant-baseline="middle">«port def»</text>
  <text x="89.00" y="353.50" font-family="Noto Sans, sans-serif" font-size="14.00" font-weight="bold" fill="#1A1A2E" text-anchor="middle" dominant-baseline="middle">SensorPort</text>
  <rect x="1093.48" y="812.00" width="130.00" height="50.00" fill="#EEF4FF" stroke="#1A1A2E" stroke-width="1.50"/>
  <text x="1158.48" y="824.00" font-family="Noto Sans, sans-serif" font-size="12.00" font-style="italic" fill="#1A1A2E" text-anchor="middle" dominant-baseline="middle">«attribute def»</text>
  <text x="1158.48" y="843.00" font-family="Noto Sans, sans-serif" font-size="14.00" font-weight="bold" fill="#1A1A2E" text-anchor="middle" dominant-baseline="middle">Mass</text>
  <rect x="789.72" y="1111.00" width="130.00" height="50.00" fill="#EEF4FF" stroke="#1A1A2E" stroke-width="1.50"/>
  <text x="854.72" y="1123.00" font-family="Noto Sans, sans-serif" font-size="12.00" font-style="italic" fill="#1A1A2E" text-anchor="middle" dominant-baseline="middle">«attribute def»</text>
  <text x="854.72" y="1142.00" font-family="Noto Sans, sans-serif" font-size="14.00" font-weight="bold" fill="#1A1A2E" text-anchor="middle" dominant-baseline="middle">Voltage</text>
  <rect x="789.72" y="150.50" width="130.00" height="50.00" fill="#EEF4FF" stroke="#1A1A2E" stroke-width="1.50"/>
  <text x="854.72" y="162.50" font-family="Noto Sans, sans-serif" font-size="12.00" font-style="italic" fill="#1A1A2E" text-anchor="middle" dominant-baseline="middle">«enum def»</text>
  <text x="854.72" y="181.50" font-family="Noto Sans, sans-serif" font-size="14.00" font-weight="bold" fill="#1A1A2E" text-anchor="middle" dominant-baseline="middle">FlightMode</text>
  <rect x="414.28" y="1000.00" width="151.92" height="146.00" fill="#EEF4FF" stroke="#1A1A2E" stroke-width="1.50"/>
  <text x="490.24" y="1012.00" font-family="Noto Sans, sans-serif" font-size="12.00" font-style="italic" fill="#1A1A2E" text-anchor="middle" dominant-baseline="middle">«part def»</text>
  <text x="490.24" y="1031.00" font-family="Noto Sans, sans-serif" font-size="14.00" font-weight="bold" fill="#1A1A2E" text-anchor="middle" dominant-baseline="middle">Battery</text>
  <line x1="414.28" y1="1044.00" x2="566.20" y2="1044.00" stroke="#1A1A2E" stroke-width="1.50"/>
  <text x="420.28" y="1056.00" font-family="Noto Sans, sans-serif" font-size="12.00" font-weight="bold" font-style="italic" fill="#1A1A2E" text-anchor="start" dominant-baseline="middle">attributes</text>
  <text x="420.28" y="1080.00" font-family="Noto Sans, sans-serif" font-size="12.00" fill="#1A1A2E" text-anchor="start" dominant-baseline="middle">capacity : Voltage</text>
  <line x1="414.28" y1="1092.00" x2="566.20" y2="1092.00" stroke="#1A1A2E" stroke-width="1.50"/>
  <text x="420.28" y="1104.00" font-family="Noto Sans, sans-serif" font-size="12.00" font-weight="bold" font-style="italic" fill="#1A1A2E" text-anchor="start" dominant-baseline="middle">ports</text>
  <text x="420.28" y="1128.00" font-family="Noto Sans, sans-serif" font-size="12.00" fill="#1A1A2E" text-anchor="start" dominant-baseline="middle">output : PowerPort</text>
  <rect x="414.28" y="165.50" width="204.00" height="200.00" fill="#EEF4FF" stroke="#1A1A2E" stroke-width="1.50"/>
  <text x="516.28" y="177.50" font-family="Noto Sans, sans-serif" font-size="12.00" font-style="italic" fill="#1A1A2E" text-anchor="middle" dominant-baseline="middle">«part def»</text>
  <text x="516.28" y="196.50" font-family="Noto Sans, sans-serif" font-size="14.00" font-weight="bold" fill="#1A1A2E" text-anchor="middle" dominant-baseline="middle">FlightController</text>
  <line x1="414.28" y1="209.50" x2="618.28" y2="209.50" stroke="#1A1A2E" stroke-width="1.50"/>
  <text x="420.28" y="221.50" font-family="Noto Sans, sans-serif" font-size="12.00" font-weight="bold" font-style="italic" fill="#1A1A2E" text-anchor="start" dominant-baseline="middle">attributes</text>
  <text x="420.28" y="245.50" font-family="Noto Sans, sans-serif" font-size="12.00" fill="#1A1A2E" text-anchor="start" dominant-baseline="middle">mode : FlightMode</text>
  <line x1="414.28" y1="257.50" x2="618.28" y2="257.50" stroke="#1A1A2E" stroke-width="1.50"/>
  <text x="420.28" y="269.50" font-family="Noto Sans, sans-serif" font-size="12.00" font-weight="bold" font-style="italic" fill="#1A1A2E" text-anchor="start" dominant-baseline="middle">ports</text>
  <text x="420.28" y="293.50" font-family="Noto Sans, sans-serif" font-size="12.00" fill="#1A1A2E" text-anchor="start" dominant-baseline="middle">power : PowerPort</text>
  <text x="420.28" y="311.50" font-family="Noto Sans, sans-serif" font-size="12.00" fill="#1A1A2E" text-anchor="start" dominant-baseline="middle">telemetry : TelemetryPort</text>
  <text x="420.28" y="329.50" font-family="Noto Sans, sans-serif" font-size="12.00" fill="#1A1A2E" text-anchor="start" dominant-baseline="middle">motors : MotorControlPort</text>
  <text x="420.28" y="347.50" font-family="Noto Sans, sans-serif" font-size="12.00" fill="#1A1A2E" text-anchor="start" dominant-baseline="middle">sensors : SensorPort</text>
  <rect x="414.28" y="824.00" width="211.44" height="146.00" fill="#EEF4FF" stroke="#1A1A2E" stroke-width="1.50"/>
  <text x="520.00" y="836.00" font-family="Noto Sans, sans-serif" font-size="12.00" font-style="italic" fill="#1A1A2E" text-anchor="middle" dominant-baseline="middle">«part def»</text>
  <text x="520.00" y="855.00" font-family="Noto Sans, sans-serif" font-size="14.00" font-weight="bold" fill="#1A1A2E" text-anchor="middle" dominant-baseline="middle">Motor</text>
  <line x1="414.28" y1="868.00" x2="625.72" y2="868.00" stroke="#1A1A2E" stroke-width="1.50"/>
  <text x="420.28" y="880.00" font-family="Noto Sans, sans-serif" font-size="12.00" font-weight="bold" font-style="italic" fill="#1A1A2E" text-anchor="start" dominant-baseline="middle">attributes</text>
  <text x="420.28" y="904.00" font-family="Noto Sans, sans-serif" font-size="12.00" fill="#1A1A2E" text-anchor="start" dominant-baseline="middle">maxThrust : Mass</text>
  <line x1="414.28" y1="916.00" x2="625.72" y2="916.00" stroke="#1A1A2E" stroke-width="1.50"/>
  <text x="420.28" y="928.00" font-family="Noto Sans, sans-serif" font-size="12.00" font-weight="bold" font-style="italic" fill="#1A1A2E" text-anchor="start" dominant-baseline="middle">ports</text>
  <text x="420.28" y="952.00" font-family="Noto Sans, sans-serif" font-size="12.00" fill="#1A1A2E" text-anchor="start" dominant-baseline="middle">control : MotorControlPort</text>
  <rect x="24.00" y="759.50" width="130.00" height="50.00" fill="#EEF4FF" stroke="#1A1A2E" stroke-width="1.50"/>
  <text x="89.00" y="771.50" font-family="Noto Sans, sans-serif" font-size="12.00" font-style="italic" fill="#1A1A2E" text-anchor="middle" dominant-baseline="middle">«part def»</text>
  <text x="89.00" y="790.50" font-family="Noto Sans, sans-serif" font-size="14.00" font-weight="bold" fill="#1A1A2E" text-anchor="middle" dominant-baseline="middle">Propeller</text>
  <rect x="414.28" y="395.50" width="144.48" height="98.00" fill="#EEF4FF" stroke="#1A1A2E" stroke-width="1.50"/>
  <text x="486.52" y="407.50" font-family="Noto Sans, sans-serif" font-size="12.00" font-style="italic" fill="#1A1A2E" text-anchor="middle" dominant-baseline="middle">«part def»</text>
  <text x="486.52" y="426.50" font-family="Noto Sans, sans-serif" font-size="14.00" font-weight="bold" fill="#1A1A2E" text-anchor="middle" dominant-baseline="middle">ImuSensor</text>
  <line x1="414.28" y1="439.50" x2="558.76" y2="439.50" stroke="#1A1A2E" stroke-width="1.50"/>
  <text x="420.28" y="451.50" font-family="Noto Sans, sans-serif" font-size="12.00" font-weight="bold" font-style="italic" fill="#1A1A2E" text-anchor="start" dominant-baseline="middle">ports</text>
  <text x="420.28" y="475.50" font-family="Noto Sans, sans-serif" font-size="12.00" fill="#1A1A2E" text-anchor="start" dominant-baseline="middle">data : SensorPort</text>
  <rect x="414.28" y="523.50" width="144.48" height="98.00" fill="#EEF4FF" stroke="#1A1A2E" stroke-width="1.50"/>
  <text x="486.52" y="535.50" font-family="Noto Sans, sans-serif" font-size="12.00" font-style="italic" fill="#1A1A2E" text-anchor="middle" dominant-baseline="middle">«part def»</text>
  <text x="486.52" y="554.50" font-family="Noto Sans, sans-serif" font-size="14.00" font-weight="bold" fill="#1A1A2E" text-anchor="middle" dominant-baseline="middle">GpsSensor</text>
  <line x1="414.28" y1="567.50" x2="558.76" y2="567.50" stroke="#1A1A2E" stroke-width="1.50"/>
  <text x="420.28" y="579.50" font-family="Noto Sans, sans-serif" font-size="12.00" font-weight="bold" font-style="italic" fill="#1A1A2E" text-anchor="start" dominant-baseline="middle">ports</text>
  <text x="420.28" y="603.50" font-family="Noto Sans, sans-serif" font-size="12.00" fill="#1A1A2E" text-anchor="start" dominant-baseline="middle">data : SensorPort</text>
  <rect x="24.00" y="839.50" width="130.00" height="50.00" fill="#EEF4FF" stroke="#1A1A2E" stroke-width="1.50"/>
  <text x="89.00" y="851.50" font-family="Noto Sans, sans-serif" font-size="12.00" font-style="italic" fill="#1A1A2E" text-anchor="middle" dominant-baseline="middle">«part def»</text>
  <text x="89.00" y="870.50" font-family="Noto Sans, sans-serif" font-size="14.00" font-weight="bold" fill="#1A1A2E" text-anchor="middle" dominant-baseline="middle">Frame</text>
  <rect x="24.00" y="1005.50" width="130.00" height="50.00" fill="#EEF4FF" stroke="#1A1A2E" stroke-width="1.50"/>
  <text x="89.00" y="1017.50" font-family="Noto Sans, sans-serif" font-size="12.00" font-style="italic" fill="#1A1A2E" text-anchor="middle" dominant-baseline="middle">«part def»</text>
  <text x="89.00" y="1036.50" font-family="Noto Sans, sans-serif" font-size="14.00" font-weight="bold" fill="#1A1A2E" text-anchor="middle" dominant-baseline="middle">RacingMotor</text>
  <rect x="24.00" y="1173.00" width="150.88" height="50.00" fill="#EEF4FF" stroke="#1A1A2E" stroke-width="1.50"/>
  <text x="99.44" y="1185.00" font-family="Noto Sans, sans-serif" font-size="12.00" font-style="italic" fill="#1A1A2E" text-anchor="middle" dominant-baseline="middle">«part def»</text>
  <text x="99.44" y="1204.00" font-family="Noto Sans, sans-serif" font-size="14.00" font-weight="bold" fill="#1A1A2E" text-anchor="middle" dominant-baseline="middle">EnduranceBattery</text>
  <rect x="789.72" y="597.50" width="233.76" height="254.00" fill="#EEF4FF" stroke="#1A1A2E" stroke-width="1.50"/>
  <text x="906.60" y="609.50" font-family="Noto Sans, sans-serif" font-size="12.00" font-style="italic" fill="#1A1A2E" text-anchor="middle" dominant-baseline="middle">«part def»</text>
  <text x="906.60" y="628.50" font-family="Noto Sans, sans-serif" font-size="14.00" font-weight="bold" fill="#1A1A2E" text-anchor="middle" dominant-baseline="middle">Drone</text>
  <line x1="789.72" y1="641.50" x2="1023.48" y2="641.50" stroke="#1A1A2E" stroke-width="1.50"/>
  <text x="795.72" y="653.50" font-family="Noto Sans, sans-serif" font-size="12.00" font-weight="bold" font-style="italic" fill="#1A1A2E" text-anchor="start" dominant-baseline="middle">attributes</text>
  <text x="795.72" y="677.50" font-family="Noto Sans, sans-serif" font-size="12.00" fill="#1A1A2E" text-anchor="start" dominant-baseline="middle">totalMass : Mass</text>
  <line x1="789.72" y1="689.50" x2="1023.48" y2="689.50" stroke="#1A1A2E" stroke-width="1.50"/>
  <text x="795.72" y="701.50" font-family="Noto Sans, sans-serif" font-size="12.00" font-weight="bold" font-style="italic" fill="#1A1A2E" text-anchor="start" dominant-baseline="middle">parts</text>
  <text x="795.72" y="725.50" font-family="Noto Sans, sans-serif" font-size="12.00" fill="#1A1A2E" text-anchor="start" dominant-baseline="middle">airframe : Frame</text>
  <text x="795.72" y="743.50" font-family="Noto Sans, sans-serif" font-size="12.00" fill="#1A1A2E" text-anchor="start" dominant-baseline="middle">battery : Battery</text>
  <text x="795.72" y="761.50" font-family="Noto Sans, sans-serif" font-size="12.00" fill="#1A1A2E" text-anchor="start" dominant-baseline="middle">controller : FlightController</text>
  <text x="795.72" y="779.50" font-family="Noto Sans, sans-serif" font-size="12.00" fill="#1A1A2E" text-anchor="start" dominant-baseline="middle">motors : Motor [4]</text>
  <text x="795.72" y="797.50" font-family="Noto Sans, sans-serif" font-size="12.00" fill="#1A1A2E" text-anchor="start" dominant-baseline="middle">propellers : Propeller [4]</text>
  <text x="795.72" y="815.50" font-family="Noto Sans, sans-serif" font-size="12.00" fill="#1A1A2E" text-anchor="start" dominant-baseline="middle">imu : ImuSensor</text>
  <text x="795.72" y="833.50" font-family="Noto Sans, sans-serif" font-size="12.00" fill="#1A1A2E" text-anchor="start" dominant-baseline="middle">gps : GpsSensor</text>
  <rect x="24.00" y="1253.00" width="194.28" height="50.00" fill="#EEF4FF" stroke="#1A1A2E" stroke-width="1.50"/>
  <text x="121.14" y="1265.00" font-family="Noto Sans, sans-serif" font-size="12.00" font-style="italic" fill="#1A1A2E" text-anchor="middle" dominant-baseline="middle">«requirement def»</text>
  <text x="121.14" y="1284.00" font-family="Noto Sans, sans-serif" font-size="14.00" font-weight="bold" fill="#1A1A2E" text-anchor="middle" dominant-baseline="middle">FlightTimeRequirement</text>
  <path d="M 154.00 619.00 L 224.28 619.00 A 4.00 4.00 0 0 1 228.28 623.00 L 228.28 1006.00 A 4.00 4.00 0 0 0 232.28 1010.00 L 414.28 1010.00" fill="none" stroke="#1A1A2E" stroke-width="1.50" marker-end="url(#line-end-filled-diamond)"/>
  <path d="M 566.20 1136.00 L 789.72 1136.00" fill="none" stroke="#1A1A2E" stroke-width="1.50" marker-end="url(#line-end-open-chevron)" stroke-dasharray="6 3"/>
  <path d="M 154.00 589.00 L 256.28 589.00 A 4.00 4.00 0 0 0 260.28 585.00 L 260.28 359.50 A 4.00 4.00 0 0 1 264.28 355.50 L 414.28 355.50" fill="none" stroke="#1A1A2E" stroke-width="1.50" marker-end="url(#line-end-filled-diamond)"/>
  <path d="M 154.00 173.00 L 227.03 173.00 A 1.25 1.25 0 0 1 228.28 174.25 L 228.28 174.25 A 1.25 1.25 0 0 0 229.53 175.50 L 414.28 175.50" fill="none" stroke="#1A1A2E" stroke-width="1.50" marker-end="url(#line-end-filled-diamond)"/>
  <path d="M 174.88 509.00 L 240.28 509.00 A 4.00 4.00 0 0 0 244.28 505.00 L 244.28 299.50 A 4.00 4.00 0 0 1 248.28 295.50 L 414.28 295.50" fill="none" stroke="#1A1A2E" stroke-width="1.50" marker-end="url(#line-end-filled-diamond)"/>
  <path d="M 154.00 332.50 L 224.28 332.50 A 4.00 4.00 0 0 0 228.28 328.50 L 228.28 239.50 A 4.00 4.00 0 0 1 232.28 235.50 L 414.28 235.50" fill="none" stroke="#1A1A2E" stroke-width="1.50" marker-end="url(#line-end-filled-diamond)"/>
  <path d="M 618.28 175.50 L 789.72 175.50" fill="none" stroke="#1A1A2E" stroke-width="1.50" marker-end="url(#line-end-open-chevron)" stroke-dasharray="6 3"/>
  <path d="M 174.88 539.00 L 272.28 539.00 A 4.00 4.00 0 0 1 276.28 543.00 L 276.28 830.00 A 4.00 4.00 0 0 0 280.28 834.00 L 414.28 834.00" fill="none" stroke="#1A1A2E" stroke-width="1.50" marker-end="url(#line-end-filled-diamond)"/>
  <path d="M 625.72 960.00 L 1029.48 960.00 A 4.00 4.00 0 0 0 1033.48 956.00 L 1033.48 856.00 A 4.00 4.00 0 0 1 1037.48 852.00 L 1093.48 852.00" fill="none" stroke="#1A1A2E" stroke-width="1.50" marker-end="url(#line-end-open-chevron)" stroke-dasharray="6 3"/>
  <path d="M 154.00 347.50 L 304.28 347.50 A 4.00 4.00 0 0 1 308.28 351.50 L 308.28 440.50 A 4.00 4.00 0 0 0 312.28 444.50 L 414.28 444.50" fill="none" stroke="#1A1A2E" stroke-width="1.50" marker-end="url(#line-end-filled-diamond)"/>
  <path d="M 154.00 362.50 L 288.28 362.50 A 4.00 4.00 0 0 1 292.28 366.50 L 292.28 568.50 A 4.00 4.00 0 0 0 296.28 572.50 L 414.28 572.50" fill="none" stroke="#1A1A2E" stroke-width="1.50" marker-end="url(#line-end-filled-diamond)"/>
  <path d="M 154.00 1030.50 L 240.28 1030.50 A 4.00 4.00 0 0 0 244.28 1026.50 L 244.28 964.00 A 4.00 4.00 0 0 1 248.28 960.00 L 414.28 960.00" fill="none" stroke="#1A1A2E" stroke-width="1.50" marker-end="url(#line-end-hollow-triangle)"/>
  <path d="M 174.88 1198.00 L 224.28 1198.00 A 4.00 4.00 0 0 0 228.28 1194.00 L 228.28 1140.00 A 4.00 4.00 0 0 1 232.28 1136.00 L 414.28 1136.00" fill="none" stroke="#1A1A2E" stroke-width="1.50" marker-end="url(#line-end-hollow-triangle)"/>
  <path d="M 154.00 864.50 L 288.28 864.50 A 4.00 4.00 0 0 0 292.28 860.50 L 292.28 798.00 A 4.00 4.00 0 0 1 296.28 794.00 L 631.72 794.00 A 4.00 4.00 0 0 0 635.72 790.00 L 635.72 767.50 A 4.00 4.00 0 0 1 639.72 763.50 L 789.72 763.50" fill="none" stroke="#1A1A2E" stroke-width="1.50" marker-end="url(#line-end-filled-diamond)"/>
  <path d="M 566.20 1010.00 L 647.72 1010.00 A 4.00 4.00 0 0 0 651.72 1006.00 L 651.72 845.50 A 4.00 4.00 0 0 1 655.72 841.50 L 789.72 841.50" fill="none" stroke="#1A1A2E" stroke-width="1.50" marker-end="url(#line-end-filled-diamond)"/>
  <path d="M 618.28 355.50 L 663.72 355.50 A 4.00 4.00 0 0 1 667.72 359.50 L 667.72 603.50 A 4.00 4.00 0 0 0 671.72 607.50 L 789.72 607.50" fill="none" stroke="#1A1A2E" stroke-width="1.50" marker-end="url(#line-end-filled-diamond)"/>
  <path d="M 625.72 834.00 L 631.72 834.00 A 4.00 4.00 0 0 0 635.72 830.00 L 635.72 806.50 A 4.00 4.00 0 0 1 639.72 802.50 L 789.72 802.50" fill="none" stroke="#1A1A2E" stroke-width="1.50" marker-end="url(#line-end-filled-diamond)"/>
  <path d="M 154.00 784.50 L 288.28 784.50 A 4.00 4.00 0 0 0 292.28 780.50 L 292.28 718.00 A 4.00 4.00 0 0 1 296.28 714.00 L 631.72 714.00 A 4.00 4.00 0 0 1 635.72 718.00 L 635.72 720.50 A 4.00 4.00 0 0 0 639.72 724.50 L 789.72 724.50" fill="none" stroke="#1A1A2E" stroke-width="1.50" marker-end="url(#line-end-filled-diamond)"/>
  <path d="M 558.76 444.50 L 647.72 444.50 A 4.00 4.00 0 0 1 651.72 448.50 L 651.72 642.50 A 4.00 4.00 0 0 0 655.72 646.50 L 789.72 646.50" fill="none" stroke="#1A1A2E" stroke-width="1.50" marker-end="url(#line-end-filled-diamond)"/>
  <path d="M 558.76 572.50 L 631.72 572.50 A 4.00 4.00 0 0 1 635.72 576.50 L 635.72 681.50 A 4.00 4.00 0 0 0 639.72 685.50 L 789.72 685.50" fill="none" stroke="#1A1A2E" stroke-width="1.50" marker-end="url(#line-end-filled-diamond)"/>
  <path d="M 1023.48 724.50 L 1029.48 724.50 A 4.00 4.00 0 0 1 1033.48 728.50 L 1033.48 818.00 A 4.00 4.00 0 0 0 1037.48 822.00 L 1093.48 822.00" fill="none" stroke="#1A1A2E" stroke-width="1.50" marker-end="url(#line-end-open-chevron)" stroke-dasharray="6 3"/>
</svg>
