<svg xmlns="http://www.w3.org/2000/svg" width="1116.08" height="1254.00" viewBox="0 0 1116.08 1254.00">
  <defs>
    <marker id="arrowhead-open" markerWidth="10" markerHeight="7" refX="9" refY="3.5" orient="auto">
      <polygon points="0 0, 10 3.5, 0 7" fill="none" stroke="#1A1A2E" stroke-width="1.50"/>
    </marker>
    <marker id="arrowhead-filled" markerWidth="10" markerHeight="7" refX="9" refY="3.5" orient="auto">
      <polygon points="0 0, 10 3.5, 0 7" fill="#1A1A2E" stroke="#1A1A2E" stroke-width="1.50"/>
    </marker>
    <marker id="arrowhead-open-crossbar" markerWidth="10" markerHeight="7" refX="9" refY="3.5" orient="auto">
      <polygon points="0 0, 10 3.5, 0 7" fill="none" stroke="#1A1A2E" stroke-width="1.50"/>
      <line x1="7" y1="0" x2="7" y2="7" stroke="#1A1A2E" stroke-width="1.50"/>
    </marker>
    <marker id="arrowhead-diamond" markerWidth="14" markerHeight="8" refX="13" refY="4" orient="auto">
      <polygon points="1 4, 7 0, 13 4, 7 8" fill="none" stroke="#1A1A2E" stroke-width="1.50"/>
    </marker>
    <marker id="arrowhead-filled-diamond" markerWidth="14" markerHeight="8" refX="13" refY="4" orient="auto">
      <polygon points="1 4, 7 0, 13 4, 7 8" fill="#1A1A2E" stroke="#1A1A2E" stroke-width="1.50"/>
    </marker>
    <marker id="arrowhead-circle" markerWidth="10" markerHeight="10" refX="9" refY="5" orient="auto">
      <circle cx="5" cy="5" r="4" fill="none" stroke="#1A1A2E" stroke-width="1.50"/>
    </marker>
    <marker id="arrowhead-bar" markerWidth="4" markerHeight="12" refX="2" refY="6" orient="auto">
      <line x1="2" y1="0" x2="2" y2="12" stroke="#1A1A2E" stroke-width="1.50"/>
    </marker>
    <filter id="label-bg" x="-0.05" y="-0.05" width="1.1" height="1.1">
      <feFlood flood-color="#FFFFFF"/>
      <feComposite in="SourceGraphic" operator="over"/>
    </filter>
  </defs>
  <path d="M 12.00 36.00 L 12.00 12.00 L 123.00 12.00 L 123.00 36.00 L 1104.08 36.00 L 1104.08 1242.00 L 12.00 1242.00 Z" fill="#FFFFFF" stroke="#1A1A2E" stroke-width="1.50"/>
  <text x="558.04" y="24.00" font-family="Noto Sans, sans-serif" font-size="12.00" font-style="italic" fill="#1A1A2E" text-anchor="middle" dominant-baseline="middle">«package»</text>
  <text x="558.04" y="43.00" font-family="Noto Sans, sans-serif" font-size="14.00" font-weight="bold" fill="#1A1A2E" text-anchor="middle" dominant-baseline="middle">QuadcopterDrone</text>
  <rect x="24.00" y="68.00" width="130.00" height="50.00" fill="#EEF4FF" stroke="#1A1A2E" stroke-width="1.50"/>
  <text x="89.00" y="80.00" font-family="Noto Sans, sans-serif" font-size="12.00" font-style="italic" fill="#1A1A2E" text-anchor="middle" dominant-baseline="middle">«interface def»</text>
  <text x="89.00" y="99.00" font-family="Noto Sans, sans-serif" font-size="14.00" font-weight="bold" fill="#1A1A2E" text-anchor="middle" dominant-baseline="middle">PowerBus</text>
  <rect x="184.00" y="68.00" width="130.00" height="50.00" fill="#EEF4FF" stroke="#1A1A2E" stroke-width="1.50"/>
  <text x="249.00" y="80.00" font-family="Noto Sans, sans-serif" font-size="12.00" font-style="italic" fill="#1A1A2E" text-anchor="middle" dominant-baseline="middle">«interface def»</text>
  <text x="249.00" y="99.00" font-family="Noto Sans, sans-serif" font-size="14.00" font-weight="bold" fill="#1A1A2E" text-anchor="middle" dominant-baseline="middle">DataBus</text>
  <rect x="24.00" y="564.00" width="130.00" height="50.00" fill="#EEF4FF" stroke="#1A1A2E" stroke-width="1.50"/>
  <text x="89.00" y="576.00" font-family="Noto Sans, sans-serif" font-size="12.00" font-style="italic" fill="#1A1A2E" text-anchor="middle" dominant-baseline="middle">«port def»</text>
  <text x="89.00" y="595.00" font-family="Noto Sans, sans-serif" font-size="14.00" font-weight="bold" fill="#1A1A2E" text-anchor="middle" dominant-baseline="middle">PowerPort</text>
  <rect x="24.00" y="446.50" width="130.00" height="50.00" fill="#EEF4FF" stroke="#1A1A2E" stroke-width="1.50"/>
  <text x="89.00" y="458.50" font-family="Noto Sans, sans-serif" font-size="12.00" font-style="italic" fill="#1A1A2E" text-anchor="middle" dominant-baseline="middle">«port def»</text>
  <text x="89.00" y="477.50" font-family="Noto Sans, sans-serif" font-size="14.00" font-weight="bold" fill="#1A1A2E" text-anchor="middle" dominant-baseline="middle">TelemetryPort</text>
  <rect x="24.00" y="722.50" width="150.88" height="50.00" fill="#EEF4FF" stroke="#1A1A2E" stroke-width="1.50"/>
  <text x="99.44" y="734.50" font-family="Noto Sans, sans-serif" font-size="12.00" font-style="italic" fill="#1A1A2E" text-anchor="middle" dominant-baseline="middle">«port def»</text>
  <text x="99.44" y="753.50" font-family="Noto Sans, sans-serif" font-size="14.00" font-weight="bold" fill="#1A1A2E" text-anchor="middle" dominant-baseline="middle">MotorControlPort</text>
  <rect x="24.00" y="300.00" width="130.00" height="50.00" fill="#EEF4FF" stroke="#1A1A2E" stroke-width="1.50"/>
  <text x="89.00" y="312.00" font-family="Noto Sans, sans-serif" font-size="12.00" font-style="italic" fill="#1A1A2E" text-anchor="middle" dominant-baseline="middle">«port def»</text>
  <text x="89.00" y="331.00" font-family="Noto Sans, sans-serif" font-size="14.00" font-weight="bold" fill="#1A1A2E" text-anchor="middle" dominant-baseline="middle">SensorPort</text>
  <rect x="962.08" y="148.00" width="130.00" height="50.00" fill="#EEF4FF" stroke="#1A1A2E" stroke-width="1.50"/>
  <text x="1027.08" y="160.00" font-family="Noto Sans, sans-serif" font-size="12.00" font-style="italic" fill="#1A1A2E" text-anchor="middle" dominant-baseline="middle">«attribute def»</text>
  <text x="1027.08" y="179.00" font-family="Noto Sans, sans-serif" font-size="14.00" font-weight="bold" fill="#1A1A2E" text-anchor="middle" dominant-baseline="middle">Mass</text>
  <rect x="24.00" y="1180.00" width="130.00" height="50.00" fill="#EEF4FF" stroke="#1A1A2E" stroke-width="1.50"/>
  <text x="89.00" y="1192.00" font-family="Noto Sans, sans-serif" font-size="12.00" font-style="italic" fill="#1A1A2E" text-anchor="middle" dominant-baseline="middle">«attribute def»</text>
  <text x="89.00" y="1211.00" font-family="Noto Sans, sans-serif" font-size="14.00" font-weight="bold" fill="#1A1A2E" text-anchor="middle" dominant-baseline="middle">Voltage</text>
  <rect x="184.00" y="1180.00" width="130.00" height="50.00" fill="#EEF4FF" stroke="#1A1A2E" stroke-width="1.50"/>
  <text x="249.00" y="1192.00" font-family="Noto Sans, sans-serif" font-size="12.00" font-style="italic" fill="#1A1A2E" text-anchor="middle" dominant-baseline="middle">«enum def»</text>
  <text x="249.00" y="1211.00" font-family="Noto Sans, sans-serif" font-size="14.00" font-weight="bold" fill="#1A1A2E" text-anchor="middle" dominant-baseline="middle">FlightMode</text>
  <rect x="370.88" y="634.00" width="151.92" height="146.00" fill="#EEF4FF" stroke="#1A1A2E" stroke-width="1.50"/>
  <text x="446.84" y="646.00" font-family="Noto Sans, sans-serif" font-size="12.00" font-style="italic" fill="#1A1A2E" text-anchor="middle" dominant-baseline="middle">«part def»</text>
  <text x="446.84" y="665.00" font-family="Noto Sans, sans-serif" font-size="14.00" font-weight="bold" fill="#1A1A2E" text-anchor="middle" dominant-baseline="middle">Battery</text>
  <line x1="370.88" y1="678.00" x2="522.80" y2="678.00" stroke="#1A1A2E" stroke-width="1.50"/>
  <text x="376.88" y="690.00" font-family="Noto Sans, sans-serif" font-size="12.00" font-weight="bold" font-style="italic" fill="#1A1A2E" text-anchor="start" dominant-baseline="middle">attributes</text>
  <text x="376.88" y="714.00" font-family="Noto Sans, sans-serif" font-size="12.00" fill="#1A1A2E" text-anchor="start" dominant-baseline="middle">capacity : Voltage</text>
  <line x1="370.88" y1="726.00" x2="522.80" y2="726.00" stroke="#1A1A2E" stroke-width="1.50"/>
  <text x="376.88" y="738.00" font-family="Noto Sans, sans-serif" font-size="12.00" font-weight="bold" font-style="italic" fill="#1A1A2E" text-anchor="start" dominant-baseline="middle">ports</text>
  <text x="376.88" y="762.00" font-family="Noto Sans, sans-serif" font-size="12.00" fill="#1A1A2E" text-anchor="start" dominant-baseline="middle">output : PowerPort</text>
  <rect x="370.88" y="404.00" width="204.00" height="200.00" fill="#EEF4FF" stroke="#1A1A2E" stroke-width="1.50"/>
  <text x="472.88" y="416.00" font-family="Noto Sans, sans-serif" font-size="12.00" font-style="italic" fill="#1A1A2E" text-anchor="middle" dominant-baseline="middle">«part def»</text>
  <text x="472.88" y="435.00" font-family="Noto Sans, sans-serif" font-size="14.00" font-weight="bold" fill="#1A1A2E" text-anchor="middle" dominant-baseline="middle">FlightController</text>
  <line x1="370.88" y1="448.00" x2="574.88" y2="448.00" stroke="#1A1A2E" stroke-width="1.50"/>
  <text x="376.88" y="460.00" font-family="Noto Sans, sans-serif" font-size="12.00" font-weight="bold" font-style="italic" fill="#1A1A2E" text-anchor="start" dominant-baseline="middle">attributes</text>
  <text x="376.88" y="484.00" font-family="Noto Sans, sans-serif" font-size="12.00" fill="#1A1A2E" text-anchor="start" dominant-baseline="middle">mode : FlightMode</text>
  <line x1="370.88" y1="496.00" x2="574.88" y2="496.00" stroke="#1A1A2E" stroke-width="1.50"/>
  <text x="376.88" y="508.00" font-family="Noto Sans, sans-serif" font-size="12.00" font-weight="bold" font-style="italic" fill="#1A1A2E" text-anchor="start" dominant-baseline="middle">ports</text>
  <text x="376.88" y="532.00" font-family="Noto Sans, sans-serif" font-size="12.00" fill="#1A1A2E" text-anchor="start" dominant-baseline="middle">power : PowerPort</text>
  <text x="376.88" y="550.00" font-family="Noto Sans, sans-serif" font-size="12.00" fill="#1A1A2E" text-anchor="start" dominant-baseline="middle">telemetry : TelemetryPort</text>
  <text x="376.88" y="568.00" font-family="Noto Sans, sans-serif" font-size="12.00" fill="#1A1A2E" text-anchor="start" dominant-baseline="middle">motors : MotorControlPort</text>
  <text x="376.88" y="586.00" font-family="Noto Sans, sans-serif" font-size="12.00" fill="#1A1A2E" text-anchor="start" dominant-baseline="middle">sensors : SensorPort</text>
  <rect x="370.88" y="810.00" width="211.44" height="146.00" fill="#EEF4FF" stroke="#1A1A2E" stroke-width="1.50"/>
  <text x="476.60" y="822.00" font-family="Noto Sans, sans-serif" font-size="12.00" font-style="italic" fill="#1A1A2E" text-anchor="middle" dominant-baseline="middle">«part def»</text>
  <text x="476.60" y="841.00" font-family="Noto Sans, sans-serif" font-size="14.00" font-weight="bold" fill="#1A1A2E" text-anchor="middle" dominant-baseline="middle">Motor</text>
  <line x1="370.88" y1="854.00" x2="582.32" y2="854.00" stroke="#1A1A2E" stroke-width="1.50"/>
  <text x="376.88" y="866.00" font-family="Noto Sans, sans-serif" font-size="12.00" font-weight="bold" font-style="italic" fill="#1A1A2E" text-anchor="start" dominant-baseline="middle">attributes</text>
  <text x="376.88" y="890.00" font-family="Noto Sans, sans-serif" font-size="12.00" fill="#1A1A2E" text-anchor="start" dominant-baseline="middle">maxThrust : Mass</text>
  <line x1="370.88" y1="902.00" x2="582.32" y2="902.00" stroke="#1A1A2E" stroke-width="1.50"/>
  <text x="376.88" y="914.00" font-family="Noto Sans, sans-serif" font-size="12.00" font-weight="bold" font-style="italic" fill="#1A1A2E" text-anchor="start" dominant-baseline="middle">ports</text>
  <text x="376.88" y="938.00" font-family="Noto Sans, sans-serif" font-size="12.00" fill="#1A1A2E" text-anchor="start" dominant-baseline="middle">control : MotorControlPort</text>
  <rect x="24.00" y="1010.50" width="130.00" height="50.00" fill="#EEF4FF" stroke="#1A1A2E" stroke-width="1.50"/>
  <text x="89.00" y="1022.50" font-family="Noto Sans, sans-serif" font-size="12.00" font-style="italic" fill="#1A1A2E" text-anchor="middle" dominant-baseline="middle">«part def»</text>
  <text x="89.00" y="1041.50" font-family="Noto Sans, sans-serif" font-size="14.00" font-weight="bold" fill="#1A1A2E" text-anchor="middle" dominant-baseline="middle">Propeller</text>
  <rect x="370.88" y="148.00" width="144.48" height="98.00" fill="#EEF4FF" stroke="#1A1A2E" stroke-width="1.50"/>
  <text x="443.12" y="160.00" font-family="Noto Sans, sans-serif" font-size="12.00" font-style="italic" fill="#1A1A2E" text-anchor="middle" dominant-baseline="middle">«part def»</text>
  <text x="443.12" y="179.00" font-family="Noto Sans, sans-serif" font-size="14.00" font-weight="bold" fill="#1A1A2E" text-anchor="middle" dominant-baseline="middle">ImuSensor</text>
  <line x1="370.88" y1="192.00" x2="515.36" y2="192.00" stroke="#1A1A2E" stroke-width="1.50"/>
  <text x="376.88" y="204.00" font-family="Noto Sans, sans-serif" font-size="12.00" font-weight="bold" font-style="italic" fill="#1A1A2E" text-anchor="start" dominant-baseline="middle">ports</text>
  <text x="376.88" y="228.00" font-family="Noto Sans, sans-serif" font-size="12.00" fill="#1A1A2E" text-anchor="start" dominant-baseline="middle">data : SensorPort</text>
  <rect x="370.88" y="276.00" width="144.48" height="98.00" fill="#EEF4FF" stroke="#1A1A2E" stroke-width="1.50"/>
  <text x="443.12" y="288.00" font-family="Noto Sans, sans-serif" font-size="12.00" font-style="italic" fill="#1A1A2E" text-anchor="middle" dominant-baseline="middle">«part def»</text>
  <text x="443.12" y="307.00" font-family="Noto Sans, sans-serif" font-size="14.00" font-weight="bold" fill="#1A1A2E" text-anchor="middle" dominant-baseline="middle">GpsSensor</text>
  <line x1="370.88" y1="320.00" x2="515.36" y2="320.00" stroke="#1A1A2E" stroke-width="1.50"/>
  <text x="376.88" y="332.00" font-family="Noto Sans, sans-serif" font-size="12.00" font-weight="bold" font-style="italic" fill="#1A1A2E" text-anchor="start" dominant-baseline="middle">ports</text>
  <text x="376.88" y="356.00" font-family="Noto Sans, sans-serif" font-size="12.00" fill="#1A1A2E" text-anchor="start" dominant-baseline="middle">data : SensorPort</text>
  <rect x="24.00" y="1100.00" width="130.00" height="50.00" fill="#EEF4FF" stroke="#1A1A2E" stroke-width="1.50"/>
  <text x="89.00" y="1112.00" font-family="Noto Sans, sans-serif" font-size="12.00" font-style="italic" fill="#1A1A2E" text-anchor="middle" dominant-baseline="middle">«part def»</text>
  <text x="89.00" y="1131.00" font-family="Noto Sans, sans-serif" font-size="14.00" font-weight="bold" fill="#1A1A2E" text-anchor="middle" dominant-baseline="middle">Frame</text>
  <rect x="24.00" y="930.50" width="130.00" height="50.00" fill="#EEF4FF" stroke="#1A1A2E" stroke-width="1.50"/>
  <text x="89.00" y="942.50" font-family="Noto Sans, sans-serif" font-size="12.00" font-style="italic" fill="#1A1A2E" text-anchor="middle" dominant-baseline="middle">«part def»</text>
  <text x="89.00" y="961.50" font-family="Noto Sans, sans-serif" font-size="14.00" font-weight="bold" fill="#1A1A2E" text-anchor="middle" dominant-baseline="middle">RacingMotor</text>
  <rect x="24.00" y="802.50" width="150.88" height="50.00" fill="#EEF4FF" stroke="#1A1A2E" stroke-width="1.50"/>
  <text x="99.44" y="814.50" font-family="Noto Sans, sans-serif" font-size="12.00" font-style="italic" fill="#1A1A2E" text-anchor="middle" dominant-baseline="middle">«part def»</text>
  <text x="99.44" y="833.50" font-family="Noto Sans, sans-serif" font-size="14.00" font-weight="bold" fill="#1A1A2E" text-anchor="middle" dominant-baseline="middle">EnduranceBattery</text>
  <rect x="698.32" y="580.00" width="233.76" height="254.00" fill="#EEF4FF" stroke="#1A1A2E" stroke-width="1.50"/>
  <text x="815.20" y="592.00" font-family="Noto Sans, sans-serif" font-size="12.00" font-style="italic" fill="#1A1A2E" text-anchor="middle" dominant-baseline="middle">«part def»</text>
  <text x="815.20" y="611.00" font-family="Noto Sans, sans-serif" font-size="14.00" font-weight="bold" fill="#1A1A2E" text-anchor="middle" dominant-baseline="middle">Drone</text>
  <line x1="698.32" y1="624.00" x2="932.08" y2="624.00" stroke="#1A1A2E" stroke-width="1.50"/>
  <text x="704.32" y="636.00" font-family="Noto Sans, sans-serif" font-size="12.00" font-weight="bold" font-style="italic" fill="#1A1A2E" text-anchor="start" dominant-baseline="middle">attributes</text>
  <text x="704.32" y="660.00" font-family="Noto Sans, sans-serif" font-size="12.00" fill="#1A1A2E" text-anchor="start" dominant-baseline="middle">totalMass : Mass</text>
  <line x1="698.32" y1="672.00" x2="932.08" y2="672.00" stroke="#1A1A2E" stroke-width="1.50"/>
  <text x="704.32" y="684.00" font-family="Noto Sans, sans-serif" font-size="12.00" font-weight="bold" font-style="italic" fill="#1A1A2E" text-anchor="start" dominant-baseline="middle">parts</text>
  <text x="704.32" y="708.00" font-family="Noto Sans, sans-serif" font-size="12.00" fill="#1A1A2E" text-anchor="start" dominant-baseline="middle">airframe : Frame</text>
  <text x="704.32" y="726.00" font-family="Noto Sans, sans-serif" font-size="12.00" fill="#1A1A2E" text-anchor="start" dominant-baseline="middle">battery : Battery</text>
  <text x="704.32" y="744.00" font-family="Noto Sans, sans-serif" font-size="12.00" fill="#1A1A2E" text-anchor="start" dominant-baseline="middle">controller : FlightController</text>
  <text x="704.32" y="762.00" font-family="Noto Sans, sans-serif" font-size="12.00" fill="#1A1A2E" text-anchor="start" dominant-baseline="middle">motors : Motor [4]</text>
  <text x="704.32" y="780.00" font-family="Noto Sans, sans-serif" font-size="12.00" fill="#1A1A2E" text-anchor="start" dominant-baseline="middle">propellers : Propeller [4]</text>
  <text x="704.32" y="798.00" font-family="Noto Sans, sans-serif" font-size="12.00" fill="#1A1A2E" text-anchor="start" dominant-baseline="middle">imu : ImuSensor</text>
  <text x="704.32" y="816.00" font-family="Noto Sans, sans-serif" font-size="12.00" fill="#1A1A2E" text-anchor="start" dominant-baseline="middle">gps : GpsSensor</text>
  <rect x="344.00" y="1180.00" width="194.28" height="50.00" fill="#EEF4FF" stroke="#1A1A2E" stroke-width="1.50"/>
  <text x="441.14" y="1192.00" font-family="Noto Sans, sans-serif" font-size="12.00" font-style="italic" fill="#1A1A2E" text-anchor="middle" dominant-baseline="middle">«requirement def»</text>
  <text x="441.14" y="1211.00" font-family="Noto Sans, sans-serif" font-size="14.00" font-weight="bold" fill="#1A1A2E" text-anchor="middle" dominant-baseline="middle">FlightTimeRequirement</text>
  <path d="M 154.00 604.00 L 180.88 604.00 A 4.00 4.00 0 0 1 184.88 608.00 L 184.88 640.00 A 4.00 4.00 0 0 0 188.88 644.00 L 370.88 644.00" fill="none" stroke="#1A1A2E" stroke-width="1.50" marker-end="url(#arrowhead-filled-diamond)"/>
  <path d="M 154.00 574.00 L 180.88 574.00 A 4.00 4.00 0 0 0 184.88 570.00 L 184.88 538.00 A 4.00 4.00 0 0 1 188.88 534.00 L 370.88 534.00" fill="none" stroke="#1A1A2E" stroke-width="1.50" marker-end="url(#arrowhead-filled-diamond)"/>
  <path d="M 154.00 471.50 L 183.63 471.50 A 1.25 1.25 0 0 1 184.88 472.75 L 184.88 472.75 A 1.25 1.25 0 0 0 186.13 474.00 L 370.88 474.00" fill="none" stroke="#1A1A2E" stroke-width="1.50" marker-end="url(#arrowhead-filled-diamond)"/>
  <path d="M 174.88 732.50 L 196.88 732.50 A 4.00 4.00 0 0 0 200.88 728.50 L 200.88 598.00 A 4.00 4.00 0 0 1 204.88 594.00 L 370.88 594.00" fill="none" stroke="#1A1A2E" stroke-width="1.50" marker-end="url(#arrowhead-filled-diamond)"/>
  <path d="M 154.00 340.00 L 180.88 340.00 A 4.00 4.00 0 0 1 184.88 344.00 L 184.88 410.00 A 4.00 4.00 0 0 0 188.88 414.00 L 370.88 414.00" fill="none" stroke="#1A1A2E" stroke-width="1.50" marker-end="url(#arrowhead-filled-diamond)"/>
  <path d="M 174.88 762.50 L 180.88 762.50 A 4.00 4.00 0 0 1 184.88 766.50 L 184.88 816.00 A 4.00 4.00 0 0 0 188.88 820.00 L 370.88 820.00" fill="none" stroke="#1A1A2E" stroke-width="1.50" marker-end="url(#arrowhead-filled-diamond)"/>
  <path d="M 154.00 310.00 L 180.88 310.00 A 4.00 4.00 0 0 0 184.88 306.00 L 184.88 201.00 A 4.00 4.00 0 0 1 188.88 197.00 L 370.88 197.00" fill="none" stroke="#1A1A2E" stroke-width="1.50" marker-end="url(#arrowhead-filled-diamond)"/>
  <path d="M 154.00 325.00 L 370.88 325.00" fill="none" stroke="#1A1A2E" stroke-width="1.50" marker-end="url(#arrowhead-filled-diamond)"/>
  <path d="M 154.00 955.50 L 180.88 955.50 A 4.00 4.00 0 0 0 184.88 951.50 L 184.88 950.00 A 4.00 4.00 0 0 1 188.88 946.00 L 370.88 946.00" fill="none" stroke="#1A1A2E" stroke-width="1.50" marker-end="url(#arrowhead-open)"/>
  <path d="M 174.88 827.50 L 196.88 827.50 A 4.00 4.00 0 0 0 200.88 823.50 L 200.88 774.00 A 4.00 4.00 0 0 1 204.88 770.00 L 370.88 770.00" fill="none" stroke="#1A1A2E" stroke-width="1.50" marker-end="url(#arrowhead-open)"/>
  <path d="M 154.00 1125.00 L 620.32 1125.00 A 4.00 4.00 0 0 0 624.32 1121.00 L 624.32 828.00 A 4.00 4.00 0 0 1 628.32 824.00 L 698.32 824.00" fill="none" stroke="#1A1A2E" stroke-width="1.50" marker-end="url(#arrowhead-filled-diamond)"/>
  <path d="M 522.80 707.00 L 698.32 707.00" fill="none" stroke="#1A1A2E" stroke-width="1.50" marker-end="url(#arrowhead-filled-diamond)"/>
  <path d="M 574.88 504.00 L 588.32 504.00 A 4.00 4.00 0 0 1 592.32 508.00 L 592.32 664.00 A 4.00 4.00 0 0 0 596.32 668.00 L 698.32 668.00" fill="none" stroke="#1A1A2E" stroke-width="1.50" marker-end="url(#arrowhead-filled-diamond)"/>
  <path d="M 582.32 883.00 L 588.32 883.00 A 4.00 4.00 0 0 0 592.32 879.00 L 592.32 750.00 A 4.00 4.00 0 0 1 596.32 746.00 L 698.32 746.00" fill="none" stroke="#1A1A2E" stroke-width="1.50" marker-end="url(#arrowhead-filled-diamond)"/>
  <path d="M 154.00 1035.50 L 604.32 1035.50 A 4.00 4.00 0 0 0 608.32 1031.50 L 608.32 789.00 A 4.00 4.00 0 0 1 612.32 785.00 L 698.32 785.00" fill="none" stroke="#1A1A2E" stroke-width="1.50" marker-end="url(#arrowhead-filled-diamond)"/>
  <path d="M 515.36 197.00 L 620.32 197.00 A 4.00 4.00 0 0 1 624.32 201.00 L 624.32 586.00 A 4.00 4.00 0 0 0 628.32 590.00 L 698.32 590.00" fill="none" stroke="#1A1A2E" stroke-width="1.50" marker-end="url(#arrowhead-filled-diamond)"/>
  <path d="M 515.36 325.00 L 604.32 325.00 A 4.00 4.00 0 0 1 608.32 329.00 L 608.32 625.00 A 4.00 4.00 0 0 0 612.32 629.00 L 698.32 629.00" fill="none" stroke="#1A1A2E" stroke-width="1.50" marker-end="url(#arrowhead-filled-diamond)"/>
</svg>
