<svg xmlns="http://www.w3.org/2000/svg" width="750.40" height="992.00" viewBox="0 0 750.40 992.00">
  <defs>
    <marker id="arrowhead-open" markerWidth="10" markerHeight="7" refX="9" refY="3.5" orient="auto">
      <polygon points="0 0, 10 3.5, 0 7" fill="none" stroke="#1A1A2E" stroke-width="1.50"/>
    </marker>
    <marker id="arrowhead-filled" markerWidth="10" markerHeight="7" refX="9" refY="3.5" orient="auto">
      <polygon points="0 0, 10 3.5, 0 7" fill="#1A1A2E" stroke="#1A1A2E" stroke-width="1.50"/>
    </marker>
    <marker id="arrowhead-open-crossbar" markerWidth="10" markerHeight="7" refX="9" refY="3.5" orient="auto">
      <polygon points="0 0, 10 3.5, 0 7" fill="none" stroke="#1A1A2E" stroke-width="1.50"/>
      <line x1="7" y1="0" x2="7" y2="7" stroke="#1A1A2E" stroke-width="1.50"/>
    </marker>
    <marker id="arrowhead-diamond" markerWidth="14" markerHeight="8" refX="13" refY="4" orient="auto">
      <polygon points="1 4, 7 0, 13 4, 7 8" fill="none" stroke="#1A1A2E" stroke-width="1.50"/>
    </marker>
    <marker id="arrowhead-filled-diamond" markerWidth="14" markerHeight="8" refX="13" refY="4" orient="auto">
      <polygon points="1 4, 7 0, 13 4, 7 8" fill="#1A1A2E" stroke="#1A1A2E" stroke-width="1.50"/>
    </marker>
    <marker id="arrowhead-circle" markerWidth="10" markerHeight="10" refX="9" refY="5" orient="auto">
      <circle cx="5" cy="5" r="4" fill="none" stroke="#1A1A2E" stroke-width="1.50"/>
    </marker>
    <marker id="arrowhead-bar" markerWidth="4" markerHeight="12" refX="2" refY="6" orient="auto">
      <line x1="2" y1="0" x2="2" y2="12" stroke="#1A1A2E" stroke-width="1.50"/>
    </marker>
    <filter id="label-bg" x="-0.05" y="-0.05" width="1.1" height="1.1">
      <feFlood flood-color="#FFFFFF"/>
      <feComposite in="SourceGraphic" operator="over"/>
    </filter>
  </defs>
  <path d="M 12.00 36.00 L 12.00 12.00 L 123.00 12.00 L 123.00 36.00 L 738.40 36.00 L 738.40 980.00 L 12.00 980.00 Z" fill="#FFFFFF" stroke="#1A1A2E" stroke-width="1.50"/>
  <text x="375.20" y="24.00" font-family="Noto Sans, sans-serif" font-size="12.00" font-style="italic" fill="#1A1A2E" text-anchor="middle" dominant-baseline="middle">«package»</text>
  <text x="375.20" y="43.00" font-family="Noto Sans, sans-serif" font-size="14.00" font-weight="bold" fill="#1A1A2E" text-anchor="middle" dominant-baseline="middle">QuadcopterDrone</text>
  <rect x="24.00" y="68.00" width="130.00" height="50.00" fill="#EEF4FF" stroke="#1A1A2E" stroke-width="1.50"/>
  <text x="89.00" y="80.00" font-family="Noto Sans, sans-serif" font-size="12.00" font-style="italic" fill="#1A1A2E" text-anchor="middle" dominant-baseline="middle">«interface def»</text>
  <text x="89.00" y="99.00" font-family="Noto Sans, sans-serif" font-size="14.00" font-weight="bold" fill="#1A1A2E" text-anchor="middle" dominant-baseline="middle">PowerBus</text>
  <rect x="178.00" y="68.00" width="130.00" height="50.00" fill="#EEF4FF" stroke="#1A1A2E" stroke-width="1.50"/>
  <text x="243.00" y="80.00" font-family="Noto Sans, sans-serif" font-size="12.00" font-style="italic" fill="#1A1A2E" text-anchor="middle" dominant-baseline="middle">«interface def»</text>
  <text x="243.00" y="99.00" font-family="Noto Sans, sans-serif" font-size="14.00" font-weight="bold" fill="#1A1A2E" text-anchor="middle" dominant-baseline="middle">DataBus</text>
  <rect x="332.00" y="68.00" width="130.00" height="50.00" fill="#EEF4FF" stroke="#1A1A2E" stroke-width="1.50"/>
  <text x="397.00" y="80.00" font-family="Noto Sans, sans-serif" font-size="12.00" font-style="italic" fill="#1A1A2E" text-anchor="middle" dominant-baseline="middle">«port def»</text>
  <text x="397.00" y="99.00" font-family="Noto Sans, sans-serif" font-size="14.00" font-weight="bold" fill="#1A1A2E" text-anchor="middle" dominant-baseline="middle">PowerPort</text>
  <rect x="486.00" y="68.00" width="130.00" height="50.00" fill="#EEF4FF" stroke="#1A1A2E" stroke-width="1.50"/>
  <text x="551.00" y="80.00" font-family="Noto Sans, sans-serif" font-size="12.00" font-style="italic" fill="#1A1A2E" text-anchor="middle" dominant-baseline="middle">«port def»</text>
  <text x="551.00" y="99.00" font-family="Noto Sans, sans-serif" font-size="14.00" font-weight="bold" fill="#1A1A2E" text-anchor="middle" dominant-baseline="middle">TelemetryPort</text>
  <rect x="24.00" y="148.00" width="150.88" height="50.00" fill="#EEF4FF" stroke="#1A1A2E" stroke-width="1.50"/>
  <text x="99.44" y="160.00" font-family="Noto Sans, sans-serif" font-size="12.00" font-style="italic" fill="#1A1A2E" text-anchor="middle" dominant-baseline="middle">«port def»</text>
  <text x="99.44" y="179.00" font-family="Noto Sans, sans-serif" font-size="14.00" font-weight="bold" fill="#1A1A2E" text-anchor="middle" dominant-baseline="middle">MotorControlPort</text>
  <rect x="198.88" y="148.00" width="130.00" height="50.00" fill="#EEF4FF" stroke="#1A1A2E" stroke-width="1.50"/>
  <text x="263.88" y="160.00" font-family="Noto Sans, sans-serif" font-size="12.00" font-style="italic" fill="#1A1A2E" text-anchor="middle" dominant-baseline="middle">«port def»</text>
  <text x="263.88" y="179.00" font-family="Noto Sans, sans-serif" font-size="14.00" font-weight="bold" fill="#1A1A2E" text-anchor="middle" dominant-baseline="middle">SensorPort</text>
  <rect x="352.88" y="148.00" width="130.00" height="50.00" fill="#EEF4FF" stroke="#1A1A2E" stroke-width="1.50"/>
  <text x="417.88" y="160.00" font-family="Noto Sans, sans-serif" font-size="12.00" font-style="italic" fill="#1A1A2E" text-anchor="middle" dominant-baseline="middle">«attribute def»</text>
  <text x="417.88" y="179.00" font-family="Noto Sans, sans-serif" font-size="14.00" font-weight="bold" fill="#1A1A2E" text-anchor="middle" dominant-baseline="middle">Mass</text>
  <rect x="506.88" y="148.00" width="130.00" height="50.00" fill="#EEF4FF" stroke="#1A1A2E" stroke-width="1.50"/>
  <text x="571.88" y="160.00" font-family="Noto Sans, sans-serif" font-size="12.00" font-style="italic" fill="#1A1A2E" text-anchor="middle" dominant-baseline="middle">«attribute def»</text>
  <text x="571.88" y="179.00" font-family="Noto Sans, sans-serif" font-size="14.00" font-weight="bold" fill="#1A1A2E" text-anchor="middle" dominant-baseline="middle">Voltage</text>
  <rect x="24.00" y="228.00" width="130.00" height="50.00" fill="#EEF4FF" stroke="#1A1A2E" stroke-width="1.50"/>
  <text x="89.00" y="240.00" font-family="Noto Sans, sans-serif" font-size="12.00" font-style="italic" fill="#1A1A2E" text-anchor="middle" dominant-baseline="middle">«enum def»</text>
  <text x="89.00" y="259.00" font-family="Noto Sans, sans-serif" font-size="14.00" font-weight="bold" fill="#1A1A2E" text-anchor="middle" dominant-baseline="middle">FlightMode</text>
  <rect x="178.00" y="228.00" width="151.92" height="146.00" fill="#EEF4FF" stroke="#1A1A2E" stroke-width="1.50"/>
  <text x="253.96" y="240.00" font-family="Noto Sans, sans-serif" font-size="12.00" font-style="italic" fill="#1A1A2E" text-anchor="middle" dominant-baseline="middle">«part def»</text>
  <text x="253.96" y="259.00" font-family="Noto Sans, sans-serif" font-size="14.00" font-weight="bold" fill="#1A1A2E" text-anchor="middle" dominant-baseline="middle">Battery</text>
  <line x1="178.00" y1="272.00" x2="329.92" y2="272.00" stroke="#1A1A2E" stroke-width="1.50"/>
  <text x="184.00" y="284.00" font-family="Noto Sans, sans-serif" font-size="12.00" font-weight="bold" font-style="italic" fill="#1A1A2E" text-anchor="start" dominant-baseline="middle">attributes</text>
  <text x="184.00" y="308.00" font-family="Noto Sans, sans-serif" font-size="12.00" fill="#1A1A2E" text-anchor="start" dominant-baseline="middle">capacity : Voltage</text>
  <line x1="178.00" y1="320.00" x2="329.92" y2="320.00" stroke="#1A1A2E" stroke-width="1.50"/>
  <text x="184.00" y="332.00" font-family="Noto Sans, sans-serif" font-size="12.00" font-weight="bold" font-style="italic" fill="#1A1A2E" text-anchor="start" dominant-baseline="middle">ports</text>
  <text x="184.00" y="356.00" font-family="Noto Sans, sans-serif" font-size="12.00" fill="#1A1A2E" text-anchor="start" dominant-baseline="middle">output : PowerPort</text>
  <rect x="353.92" y="228.00" width="204.00" height="200.00" fill="#EEF4FF" stroke="#1A1A2E" stroke-width="1.50"/>
  <text x="455.92" y="240.00" font-family="Noto Sans, sans-serif" font-size="12.00" font-style="italic" fill="#1A1A2E" text-anchor="middle" dominant-baseline="middle">«part def»</text>
  <text x="455.92" y="259.00" font-family="Noto Sans, sans-serif" font-size="14.00" font-weight="bold" fill="#1A1A2E" text-anchor="middle" dominant-baseline="middle">FlightController</text>
  <line x1="353.92" y1="272.00" x2="557.92" y2="272.00" stroke="#1A1A2E" stroke-width="1.50"/>
  <text x="359.92" y="284.00" font-family="Noto Sans, sans-serif" font-size="12.00" font-weight="bold" font-style="italic" fill="#1A1A2E" text-anchor="start" dominant-baseline="middle">attributes</text>
  <text x="359.92" y="308.00" font-family="Noto Sans, sans-serif" font-size="12.00" fill="#1A1A2E" text-anchor="start" dominant-baseline="middle">mode : FlightMode</text>
  <line x1="353.92" y1="320.00" x2="557.92" y2="320.00" stroke="#1A1A2E" stroke-width="1.50"/>
  <text x="359.92" y="332.00" font-family="Noto Sans, sans-serif" font-size="12.00" font-weight="bold" font-style="italic" fill="#1A1A2E" text-anchor="start" dominant-baseline="middle">ports</text>
  <text x="359.92" y="356.00" font-family="Noto Sans, sans-serif" font-size="12.00" fill="#1A1A2E" text-anchor="start" dominant-baseline="middle">power : PowerPort</text>
  <text x="359.92" y="374.00" font-family="Noto Sans, sans-serif" font-size="12.00" fill="#1A1A2E" text-anchor="start" dominant-baseline="middle">telemetry : TelemetryPort</text>
  <text x="359.92" y="392.00" font-family="Noto Sans, sans-serif" font-size="12.00" fill="#1A1A2E" text-anchor="start" dominant-baseline="middle">motors : MotorControlPort</text>
  <text x="359.92" y="410.00" font-family="Noto Sans, sans-serif" font-size="12.00" fill="#1A1A2E" text-anchor="start" dominant-baseline="middle">sensors : SensorPort</text>
  <rect x="24.00" y="458.00" width="211.44" height="146.00" fill="#EEF4FF" stroke="#1A1A2E" stroke-width="1.50"/>
  <text x="129.72" y="470.00" font-family="Noto Sans, sans-serif" font-size="12.00" font-style="italic" fill="#1A1A2E" text-anchor="middle" dominant-baseline="middle">«part def»</text>
  <text x="129.72" y="489.00" font-family="Noto Sans, sans-serif" font-size="14.00" font-weight="bold" fill="#1A1A2E" text-anchor="middle" dominant-baseline="middle">Motor</text>
  <line x1="24.00" y1="502.00" x2="235.44" y2="502.00" stroke="#1A1A2E" stroke-width="1.50"/>
  <text x="30.00" y="514.00" font-family="Noto Sans, sans-serif" font-size="12.00" font-weight="bold" font-style="italic" fill="#1A1A2E" text-anchor="start" dominant-baseline="middle">attributes</text>
  <text x="30.00" y="538.00" font-family="Noto Sans, sans-serif" font-size="12.00" fill="#1A1A2E" text-anchor="start" dominant-baseline="middle">maxThrust : Mass</text>
  <line x1="24.00" y1="550.00" x2="235.44" y2="550.00" stroke="#1A1A2E" stroke-width="1.50"/>
  <text x="30.00" y="562.00" font-family="Noto Sans, sans-serif" font-size="12.00" font-weight="bold" font-style="italic" fill="#1A1A2E" text-anchor="start" dominant-baseline="middle">ports</text>
  <text x="30.00" y="586.00" font-family="Noto Sans, sans-serif" font-size="12.00" fill="#1A1A2E" text-anchor="start" dominant-baseline="middle">control : MotorControlPort</text>
  <rect x="259.44" y="458.00" width="130.00" height="50.00" fill="#EEF4FF" stroke="#1A1A2E" stroke-width="1.50"/>
  <text x="324.44" y="470.00" font-family="Noto Sans, sans-serif" font-size="12.00" font-style="italic" fill="#1A1A2E" text-anchor="middle" dominant-baseline="middle">«part def»</text>
  <text x="324.44" y="489.00" font-family="Noto Sans, sans-serif" font-size="14.00" font-weight="bold" fill="#1A1A2E" text-anchor="middle" dominant-baseline="middle">Propeller</text>
  <rect x="413.44" y="458.00" width="144.48" height="98.00" fill="#EEF4FF" stroke="#1A1A2E" stroke-width="1.50"/>
  <text x="485.68" y="470.00" font-family="Noto Sans, sans-serif" font-size="12.00" font-style="italic" fill="#1A1A2E" text-anchor="middle" dominant-baseline="middle">«part def»</text>
  <text x="485.68" y="489.00" font-family="Noto Sans, sans-serif" font-size="14.00" font-weight="bold" fill="#1A1A2E" text-anchor="middle" dominant-baseline="middle">ImuSensor</text>
  <line x1="413.44" y1="502.00" x2="557.92" y2="502.00" stroke="#1A1A2E" stroke-width="1.50"/>
  <text x="419.44" y="514.00" font-family="Noto Sans, sans-serif" font-size="12.00" font-weight="bold" font-style="italic" fill="#1A1A2E" text-anchor="start" dominant-baseline="middle">ports</text>
  <text x="419.44" y="538.00" font-family="Noto Sans, sans-serif" font-size="12.00" fill="#1A1A2E" text-anchor="start" dominant-baseline="middle">data : SensorPort</text>
  <rect x="581.92" y="458.00" width="144.48" height="98.00" fill="#EEF4FF" stroke="#1A1A2E" stroke-width="1.50"/>
  <text x="654.16" y="470.00" font-family="Noto Sans, sans-serif" font-size="12.00" font-style="italic" fill="#1A1A2E" text-anchor="middle" dominant-baseline="middle">«part def»</text>
  <text x="654.16" y="489.00" font-family="Noto Sans, sans-serif" font-size="14.00" font-weight="bold" fill="#1A1A2E" text-anchor="middle" dominant-baseline="middle">GpsSensor</text>
  <line x1="581.92" y1="502.00" x2="726.40" y2="502.00" stroke="#1A1A2E" stroke-width="1.50"/>
  <text x="587.92" y="514.00" font-family="Noto Sans, sans-serif" font-size="12.00" font-weight="bold" font-style="italic" fill="#1A1A2E" text-anchor="start" dominant-baseline="middle">ports</text>
  <text x="587.92" y="538.00" font-family="Noto Sans, sans-serif" font-size="12.00" fill="#1A1A2E" text-anchor="start" dominant-baseline="middle">data : SensorPort</text>
  <rect x="24.00" y="634.00" width="130.00" height="50.00" fill="#EEF4FF" stroke="#1A1A2E" stroke-width="1.50"/>
  <text x="89.00" y="646.00" font-family="Noto Sans, sans-serif" font-size="12.00" font-style="italic" fill="#1A1A2E" text-anchor="middle" dominant-baseline="middle">«part def»</text>
  <text x="89.00" y="665.00" font-family="Noto Sans, sans-serif" font-size="14.00" font-weight="bold" fill="#1A1A2E" text-anchor="middle" dominant-baseline="middle">Frame</text>
  <rect x="178.00" y="634.00" width="130.00" height="50.00" fill="#EEF4FF" stroke="#1A1A2E" stroke-width="1.50"/>
  <text x="243.00" y="646.00" font-family="Noto Sans, sans-serif" font-size="12.00" font-style="italic" fill="#1A1A2E" text-anchor="middle" dominant-baseline="middle">«part def»</text>
  <text x="243.00" y="665.00" font-family="Noto Sans, sans-serif" font-size="14.00" font-weight="bold" fill="#1A1A2E" text-anchor="middle" dominant-baseline="middle">RacingMotor</text>
  <rect x="332.00" y="634.00" width="150.88" height="50.00" fill="#EEF4FF" stroke="#1A1A2E" stroke-width="1.50"/>
  <text x="407.44" y="646.00" font-family="Noto Sans, sans-serif" font-size="12.00" font-style="italic" fill="#1A1A2E" text-anchor="middle" dominant-baseline="middle">«part def»</text>
  <text x="407.44" y="665.00" font-family="Noto Sans, sans-serif" font-size="14.00" font-weight="bold" fill="#1A1A2E" text-anchor="middle" dominant-baseline="middle">EnduranceBattery</text>
  <rect x="24.00" y="714.00" width="233.76" height="254.00" fill="#EEF4FF" stroke="#1A1A2E" stroke-width="1.50"/>
  <text x="140.88" y="726.00" font-family="Noto Sans, sans-serif" font-size="12.00" font-style="italic" fill="#1A1A2E" text-anchor="middle" dominant-baseline="middle">«part def»</text>
  <text x="140.88" y="745.00" font-family="Noto Sans, sans-serif" font-size="14.00" font-weight="bold" fill="#1A1A2E" text-anchor="middle" dominant-baseline="middle">Drone</text>
  <line x1="24.00" y1="758.00" x2="257.76" y2="758.00" stroke="#1A1A2E" stroke-width="1.50"/>
  <text x="30.00" y="770.00" font-family="Noto Sans, sans-serif" font-size="12.00" font-weight="bold" font-style="italic" fill="#1A1A2E" text-anchor="start" dominant-baseline="middle">attributes</text>
  <text x="30.00" y="794.00" font-family="Noto Sans, sans-serif" font-size="12.00" fill="#1A1A2E" text-anchor="start" dominant-baseline="middle">totalMass : Mass</text>
  <line x1="24.00" y1="806.00" x2="257.76" y2="806.00" stroke="#1A1A2E" stroke-width="1.50"/>
  <text x="30.00" y="818.00" font-family="Noto Sans, sans-serif" font-size="12.00" font-weight="bold" font-style="italic" fill="#1A1A2E" text-anchor="start" dominant-baseline="middle">parts</text>
  <text x="30.00" y="842.00" font-family="Noto Sans, sans-serif" font-size="12.00" fill="#1A1A2E" text-anchor="start" dominant-baseline="middle">airframe : Frame</text>
  <text x="30.00" y="860.00" font-family="Noto Sans, sans-serif" font-size="12.00" fill="#1A1A2E" text-anchor="start" dominant-baseline="middle">battery : Battery</text>
  <text x="30.00" y="878.00" font-family="Noto Sans, sans-serif" font-size="12.00" fill="#1A1A2E" text-anchor="start" dominant-baseline="middle">controller : FlightController</text>
  <text x="30.00" y="896.00" font-family="Noto Sans, sans-serif" font-size="12.00" fill="#1A1A2E" text-anchor="start" dominant-baseline="middle">motors : Motor [4]</text>
  <text x="30.00" y="914.00" font-family="Noto Sans, sans-serif" font-size="12.00" fill="#1A1A2E" text-anchor="start" dominant-baseline="middle">propellers : Propeller [4]</text>
  <text x="30.00" y="932.00" font-family="Noto Sans, sans-serif" font-size="12.00" fill="#1A1A2E" text-anchor="start" dominant-baseline="middle">imu : ImuSensor</text>
  <text x="30.00" y="950.00" font-family="Noto Sans, sans-serif" font-size="12.00" fill="#1A1A2E" text-anchor="start" dominant-baseline="middle">gps : GpsSensor</text>
  <rect x="281.76" y="714.00" width="194.28" height="50.00" fill="#EEF4FF" stroke="#1A1A2E" stroke-width="1.50"/>
  <text x="378.90" y="726.00" font-family="Noto Sans, sans-serif" font-size="12.00" font-style="italic" fill="#1A1A2E" text-anchor="middle" dominant-baseline="middle">«requirement def»</text>
  <text x="378.90" y="745.00" font-family="Noto Sans, sans-serif" font-size="14.00" font-weight="bold" fill="#1A1A2E" text-anchor="middle" dominant-baseline="middle">FlightTimeRequirement</text>
  <path d="M 243.00 634.00 L 243.00 623.00 A 4.00 4.00 0 0 0 239.00 619.00 L 133.72 619.00 A 4.00 4.00 0 0 1 129.72 615.00 L 129.72 604.00" fill="none" stroke="#1A1A2E" stroke-width="1.50" marker-end="url(#arrowhead-open)"/>
  <path d="M 407.44 634.00 L 407.44 618.00 A 4.00 4.00 0 0 0 403.44 614.00 L 251.44 614.00 A 4.00 4.00 0 0 1 247.44 610.00 L 247.44 397.26 A 3.26 3.26 0 0 1 250.70 394.00 L 250.70 394.00 A 3.26 3.26 0 0 0 253.96 390.74 L 253.96 374.00" fill="none" stroke="#1A1A2E" stroke-width="1.50" marker-end="url(#arrowhead-open)"/>
  <path d="M 397.00 118.00 L 397.00 134.00 A 4.00 4.00 0 0 1 393.00 138.00 L 338.88 138.00 A 4.00 4.00 0 0 0 334.88 142.00 L 334.88 204.00 A 4.00 4.00 0 0 1 330.88 208.00 L 257.96 208.00 A 4.00 4.00 0 0 0 253.96 212.00 L 253.96 228.00" fill="none" stroke="#1A1A2E" stroke-width="1.50" marker-end="url(#arrowhead-filled-diamond)"/>
  <path d="M 397.00 118.00 L 397.00 134.00 A 4.00 4.00 0 0 0 401.00 138.00 L 484.88 138.00 A 4.00 4.00 0 0 1 488.88 142.00 L 488.88 204.00 A 4.00 4.00 0 0 1 484.88 208.00 L 459.92 208.00 A 4.00 4.00 0 0 0 455.92 212.00 L 455.92 228.00" fill="none" stroke="#1A1A2E" stroke-width="1.50" marker-end="url(#arrowhead-filled-diamond)"/>
  <path d="M 551.00 118.00 L 551.00 134.00 A 4.00 4.00 0 0 1 547.00 138.00 L 492.88 138.00 A 4.00 4.00 0 0 0 488.88 142.00 L 488.88 204.00 A 4.00 4.00 0 0 1 484.88 208.00 L 459.92 208.00 A 4.00 4.00 0 0 0 455.92 212.00 L 455.92 228.00" fill="none" stroke="#1A1A2E" stroke-width="1.50" marker-end="url(#arrowhead-filled-diamond)"/>
  <path d="M 174.88 173.00 L 190.88 173.00 A 4.00 4.00 0 0 1 194.88 177.00 L 194.88 221.00 A 4.00 4.00 0 0 0 198.88 225.00 L 329.92 225.00 A 4.00 4.00 0 0 1 333.92 229.00 L 333.92 324.00 A 4.00 4.00 0 0 0 337.92 328.00 L 353.92 328.00" fill="none" stroke="#1A1A2E" stroke-width="1.50" marker-end="url(#arrowhead-filled-diamond)"/>
  <path d="M 328.88 173.00 L 337.40 173.00 A 4.00 4.00 0 0 1 341.40 177.00 L 341.40 324.00 A 4.00 4.00 0 0 0 345.40 328.00 L 353.92 328.00" fill="none" stroke="#1A1A2E" stroke-width="1.50" marker-end="url(#arrowhead-filled-diamond)"/>
  <path d="M 99.44 198.00 L 99.44 214.00 A 4.00 4.00 0 0 0 103.44 218.00 L 156.00 218.00 A 4.00 4.00 0 0 1 160.00 222.00 L 160.00 434.00 A 4.00 4.00 0 0 1 156.00 438.00 L 133.72 438.00 A 4.00 4.00 0 0 0 129.72 442.00 L 129.72 458.00" fill="none" stroke="#1A1A2E" stroke-width="1.50" marker-end="url(#arrowhead-filled-diamond)"/>
  <path d="M 263.88 198.00 L 263.88 214.00 A 4.00 4.00 0 0 0 267.88 218.00 L 343.92 218.00 A 4.00 4.00 0 0 1 347.92 222.00 L 347.92 434.00 A 4.00 4.00 0 0 0 351.92 438.00 L 481.68 438.00 A 4.00 4.00 0 0 1 485.68 442.00 L 485.68 458.00" fill="none" stroke="#1A1A2E" stroke-width="1.50" marker-end="url(#arrowhead-filled-diamond)"/>
  <path d="M 328.88 173.00 L 344.88 173.00 A 4.00 4.00 0 0 1 348.88 177.00 L 348.88 451.00 A 4.00 4.00 0 0 0 352.88 455.00 L 557.92 455.00 A 4.00 4.00 0 0 1 561.92 459.00 L 561.92 503.00 A 4.00 4.00 0 0 0 565.92 507.00 L 581.92 507.00" fill="none" stroke="#1A1A2E" stroke-width="1.50" marker-end="url(#arrowhead-filled-diamond)"/>
  <path d="M 89.00 684.00 L 89.00 695.00 A 4.00 4.00 0 0 0 93.00 699.00 L 136.88 699.00 A 4.00 4.00 0 0 1 140.88 703.00 L 140.88 714.00" fill="none" stroke="#1A1A2E" stroke-width="1.50" marker-end="url(#arrowhead-filled-diamond)"/>
  <path d="M 253.96 374.00 L 253.96 390.00 A 4.00 4.00 0 0 1 249.96 394.00 L 245.44 394.00 A 4.00 4.00 0 0 0 241.44 398.00 L 241.44 624.00 A 4.00 4.00 0 0 1 237.44 628.00 L 164.00 628.00 A 4.00 4.00 0 0 0 160.00 632.00 L 160.00 690.00 A 4.00 4.00 0 0 1 156.00 694.00 L 144.88 694.00 A 4.00 4.00 0 0 0 140.88 698.00 L 140.88 714.00" fill="none" stroke="#1A1A2E" stroke-width="1.50" marker-end="url(#arrowhead-filled-diamond)"/>
  <path d="M 455.92 428.00 L 455.92 444.00 A 4.00 4.00 0 0 1 451.92 448.00 L 245.44 448.00 A 4.00 4.00 0 0 0 241.44 452.00 L 241.44 624.00 A 4.00 4.00 0 0 1 237.44 628.00 L 164.00 628.00 A 4.00 4.00 0 0 0 160.00 632.00 L 160.00 690.00 A 4.00 4.00 0 0 1 156.00 694.00 L 144.88 694.00 A 4.00 4.00 0 0 0 140.88 698.00 L 140.88 714.00" fill="none" stroke="#1A1A2E" stroke-width="1.50" marker-end="url(#arrowhead-filled-diamond)"/>
  <path d="M 129.72 604.00 L 129.72 620.00 A 4.00 4.00 0 0 0 133.72 624.00 L 156.00 624.00 A 4.00 4.00 0 0 1 160.00 628.00 L 160.00 690.00 A 4.00 4.00 0 0 1 156.00 694.00 L 144.88 694.00 A 4.00 4.00 0 0 0 140.88 698.00 L 140.88 714.00" fill="none" stroke="#1A1A2E" stroke-width="1.50" marker-end="url(#arrowhead-filled-diamond)"/>
  <path d="M 324.44 508.00 L 324.44 690.00 A 4.00 4.00 0 0 1 320.44 694.00 L 144.88 694.00 A 4.00 4.00 0 0 0 140.88 698.00 L 140.88 714.00" fill="none" stroke="#1A1A2E" stroke-width="1.50" marker-end="url(#arrowhead-filled-diamond)"/>
  <path d="M 413.44 507.00 L 397.44 507.00 A 4.00 4.00 0 0 0 393.44 511.00 L 393.44 627.00 A 4.00 4.00 0 0 1 389.44 631.00 L 315.00 631.00 A 4.00 4.00 0 0 0 311.00 635.00 L 311.00 707.00 A 4.00 4.00 0 0 1 307.00 711.00 L 281.76 711.00 A 4.00 4.00 0 0 0 277.76 715.00 L 277.76 837.00 A 4.00 4.00 0 0 1 273.76 841.00 L 257.76 841.00" fill="none" stroke="#1A1A2E" stroke-width="1.50" marker-end="url(#arrowhead-filled-diamond)"/>
  <path d="M 581.92 507.00 L 565.92 507.00 A 4.00 4.00 0 0 0 561.92 511.00 L 561.92 837.00 A 4.00 4.00 0 0 1 557.92 841.00 L 257.76 841.00" fill="none" stroke="#1A1A2E" stroke-width="1.50" marker-end="url(#arrowhead-filled-diamond)"/>
</svg>
