<svg xmlns="http://www.w3.org/2000/svg" width="684.91" height="798.99" viewBox="0 0 684.91 798.99">
  <defs>
    <marker id="arrowhead-open" markerWidth="10" markerHeight="7" refX="9" refY="3.5" orient="auto">
      <polygon points="0 0, 10 3.5, 0 7" fill="none" stroke="#1A1A2E" stroke-width="1.50"/>
    </marker>
    <marker id="arrowhead-filled" markerWidth="10" markerHeight="7" refX="9" refY="3.5" orient="auto">
      <polygon points="0 0, 10 3.5, 0 7" fill="#1A1A2E" stroke="#1A1A2E" stroke-width="1.50"/>
    </marker>
    <marker id="arrowhead-open-crossbar" markerWidth="10" markerHeight="7" refX="9" refY="3.5" orient="auto">
      <polygon points="0 0, 10 3.5, 0 7" fill="none" stroke="#1A1A2E" stroke-width="1.50"/>
      <line x1="7" y1="0" x2="7" y2="7" stroke="#1A1A2E" stroke-width="1.50"/>
    </marker>
    <marker id="arrowhead-diamond" markerWidth="14" markerHeight="8" refX="13" refY="4" orient="auto">
      <polygon points="1 4, 7 0, 13 4, 7 8" fill="none" stroke="#1A1A2E" stroke-width="1.50"/>
    </marker>
    <marker id="arrowhead-filled-diamond" markerWidth="14" markerHeight="8" refX="13" refY="4" orient="auto">
      <polygon points="1 4, 7 0, 13 4, 7 8" fill="#1A1A2E" stroke="#1A1A2E" stroke-width="1.50"/>
    </marker>
    <marker id="arrowhead-circle" markerWidth="10" markerHeight="10" refX="9" refY="5" orient="auto">
      <circle cx="5" cy="5" r="4" fill="none" stroke="#1A1A2E" stroke-width="1.50"/>
    </marker>
    <marker id="arrowhead-bar" markerWidth="4" markerHeight="12" refX="2" refY="6" orient="auto">
      <line x1="2" y1="0" x2="2" y2="12" stroke="#1A1A2E" stroke-width="1.50"/>
    </marker>
    <filter id="label-bg" x="-0.05" y="-0.05" width="1.1" height="1.1">
      <feFlood flood-color="#FFFFFF"/>
      <feComposite in="SourceGraphic" operator="over"/>
    </filter>
  </defs>
  <rect x="57.93" y="42.00" width="100.00" height="50.00" fill="#EEF4FF" stroke="#1A1A2E" stroke-width="1.50" rx="8.00" ry="8.00"/>
  <text x="107.93" y="54.00" font-family="Noto Sans, sans-serif" font-size="12.00" font-style="italic" fill="#1A1A2E" text-anchor="middle" dominant-baseline="middle">«state»</text>
  <text x="107.93" y="73.00" font-family="Noto Sans, sans-serif" font-size="14.00" font-weight="bold" fill="#1A1A2E" text-anchor="middle" dominant-baseline="middle">idle</text>
  <rect x="297.70" y="558.88" width="128.16" height="50.00" fill="#EEF4FF" stroke="#1A1A2E" stroke-width="1.50" rx="8.00" ry="8.00"/>
  <text x="361.78" y="570.88" font-family="Noto Sans, sans-serif" font-size="12.00" font-style="italic" fill="#1A1A2E" text-anchor="middle" dominant-baseline="middle">«state»</text>
  <text x="361.78" y="589.88" font-family="Noto Sans, sans-serif" font-size="14.00" font-weight="bold" fill="#1A1A2E" text-anchor="middle" dominant-baseline="middle">doorsOpening</text>
  <rect x="170.65" y="706.99" width="102.12" height="50.00" fill="#EEF4FF" stroke="#1A1A2E" stroke-width="1.50" rx="8.00" ry="8.00"/>
  <text x="221.71" y="718.99" font-family="Noto Sans, sans-serif" font-size="12.00" font-style="italic" fill="#1A1A2E" text-anchor="middle" dominant-baseline="middle">«state»</text>
  <text x="221.71" y="737.99" font-family="Noto Sans, sans-serif" font-size="14.00" font-weight="bold" fill="#1A1A2E" text-anchor="middle" dominant-baseline="middle">doorsOpen</text>
  <rect x="228.33" y="307.95" width="128.16" height="50.00" fill="#EEF4FF" stroke="#1A1A2E" stroke-width="1.50" rx="8.00" ry="8.00"/>
  <text x="292.41" y="319.95" font-family="Noto Sans, sans-serif" font-size="12.00" font-style="italic" fill="#1A1A2E" text-anchor="middle" dominant-baseline="middle">«state»</text>
  <text x="292.41" y="338.95" font-family="Noto Sans, sans-serif" font-size="14.00" font-weight="bold" fill="#1A1A2E" text-anchor="middle" dominant-baseline="middle">doorsClosing</text>
  <rect x="42.00" y="330.11" width="100.00" height="50.00" fill="#EEF4FF" stroke="#1A1A2E" stroke-width="1.50" rx="8.00" ry="8.00"/>
  <text x="92.00" y="342.11" font-family="Noto Sans, sans-serif" font-size="12.00" font-style="italic" fill="#1A1A2E" text-anchor="middle" dominant-baseline="middle">«state»</text>
  <text x="92.00" y="361.11" font-family="Noto Sans, sans-serif" font-size="14.00" font-weight="bold" fill="#1A1A2E" text-anchor="middle" dominant-baseline="middle">movingUp</text>
  <rect x="532.11" y="395.16" width="110.80" height="50.00" fill="#EEF4FF" stroke="#1A1A2E" stroke-width="1.50" rx="8.00" ry="8.00"/>
  <text x="587.51" y="407.16" font-family="Noto Sans, sans-serif" font-size="12.00" font-style="italic" fill="#1A1A2E" text-anchor="middle" dominant-baseline="middle">«state»</text>
  <text x="587.51" y="426.16" font-family="Noto Sans, sans-serif" font-size="14.00" font-weight="bold" fill="#1A1A2E" text-anchor="middle" dominant-baseline="middle">movingDown</text>
  <circle cx="107.93" cy="14.00" r="9.00" fill="#1A1A2E"/>
  <path d="M 107.93 23.00 L 107.93 42.00" fill="none" stroke="#1A1A2E" stroke-width="1.50" marker-end="url(#arrowhead-filled)"/>
  <path d="M 124.59 92.00 L 124.59 283.95 A 4.00 4.00 0 0 0 128.59 287.95 L 288.41 287.95 A 4.00 4.00 0 0 1 292.41 291.95 L 292.41 307.95" fill="none" stroke="#1A1A2E" stroke-width="1.50" marker-end="url(#arrowhead-open)"/>
  <path d="M 228.33 332.95 L 166.00 332.95 A 4.00 4.00 0 0 0 162.00 336.95 L 162.00 342.78 A 4.00 4.00 0 0 1 158.00 346.78 L 142.00 346.78" fill="none" stroke="#1A1A2E" stroke-width="1.50" marker-end="url(#arrowhead-open)"/>
  <path d="M 142.00 363.44 L 158.00 363.44 A 4.00 4.00 0 0 1 162.00 367.44 L 162.00 579.88 A 4.00 4.00 0 0 0 166.00 583.88 L 297.70 583.88" fill="none" stroke="#1A1A2E" stroke-width="1.50" marker-end="url(#arrowhead-open)"/>
  <path d="M 532.11 428.49 L 516.11 428.49 A 4.00 4.00 0 0 0 512.11 432.49 L 512.11 579.88 A 4.00 4.00 0 0 1 508.11 583.88 L 425.86 583.88" fill="none" stroke="#1A1A2E" stroke-width="1.50" marker-end="url(#arrowhead-open)"/>
  <path d="M 361.78 608.88 L 361.78 682.99 A 4.00 4.00 0 0 1 357.78 686.99 L 242.73 686.99 A 4.00 4.00 0 0 0 238.73 690.99 L 238.73 706.99" fill="none" stroke="#1A1A2E" stroke-width="1.50" marker-end="url(#arrowhead-open)"/>
  <path d="M 204.69 706.99 L 204.69 399.95 A 4.00 4.00 0 0 1 208.69 395.95 L 288.41 395.95 A 4.00 4.00 0 0 0 292.41 391.95 L 292.41 357.95" fill="none" stroke="#1A1A2E" stroke-width="1.50" marker-end="url(#arrowhead-open)"/>
  <path d="M 356.49 332.95 L 508.11 332.95 A 4.00 4.00 0 0 1 512.11 336.95 L 512.11 407.83 A 4.00 4.00 0 0 0 516.11 411.83 L 532.11 411.83" fill="none" stroke="#1A1A2E" stroke-width="1.50" marker-end="url(#arrowhead-open)"/>
  <path d="M 92.00 330.11 L 92.00 130.37 A 0.37 0.37 0 0 0 91.63 130.00 L 91.63 130.00 A 0.37 0.37 0 0 1 91.26 129.63 L 91.26 92.00" fill="none" stroke="#1A1A2E" stroke-width="1.50" marker-end="url(#arrowhead-open)"/>
  <text x="124.59" y="189.97" font-family="Noto Sans, sans-serif" font-size="12.00" fill="#1A1A2E" text-anchor="middle" dominant-baseline="middle" filter="url(#label-bg)">[callReceived]</text>
  <text x="195.16" y="332.95" font-family="Noto Sans, sans-serif" font-size="12.00" fill="#1A1A2E" text-anchor="middle" dominant-baseline="middle" filter="url(#label-bg)">[doorsClosed]</text>
  <text x="162.00" y="473.66" font-family="Noto Sans, sans-serif" font-size="12.00" fill="#1A1A2E" text-anchor="middle" dominant-baseline="middle" filter="url(#label-bg)">[atFloor]</text>
  <text x="512.11" y="506.19" font-family="Noto Sans, sans-serif" font-size="12.00" fill="#1A1A2E" text-anchor="middle" dominant-baseline="middle" filter="url(#label-bg)">[atFloor]</text>
  <text x="300.26" y="686.99" font-family="Noto Sans, sans-serif" font-size="12.00" fill="#1A1A2E" text-anchor="middle" dominant-baseline="middle" filter="url(#label-bg)">[doorsAreOpen]</text>
  <text x="204.69" y="551.47" font-family="Noto Sans, sans-serif" font-size="12.00" fill="#1A1A2E" text-anchor="middle" dominant-baseline="middle" filter="url(#label-bg)">[timeout]</text>
  <text x="434.30" y="332.95" font-family="Noto Sans, sans-serif" font-size="12.00" fill="#1A1A2E" text-anchor="middle" dominant-baseline="middle" filter="url(#label-bg)">[goingDown]</text>
  <text x="92.00" y="230.05" font-family="Noto Sans, sans-serif" font-size="12.00" fill="#1A1A2E" text-anchor="middle" dominant-baseline="middle" filter="url(#label-bg)">[idleTimeout]</text>
</svg>
