<svg xmlns="http://www.w3.org/2000/svg" width="364.50" height="1546.00" viewBox="0 0 364.50 1546.00">
  <defs>
    <marker id="line-end-open-chevron" markerWidth="10" markerHeight="7" refX="9" refY="3.5" orient="auto">
      <polyline points="0 0, 10 3.5, 0 7" fill="none" stroke="#1A1A2E" stroke-width="1.50"/>
    </marker>
    <marker id="line-end-hollow-triangle" markerWidth="10" markerHeight="7" refX="9" refY="3.5" orient="auto">
      <polygon points="0 0, 10 3.5, 0 7" fill="#FFFFFF" stroke="#1A1A2E" stroke-width="1.50"/>
    </marker>
    <marker id="line-end-filled-arrow" markerWidth="10" markerHeight="7" refX="9" refY="3.5" orient="auto">
      <polygon points="0 0, 10 3.5, 0 7" fill="#1A1A2E" stroke="#1A1A2E" stroke-width="1.50"/>
    </marker>
    <marker id="line-end-hollow-triangle-crossbar" markerWidth="10" markerHeight="7" refX="9" refY="3.5" orient="auto">
      <polygon points="0 0, 10 3.5, 0 7" fill="#FFFFFF" stroke="#1A1A2E" stroke-width="1.50"/>
      <line x1="7" y1="0" x2="7" y2="7" stroke="#1A1A2E" stroke-width="1.50"/>
    </marker>
    <marker id="line-end-hollow-diamond" markerWidth="14" markerHeight="8" refX="13" refY="4" orient="auto">
      <polygon points="1 4, 7 0, 13 4, 7 8" fill="#FFFFFF" stroke="#1A1A2E" stroke-width="1.50"/>
    </marker>
    <marker id="line-end-filled-diamond" markerWidth="14" markerHeight="8" refX="13" refY="4" orient="auto">
      <polygon points="1 4, 7 0, 13 4, 7 8" fill="#1A1A2E" stroke="#1A1A2E" stroke-width="1.50"/>
    </marker>
    <marker id="line-end-circle" markerWidth="10" markerHeight="10" refX="9" refY="5" orient="auto">
      <circle cx="5" cy="5" r="4" fill="#FFFFFF" stroke="#1A1A2E" stroke-width="1.50"/>
    </marker>
    <marker id="line-end-bar" markerWidth="4" markerHeight="12" refX="2" refY="6" orient="auto">
      <line x1="2" y1="0" x2="2" y2="12" stroke="#1A1A2E" stroke-width="1.50"/>
    </marker>
    <filter id="label-bg" x="-0.05" y="-0.05" width="1.1" height="1.1">
      <feFlood flood-color="#FFFFFF"/>
      <feComposite in="SourceGraphic" operator="over"/>
    </filter>
  </defs>
  <rect x="133.66" y="114.00" width="110.00" height="50.00" fill="#EEF4FF" stroke="#1A1A2E" stroke-width="1.50" rx="8.00" ry="8.00"/>
  <text x="188.66" y="126.00" font-family="Noto Sans, sans-serif" font-size="12.00" font-style="italic" fill="#1A1A2E" text-anchor="middle" dominant-baseline="middle">«action»</text>
  <text x="188.66" y="145.00" font-family="Noto Sans, sans-serif" font-size="14.00" font-weight="bold" fill="#1A1A2E" text-anchor="middle" dominant-baseline="middle">checkout</text>
  <rect x="94.20" y="234.00" width="188.92" height="50.00" fill="#EEF4FF" stroke="#1A1A2E" stroke-width="1.50" rx="8.00" ry="8.00"/>
  <text x="188.66" y="246.00" font-family="Noto Sans, sans-serif" font-size="12.00" font-style="italic" fill="#1A1A2E" text-anchor="middle" dominant-baseline="middle">«action»</text>
  <text x="188.66" y="265.00" font-family="Noto Sans, sans-serif" font-size="14.00" font-weight="bold" fill="#1A1A2E" text-anchor="middle" dominant-baseline="middle">restoreDependencies</text>
  <rect x="133.66" y="354.00" width="110.00" height="50.00" fill="#EEF4FF" stroke="#1A1A2E" stroke-width="1.50" rx="8.00" ry="8.00"/>
  <text x="188.66" y="366.00" font-family="Noto Sans, sans-serif" font-size="12.00" font-style="italic" fill="#1A1A2E" text-anchor="middle" dominant-baseline="middle">«action»</text>
  <text x="188.66" y="385.00" font-family="Noto Sans, sans-serif" font-size="14.00" font-weight="bold" fill="#1A1A2E" text-anchor="middle" dominant-baseline="middle">build</text>
  <line x1="179.06" y1="486.00" x2="198.26" y2="486.00" stroke="#1A1A2E" stroke-width="1.50"/>
  <text x="206.66" y="492.00" font-family="Noto Sans, sans-serif" font-size="12.00" fill="#1A1A2E" text-anchor="start" dominant-baseline="middle">buildFork</text>
  <rect x="59.12" y="568.00" width="110.00" height="50.00" fill="#EEF4FF" stroke="#1A1A2E" stroke-width="1.50" rx="8.00" ry="8.00"/>
  <text x="114.12" y="580.00" font-family="Noto Sans, sans-serif" font-size="12.00" font-style="italic" fill="#1A1A2E" text-anchor="middle" dominant-baseline="middle">«action»</text>
  <text x="114.12" y="599.00" font-family="Noto Sans, sans-serif" font-size="14.00" font-weight="bold" fill="#1A1A2E" text-anchor="middle" dominant-baseline="middle">unitTest</text>
  <rect x="58.01" y="688.00" width="154.20" height="50.00" fill="#EEF4FF" stroke="#1A1A2E" stroke-width="1.50" rx="8.00" ry="8.00"/>
  <text x="135.11" y="700.00" font-family="Noto Sans, sans-serif" font-size="12.00" font-style="italic" fill="#1A1A2E" text-anchor="middle" dominant-baseline="middle">«action»</text>
  <text x="135.11" y="719.00" font-family="Noto Sans, sans-serif" font-size="14.00" font-weight="bold" fill="#1A1A2E" text-anchor="middle" dominant-baseline="middle">integrationTest</text>
  <rect x="199.12" y="568.00" width="128.16" height="50.00" fill="#EEF4FF" stroke="#1A1A2E" stroke-width="1.50" rx="8.00" ry="8.00"/>
  <text x="263.20" y="580.00" font-family="Noto Sans, sans-serif" font-size="12.00" font-style="italic" fill="#1A1A2E" text-anchor="middle" dominant-baseline="middle">«action»</text>
  <text x="263.20" y="599.00" font-family="Noto Sans, sans-serif" font-size="14.00" font-weight="bold" fill="#1A1A2E" text-anchor="middle" dominant-baseline="middle">securityScan</text>
  <line x1="179.06" y1="820.00" x2="198.26" y2="820.00" stroke="#1A1A2E" stroke-width="1.50"/>
  <text x="206.66" y="826.00" font-family="Noto Sans, sans-serif" font-size="12.00" fill="#1A1A2E" text-anchor="start" dominant-baseline="middle">testJoin</text>
  <rect x="128.92" y="902.00" width="119.48" height="50.00" fill="#EEF4FF" stroke="#1A1A2E" stroke-width="1.50" rx="8.00" ry="8.00"/>
  <text x="188.66" y="914.00" font-family="Noto Sans, sans-serif" font-size="12.00" font-style="italic" fill="#1A1A2E" text-anchor="middle" dominant-baseline="middle">«action»</text>
  <text x="188.66" y="933.00" font-family="Noto Sans, sans-serif" font-size="14.00" font-weight="bold" fill="#1A1A2E" text-anchor="middle" dominant-baseline="middle">qualityGate</text>
  <rect x="120.24" y="1022.00" width="136.84" height="50.00" fill="#EEF4FF" stroke="#1A1A2E" stroke-width="1.50" rx="8.00" ry="8.00"/>
  <text x="188.66" y="1034.00" font-family="Noto Sans, sans-serif" font-size="12.00" font-style="italic" fill="#1A1A2E" text-anchor="middle" dominant-baseline="middle">«action»</text>
  <text x="188.66" y="1053.00" font-family="Noto Sans, sans-serif" font-size="14.00" font-weight="bold" fill="#1A1A2E" text-anchor="middle" dominant-baseline="middle">deployStaging</text>
  <rect x="133.66" y="1142.00" width="110.00" height="50.00" fill="#EEF4FF" stroke="#1A1A2E" stroke-width="1.50" rx="8.00" ry="8.00"/>
  <text x="188.66" y="1154.00" font-family="Noto Sans, sans-serif" font-size="12.00" font-style="italic" fill="#1A1A2E" text-anchor="middle" dominant-baseline="middle">«action»</text>
  <text x="188.66" y="1173.00" font-family="Noto Sans, sans-serif" font-size="14.00" font-weight="bold" fill="#1A1A2E" text-anchor="middle" dominant-baseline="middle">smokeTest</text>
  <rect x="24.00" y="1262.00" width="162.88" height="50.00" fill="#EEF4FF" stroke="#1A1A2E" stroke-width="1.50" rx="8.00" ry="8.00"/>
  <text x="105.44" y="1274.00" font-family="Noto Sans, sans-serif" font-size="12.00" font-style="italic" fill="#1A1A2E" text-anchor="middle" dominant-baseline="middle">«action»</text>
  <text x="105.44" y="1293.00" font-family="Noto Sans, sans-serif" font-size="14.00" font-weight="bold" fill="#1A1A2E" text-anchor="middle" dominant-baseline="middle">deployProduction</text>
  <rect x="216.88" y="1262.00" width="110.00" height="50.00" fill="#EEF4FF" stroke="#1A1A2E" stroke-width="1.50" rx="8.00" ry="8.00"/>
  <text x="271.88" y="1274.00" font-family="Noto Sans, sans-serif" font-size="12.00" font-style="italic" fill="#1A1A2E" text-anchor="middle" dominant-baseline="middle">«action»</text>
  <text x="271.88" y="1293.00" font-family="Noto Sans, sans-serif" font-size="14.00" font-weight="bold" fill="#1A1A2E" text-anchor="middle" dominant-baseline="middle">rollback</text>
  <rect x="36.82" y="1382.00" width="136.84" height="50.00" fill="#EEF4FF" stroke="#1A1A2E" stroke-width="1.50" rx="8.00" ry="8.00"/>
  <text x="105.24" y="1394.00" font-family="Noto Sans, sans-serif" font-size="12.00" font-style="italic" fill="#1A1A2E" text-anchor="middle" dominant-baseline="middle">«action»</text>
  <text x="105.24" y="1413.00" font-family="Noto Sans, sans-serif" font-size="14.00" font-weight="bold" fill="#1A1A2E" text-anchor="middle" dominant-baseline="middle">notifySuccess</text>
  <rect x="203.66" y="1382.00" width="136.84" height="50.00" fill="#EEF4FF" stroke="#1A1A2E" stroke-width="1.50" rx="8.00" ry="8.00"/>
  <text x="272.08" y="1394.00" font-family="Noto Sans, sans-serif" font-size="12.00" font-style="italic" fill="#1A1A2E" text-anchor="middle" dominant-baseline="middle">«action»</text>
  <text x="272.08" y="1413.00" font-family="Noto Sans, sans-serif" font-size="14.00" font-weight="bold" fill="#1A1A2E" text-anchor="middle" dominant-baseline="middle">notifyFailure</text>
  <path d="M 188.66 164.00 L 188.66 234.00" fill="none" stroke="#1A1A2E" stroke-width="1.50" marker-end="url(#line-end-open-chevron)" stroke-dasharray="6 3"/>
  <path d="M 188.66 284.00 L 188.66 354.00" fill="none" stroke="#1A1A2E" stroke-width="1.50" marker-end="url(#line-end-open-chevron)" stroke-dasharray="6 3"/>
  <path d="M 188.66 404.00 L 188.66 474.00" fill="none" stroke="#1A1A2E" stroke-width="1.50" marker-end="url(#line-end-open-chevron)" stroke-dasharray="6 3"/>
  <path d="M 182.66 498.00 L 182.66 504.00 A 4.00 4.00 0 0 1 178.66 508.00 L 118.12 508.00 A 4.00 4.00 0 0 0 114.12 512.00 L 114.12 568.00" fill="none" stroke="#1A1A2E" stroke-width="1.50" marker-end="url(#line-end-open-chevron)" stroke-dasharray="6 3"/>
  <path d="M 194.66 498.00 L 194.66 504.00 A 4.00 4.00 0 0 0 198.66 508.00 L 259.20 508.00 A 4.00 4.00 0 0 1 263.20 512.00 L 263.20 568.00" fill="none" stroke="#1A1A2E" stroke-width="1.50" marker-end="url(#line-end-open-chevron)" stroke-dasharray="6 3"/>
  <path d="M 114.12 618.00 L 114.12 624.00 A 4.00 4.00 0 0 0 118.12 628.00 L 131.11 628.00 A 4.00 4.00 0 0 1 135.11 632.00 L 135.11 688.00" fill="none" stroke="#1A1A2E" stroke-width="1.50" marker-end="url(#line-end-open-chevron)" stroke-dasharray="6 3"/>
  <path d="M 135.11 738.00 L 135.11 744.00 A 4.00 4.00 0 0 0 139.11 748.00 L 178.66 748.00 A 4.00 4.00 0 0 1 182.66 752.00 L 182.66 808.00" fill="none" stroke="#1A1A2E" stroke-width="1.50" marker-end="url(#line-end-open-chevron)" stroke-dasharray="6 3"/>
  <path d="M 263.20 618.00 L 263.20 624.00 A 4.00 4.00 0 0 1 259.20 628.00 L 246.21 628.00 A 4.00 4.00 0 0 0 242.21 632.00 L 242.21 744.00 A 4.00 4.00 0 0 1 238.21 748.00 L 198.66 748.00 A 4.00 4.00 0 0 0 194.66 752.00 L 194.66 808.00" fill="none" stroke="#1A1A2E" stroke-width="1.50" marker-end="url(#line-end-open-chevron)" stroke-dasharray="6 3"/>
  <path d="M 188.66 832.00 L 188.66 902.00" fill="none" stroke="#1A1A2E" stroke-width="1.50" marker-end="url(#line-end-open-chevron)" stroke-dasharray="6 3"/>
  <path d="M 188.66 952.00 L 188.66 1022.00" fill="none" stroke="#1A1A2E" stroke-width="1.50" marker-end="url(#line-end-open-chevron)" stroke-dasharray="6 3"/>
  <path d="M 188.66 1072.00 L 188.66 1142.00" fill="none" stroke="#1A1A2E" stroke-width="1.50" marker-end="url(#line-end-open-chevron)" stroke-dasharray="6 3"/>
  <path d="M 161.16 1192.00 L 161.16 1198.00 A 4.00 4.00 0 0 1 157.16 1202.00 L 109.44 1202.00 A 4.00 4.00 0 0 0 105.44 1206.00 L 105.44 1262.00" fill="none" stroke="#1A1A2E" stroke-width="1.50" marker-end="url(#line-end-open-chevron)" stroke-dasharray="6 3"/>
  <path d="M 216.16 1192.00 L 216.16 1198.00 A 4.00 4.00 0 0 0 220.16 1202.00 L 267.88 1202.00 A 4.00 4.00 0 0 1 271.88 1206.00 L 271.88 1262.00" fill="none" stroke="#1A1A2E" stroke-width="1.50" marker-end="url(#line-end-open-chevron)" stroke-dasharray="6 3"/>
  <path d="M 105.44 1312.00 L 105.44 1321.90 A 0.10 0.10 0 0 1 105.34 1322.00 L 105.34 1322.00 A 0.10 0.10 0 0 0 105.24 1322.10 L 105.24 1382.00" fill="none" stroke="#1A1A2E" stroke-width="1.50" marker-end="url(#line-end-open-chevron)" stroke-dasharray="6 3"/>
  <path d="M 271.88 1312.00 L 271.88 1321.90 A 0.10 0.10 0 0 0 271.98 1322.00 L 271.98 1322.00 A 0.10 0.10 0 0 1 272.08 1322.10 L 272.08 1382.00" fill="none" stroke="#1A1A2E" stroke-width="1.50" marker-end="url(#line-end-open-chevron)" stroke-dasharray="6 3"/>
  <circle cx="188.66" cy="34.00" r="10.00" fill="#1A1A2E"/>
  <path d="M 188.66 44.00 L 188.66 114.00" fill="none" stroke="#1A1A2E" stroke-width="1.50" marker-end="url(#line-end-filled-arrow)"/>
  <circle cx="188.66" cy="1512.00" r="10.00" fill="#1A1A2E"/>
  <circle cx="188.66" cy="1512.00" r="3.33" fill="white" stroke="#1A1A2E" stroke-width="1.50"/>
  <path d="M 105.24 1432.00 L 105.24 1463.00 A 4.00 4.00 0 0 0 109.24 1467.00 L 184.66 1467.00 A 4.00 4.00 0 0 1 188.66 1471.00 L 188.66 1502.00" fill="none" stroke="#1A1A2E" stroke-width="1.50" marker-end="url(#line-end-filled-arrow)"/>
  <path d="M 272.08 1432.00 L 272.08 1463.00 A 4.00 4.00 0 0 1 268.08 1467.00 L 192.66 1467.00 A 4.00 4.00 0 0 0 188.66 1471.00 L 188.66 1502.00" fill="none" stroke="#1A1A2E" stroke-width="1.50" marker-end="url(#line-end-filled-arrow)"/>
</svg>
