<svg xmlns="http://www.w3.org/2000/svg" width="364.70" height="1358.00" viewBox="0 0 364.70 1358.00">
  <defs>
    <marker id="line-end-open-chevron" markerWidth="10" markerHeight="7" refX="9" refY="3.5" orient="auto">
      <polyline points="0 0, 10 3.5, 0 7" fill="none" stroke="#1A1A2E" stroke-width="1.50"/>
    </marker>
    <marker id="line-end-hollow-triangle" markerWidth="10" markerHeight="7" refX="9" refY="3.5" orient="auto">
      <polygon points="0 0, 10 3.5, 0 7" fill="#FFFFFF" stroke="#1A1A2E" stroke-width="1.50"/>
    </marker>
    <marker id="line-end-filled-arrow" markerWidth="10" markerHeight="7" refX="9" refY="3.5" orient="auto">
      <polygon points="0 0, 10 3.5, 0 7" fill="#1A1A2E" stroke="#1A1A2E" stroke-width="1.50"/>
    </marker>
    <marker id="line-end-hollow-triangle-crossbar" markerWidth="10" markerHeight="7" refX="9" refY="3.5" orient="auto">
      <polygon points="0 0, 10 3.5, 0 7" fill="#FFFFFF" stroke="#1A1A2E" stroke-width="1.50"/>
      <line x1="7" y1="0" x2="7" y2="7" stroke="#1A1A2E" stroke-width="1.50"/>
    </marker>
    <marker id="line-end-hollow-diamond" markerWidth="14" markerHeight="8" refX="13" refY="4" orient="auto">
      <polygon points="1 4, 7 0, 13 4, 7 8" fill="#FFFFFF" stroke="#1A1A2E" stroke-width="1.50"/>
    </marker>
    <marker id="line-end-filled-diamond" markerWidth="14" markerHeight="8" refX="13" refY="4" orient="auto">
      <polygon points="1 4, 7 0, 13 4, 7 8" fill="#1A1A2E" stroke="#1A1A2E" stroke-width="1.50"/>
    </marker>
    <marker id="line-end-circle" markerWidth="10" markerHeight="10" refX="9" refY="5" orient="auto">
      <circle cx="5" cy="5" r="4" fill="#FFFFFF" stroke="#1A1A2E" stroke-width="1.50"/>
    </marker>
    <marker id="line-end-bar" markerWidth="4" markerHeight="12" refX="2" refY="6" orient="auto">
      <line x1="2" y1="0" x2="2" y2="12" stroke="#1A1A2E" stroke-width="1.50"/>
    </marker>
    <filter id="label-bg" x="-0.05" y="-0.05" width="1.1" height="1.1">
      <feFlood flood-color="#FFFFFF"/>
      <feComposite in="SourceGraphic" operator="over"/>
    </filter>
  </defs>
  <rect x="133.86" y="114.00" width="110.00" height="50.00" fill="#EEF4FF" stroke="#1A1A2E" stroke-width="1.50" rx="8.00" ry="8.00"/>
  <text x="188.86" y="126.00" font-family="Noto Sans, sans-serif" font-size="12.00" font-style="italic" fill="#1A1A2E" text-anchor="middle" dominant-baseline="middle">«action»</text>
  <text x="188.86" y="145.00" font-family="Noto Sans, sans-serif" font-size="14.00" font-weight="bold" fill="#1A1A2E" text-anchor="middle" dominant-baseline="middle">checkout</text>
  <rect x="94.40" y="234.00" width="188.92" height="50.00" fill="#EEF4FF" stroke="#1A1A2E" stroke-width="1.50" rx="8.00" ry="8.00"/>
  <text x="188.86" y="246.00" font-family="Noto Sans, sans-serif" font-size="12.00" font-style="italic" fill="#1A1A2E" text-anchor="middle" dominant-baseline="middle">«action»</text>
  <text x="188.86" y="265.00" font-family="Noto Sans, sans-serif" font-size="14.00" font-weight="bold" fill="#1A1A2E" text-anchor="middle" dominant-baseline="middle">restoreDependencies</text>
  <rect x="133.86" y="354.00" width="110.00" height="50.00" fill="#EEF4FF" stroke="#1A1A2E" stroke-width="1.50" rx="8.00" ry="8.00"/>
  <text x="188.86" y="366.00" font-family="Noto Sans, sans-serif" font-size="12.00" font-style="italic" fill="#1A1A2E" text-anchor="middle" dominant-baseline="middle">«action»</text>
  <text x="188.86" y="385.00" font-family="Noto Sans, sans-serif" font-size="14.00" font-weight="bold" fill="#1A1A2E" text-anchor="middle" dominant-baseline="middle">build</text>
  <rect x="59.32" y="474.00" width="110.00" height="50.00" fill="#EEF4FF" stroke="#1A1A2E" stroke-width="1.50" rx="8.00" ry="8.00"/>
  <text x="114.32" y="486.00" font-family="Noto Sans, sans-serif" font-size="12.00" font-style="italic" fill="#1A1A2E" text-anchor="middle" dominant-baseline="middle">«action»</text>
  <text x="114.32" y="505.00" font-family="Noto Sans, sans-serif" font-size="14.00" font-weight="bold" fill="#1A1A2E" text-anchor="middle" dominant-baseline="middle">unitTest</text>
  <rect x="37.22" y="594.00" width="154.20" height="50.00" fill="#EEF4FF" stroke="#1A1A2E" stroke-width="1.50" rx="8.00" ry="8.00"/>
  <text x="114.32" y="606.00" font-family="Noto Sans, sans-serif" font-size="12.00" font-style="italic" fill="#1A1A2E" text-anchor="middle" dominant-baseline="middle">«action»</text>
  <text x="114.32" y="625.00" font-family="Noto Sans, sans-serif" font-size="14.00" font-weight="bold" fill="#1A1A2E" text-anchor="middle" dominant-baseline="middle">integrationTest</text>
  <rect x="199.32" y="474.00" width="128.16" height="50.00" fill="#EEF4FF" stroke="#1A1A2E" stroke-width="1.50" rx="8.00" ry="8.00"/>
  <text x="263.40" y="486.00" font-family="Noto Sans, sans-serif" font-size="12.00" font-style="italic" fill="#1A1A2E" text-anchor="middle" dominant-baseline="middle">«action»</text>
  <text x="263.40" y="505.00" font-family="Noto Sans, sans-serif" font-size="14.00" font-weight="bold" fill="#1A1A2E" text-anchor="middle" dominant-baseline="middle">securityScan</text>
  <rect x="129.12" y="714.00" width="119.48" height="50.00" fill="#EEF4FF" stroke="#1A1A2E" stroke-width="1.50" rx="8.00" ry="8.00"/>
  <text x="188.86" y="726.00" font-family="Noto Sans, sans-serif" font-size="12.00" font-style="italic" fill="#1A1A2E" text-anchor="middle" dominant-baseline="middle">«action»</text>
  <text x="188.86" y="745.00" font-family="Noto Sans, sans-serif" font-size="14.00" font-weight="bold" fill="#1A1A2E" text-anchor="middle" dominant-baseline="middle">qualityGate</text>
  <rect x="120.44" y="834.00" width="136.84" height="50.00" fill="#EEF4FF" stroke="#1A1A2E" stroke-width="1.50" rx="8.00" ry="8.00"/>
  <text x="188.86" y="846.00" font-family="Noto Sans, sans-serif" font-size="12.00" font-style="italic" fill="#1A1A2E" text-anchor="middle" dominant-baseline="middle">«action»</text>
  <text x="188.86" y="865.00" font-family="Noto Sans, sans-serif" font-size="14.00" font-weight="bold" fill="#1A1A2E" text-anchor="middle" dominant-baseline="middle">deployStaging</text>
  <rect x="133.86" y="954.00" width="110.00" height="50.00" fill="#EEF4FF" stroke="#1A1A2E" stroke-width="1.50" rx="8.00" ry="8.00"/>
  <text x="188.86" y="966.00" font-family="Noto Sans, sans-serif" font-size="12.00" font-style="italic" fill="#1A1A2E" text-anchor="middle" dominant-baseline="middle">«action»</text>
  <text x="188.86" y="985.00" font-family="Noto Sans, sans-serif" font-size="14.00" font-weight="bold" fill="#1A1A2E" text-anchor="middle" dominant-baseline="middle">smokeTest</text>
  <rect x="24.00" y="1074.00" width="162.88" height="50.00" fill="#EEF4FF" stroke="#1A1A2E" stroke-width="1.50" rx="8.00" ry="8.00"/>
  <text x="105.44" y="1086.00" font-family="Noto Sans, sans-serif" font-size="12.00" font-style="italic" fill="#1A1A2E" text-anchor="middle" dominant-baseline="middle">«action»</text>
  <text x="105.44" y="1105.00" font-family="Noto Sans, sans-serif" font-size="14.00" font-weight="bold" fill="#1A1A2E" text-anchor="middle" dominant-baseline="middle">deployProduction</text>
  <rect x="217.28" y="1074.00" width="110.00" height="50.00" fill="#EEF4FF" stroke="#1A1A2E" stroke-width="1.50" rx="8.00" ry="8.00"/>
  <text x="272.28" y="1086.00" font-family="Noto Sans, sans-serif" font-size="12.00" font-style="italic" fill="#1A1A2E" text-anchor="middle" dominant-baseline="middle">«action»</text>
  <text x="272.28" y="1105.00" font-family="Noto Sans, sans-serif" font-size="14.00" font-weight="bold" fill="#1A1A2E" text-anchor="middle" dominant-baseline="middle">rollback</text>
  <rect x="37.02" y="1194.00" width="136.84" height="50.00" fill="#EEF4FF" stroke="#1A1A2E" stroke-width="1.50" rx="8.00" ry="8.00"/>
  <text x="105.44" y="1206.00" font-family="Noto Sans, sans-serif" font-size="12.00" font-style="italic" fill="#1A1A2E" text-anchor="middle" dominant-baseline="middle">«action»</text>
  <text x="105.44" y="1225.00" font-family="Noto Sans, sans-serif" font-size="14.00" font-weight="bold" fill="#1A1A2E" text-anchor="middle" dominant-baseline="middle">notifySuccess</text>
  <rect x="203.86" y="1194.00" width="136.84" height="50.00" fill="#EEF4FF" stroke="#1A1A2E" stroke-width="1.50" rx="8.00" ry="8.00"/>
  <text x="272.28" y="1206.00" font-family="Noto Sans, sans-serif" font-size="12.00" font-style="italic" fill="#1A1A2E" text-anchor="middle" dominant-baseline="middle">«action»</text>
  <text x="272.28" y="1225.00" font-family="Noto Sans, sans-serif" font-size="14.00" font-weight="bold" fill="#1A1A2E" text-anchor="middle" dominant-baseline="middle">notifyFailure</text>
  <path d="M 188.86 164.00 L 188.86 234.00" fill="none" stroke="#1A1A2E" stroke-width="1.50" marker-end="url(#line-end-open-chevron)" stroke-dasharray="6 3"/>
  <path d="M 188.86 284.00 L 188.86 354.00" fill="none" stroke="#1A1A2E" stroke-width="1.50" marker-end="url(#line-end-open-chevron)" stroke-dasharray="6 3"/>
  <path d="M 143.86 404.00 L 143.86 410.00 A 4.00 4.00 0 0 1 139.86 414.00 L 118.32 414.00 A 4.00 4.00 0 0 0 114.32 418.00 L 114.32 474.00" fill="none" stroke="#1A1A2E" stroke-width="1.50" marker-end="url(#line-end-open-chevron)" stroke-dasharray="6 3"/>
  <path d="M 233.86 404.00 L 233.86 410.00 A 4.00 4.00 0 0 0 237.86 414.00 L 259.40 414.00 A 4.00 4.00 0 0 1 263.40 418.00 L 263.40 474.00" fill="none" stroke="#1A1A2E" stroke-width="1.50" marker-end="url(#line-end-open-chevron)" stroke-dasharray="6 3"/>
  <path d="M 114.32 524.00 L 114.32 594.00" fill="none" stroke="#1A1A2E" stroke-width="1.50" marker-end="url(#line-end-open-chevron)" stroke-dasharray="6 3"/>
  <path d="M 114.32 644.00 L 114.32 650.00 A 4.00 4.00 0 0 0 118.32 654.00 L 135.12 654.00 A 4.00 4.00 0 0 1 139.12 658.00 L 139.12 714.00" fill="none" stroke="#1A1A2E" stroke-width="1.50" marker-end="url(#line-end-open-chevron)" stroke-dasharray="6 3"/>
  <path d="M 263.40 524.00 L 263.40 650.00 A 4.00 4.00 0 0 1 259.40 654.00 L 242.60 654.00 A 4.00 4.00 0 0 0 238.60 658.00 L 238.60 714.00" fill="none" stroke="#1A1A2E" stroke-width="1.50" marker-end="url(#line-end-open-chevron)" stroke-dasharray="6 3"/>
  <path d="M 188.86 764.00 L 188.86 834.00" fill="none" stroke="#1A1A2E" stroke-width="1.50" marker-end="url(#line-end-open-chevron)" stroke-dasharray="6 3"/>
  <path d="M 188.86 884.00 L 188.86 954.00" fill="none" stroke="#1A1A2E" stroke-width="1.50" marker-end="url(#line-end-open-chevron)" stroke-dasharray="6 3"/>
  <path d="M 143.86 1004.00 L 143.86 1010.00 A 4.00 4.00 0 0 1 139.86 1014.00 L 109.44 1014.00 A 4.00 4.00 0 0 0 105.44 1018.00 L 105.44 1074.00" fill="none" stroke="#1A1A2E" stroke-width="1.50" marker-end="url(#line-end-open-chevron)" stroke-dasharray="6 3"/>
  <path d="M 233.86 1004.00 L 233.86 1010.00 A 4.00 4.00 0 0 0 237.86 1014.00 L 268.28 1014.00 A 4.00 4.00 0 0 1 272.28 1018.00 L 272.28 1074.00" fill="none" stroke="#1A1A2E" stroke-width="1.50" marker-end="url(#line-end-open-chevron)" stroke-dasharray="6 3"/>
  <path d="M 105.44 1124.00 L 105.44 1194.00" fill="none" stroke="#1A1A2E" stroke-width="1.50" marker-end="url(#line-end-open-chevron)" stroke-dasharray="6 3"/>
  <path d="M 272.28 1124.00 L 272.28 1194.00" fill="none" stroke="#1A1A2E" stroke-width="1.50" marker-end="url(#line-end-open-chevron)" stroke-dasharray="6 3"/>
  <circle cx="188.86" cy="34.00" r="10.00" fill="#1A1A2E"/>
  <path d="M 188.86 44.00 L 188.86 114.00" fill="none" stroke="#1A1A2E" stroke-width="1.50" marker-end="url(#line-end-filled-arrow)"/>
  <circle cx="188.86" cy="1324.00" r="10.00" fill="#1A1A2E"/>
  <circle cx="188.86" cy="1324.00" r="3.33" fill="white" stroke="#1A1A2E" stroke-width="1.50"/>
  <path d="M 105.44 1244.00 L 105.44 1275.00 A 4.00 4.00 0 0 0 109.44 1279.00 L 184.86 1279.00 A 4.00 4.00 0 0 1 188.86 1283.00 L 188.86 1314.00" fill="none" stroke="#1A1A2E" stroke-width="1.50" marker-end="url(#line-end-filled-arrow)"/>
  <path d="M 272.28 1244.00 L 272.28 1275.00 A 4.00 4.00 0 0 1 268.28 1279.00 L 192.86 1279.00 A 4.00 4.00 0 0 0 188.86 1283.00 L 188.86 1314.00" fill="none" stroke="#1A1A2E" stroke-width="1.50" marker-end="url(#line-end-filled-arrow)"/>
</svg>
