<svg xmlns="http://www.w3.org/2000/svg" width="349.68" height="1026.00" viewBox="0 0 349.68 1026.00">
  <defs>
    <marker id="arrowhead-open" markerWidth="10" markerHeight="7" refX="9" refY="3.5" orient="auto">
      <polygon points="0 0, 10 3.5, 0 7" fill="none" stroke="#1A1A2E" stroke-width="1.50"/>
    </marker>
    <marker id="arrowhead-filled" markerWidth="10" markerHeight="7" refX="9" refY="3.5" orient="auto">
      <polygon points="0 0, 10 3.5, 0 7" fill="#1A1A2E" stroke="#1A1A2E" stroke-width="1.50"/>
    </marker>
    <marker id="arrowhead-diamond" markerWidth="14" markerHeight="8" refX="13" refY="4" orient="auto">
      <polygon points="1 4, 7 0, 13 4, 7 8" fill="none" stroke="#1A1A2E" stroke-width="1.50"/>
    </marker>
    <marker id="arrowhead-filled-diamond" markerWidth="14" markerHeight="8" refX="13" refY="4" orient="auto">
      <polygon points="1 4, 7 0, 13 4, 7 8" fill="#1A1A2E" stroke="#1A1A2E" stroke-width="1.50"/>
    </marker>
    <marker id="arrowhead-circle" markerWidth="10" markerHeight="10" refX="9" refY="5" orient="auto">
      <circle cx="5" cy="5" r="4" fill="none" stroke="#1A1A2E" stroke-width="1.50"/>
    </marker>
    <marker id="arrowhead-bar" markerWidth="4" markerHeight="12" refX="2" refY="6" orient="auto">
      <line x1="2" y1="0" x2="2" y2="12" stroke="#1A1A2E" stroke-width="1.50"/>
    </marker>
    <filter id="label-bg" x="-0.05" y="-0.05" width="1.1" height="1.1">
      <feFlood flood-color="#FFFFFF"/>
      <feComposite in="SourceGraphic" operator="over"/>
    </filter>
  </defs>
  <rect x="24.00" y="74.00" width="110.00" height="50.00" fill="#EEF4FF" stroke="#1A1A2E" stroke-width="1.50" rx="8.00" ry="8.00"/>
  <text x="79.00" y="86.00" font-family="Noto Sans, sans-serif" font-size="12.00" font-style="italic" fill="#1A1A2E" text-anchor="middle" dominant-baseline="middle">«action»</text>
  <text x="79.00" y="105.00" font-family="Noto Sans, sans-serif" font-size="14.00" font-weight="bold" fill="#1A1A2E" text-anchor="middle" dominant-baseline="middle">checkout</text>
  <rect x="24.00" y="166.00" width="188.92" height="50.00" fill="#EEF4FF" stroke="#1A1A2E" stroke-width="1.50" rx="8.00" ry="8.00"/>
  <text x="118.46" y="178.00" font-family="Noto Sans, sans-serif" font-size="12.00" font-style="italic" fill="#1A1A2E" text-anchor="middle" dominant-baseline="middle">«action»</text>
  <text x="118.46" y="197.00" font-family="Noto Sans, sans-serif" font-size="14.00" font-weight="bold" fill="#1A1A2E" text-anchor="middle" dominant-baseline="middle">restoreDependencies</text>
  <rect x="24.00" y="258.00" width="110.00" height="50.00" fill="#EEF4FF" stroke="#1A1A2E" stroke-width="1.50" rx="8.00" ry="8.00"/>
  <text x="79.00" y="270.00" font-family="Noto Sans, sans-serif" font-size="12.00" font-style="italic" fill="#1A1A2E" text-anchor="middle" dominant-baseline="middle">«action»</text>
  <text x="79.00" y="289.00" font-family="Noto Sans, sans-serif" font-size="14.00" font-weight="bold" fill="#1A1A2E" text-anchor="middle" dominant-baseline="middle">build</text>
  <rect x="24.00" y="350.00" width="110.00" height="50.00" fill="#EEF4FF" stroke="#1A1A2E" stroke-width="1.50" rx="8.00" ry="8.00"/>
  <text x="79.00" y="362.00" font-family="Noto Sans, sans-serif" font-size="12.00" font-style="italic" fill="#1A1A2E" text-anchor="middle" dominant-baseline="middle">«action»</text>
  <text x="79.00" y="381.00" font-family="Noto Sans, sans-serif" font-size="14.00" font-weight="bold" fill="#1A1A2E" text-anchor="middle" dominant-baseline="middle">unitTest</text>
  <rect x="24.00" y="442.00" width="154.20" height="50.00" fill="#EEF4FF" stroke="#1A1A2E" stroke-width="1.50" rx="8.00" ry="8.00"/>
  <text x="101.10" y="454.00" font-family="Noto Sans, sans-serif" font-size="12.00" font-style="italic" fill="#1A1A2E" text-anchor="middle" dominant-baseline="middle">«action»</text>
  <text x="101.10" y="473.00" font-family="Noto Sans, sans-serif" font-size="14.00" font-weight="bold" fill="#1A1A2E" text-anchor="middle" dominant-baseline="middle">integrationTest</text>
  <rect x="162.00" y="350.00" width="128.16" height="50.00" fill="#EEF4FF" stroke="#1A1A2E" stroke-width="1.50" rx="8.00" ry="8.00"/>
  <text x="226.08" y="362.00" font-family="Noto Sans, sans-serif" font-size="12.00" font-style="italic" fill="#1A1A2E" text-anchor="middle" dominant-baseline="middle">«action»</text>
  <text x="226.08" y="381.00" font-family="Noto Sans, sans-serif" font-size="14.00" font-weight="bold" fill="#1A1A2E" text-anchor="middle" dominant-baseline="middle">securityScan</text>
  <rect x="24.00" y="534.00" width="119.48" height="50.00" fill="#EEF4FF" stroke="#1A1A2E" stroke-width="1.50" rx="8.00" ry="8.00"/>
  <text x="83.74" y="546.00" font-family="Noto Sans, sans-serif" font-size="12.00" font-style="italic" fill="#1A1A2E" text-anchor="middle" dominant-baseline="middle">«action»</text>
  <text x="83.74" y="565.00" font-family="Noto Sans, sans-serif" font-size="14.00" font-weight="bold" fill="#1A1A2E" text-anchor="middle" dominant-baseline="middle">qualityGate</text>
  <rect x="24.00" y="626.00" width="136.84" height="50.00" fill="#EEF4FF" stroke="#1A1A2E" stroke-width="1.50" rx="8.00" ry="8.00"/>
  <text x="92.42" y="638.00" font-family="Noto Sans, sans-serif" font-size="12.00" font-style="italic" fill="#1A1A2E" text-anchor="middle" dominant-baseline="middle">«action»</text>
  <text x="92.42" y="657.00" font-family="Noto Sans, sans-serif" font-size="14.00" font-weight="bold" fill="#1A1A2E" text-anchor="middle" dominant-baseline="middle">deployStaging</text>
  <rect x="24.00" y="718.00" width="110.00" height="50.00" fill="#EEF4FF" stroke="#1A1A2E" stroke-width="1.50" rx="8.00" ry="8.00"/>
  <text x="79.00" y="730.00" font-family="Noto Sans, sans-serif" font-size="12.00" font-style="italic" fill="#1A1A2E" text-anchor="middle" dominant-baseline="middle">«action»</text>
  <text x="79.00" y="749.00" font-family="Noto Sans, sans-serif" font-size="14.00" font-weight="bold" fill="#1A1A2E" text-anchor="middle" dominant-baseline="middle">smokeTest</text>
  <rect x="24.00" y="810.00" width="162.88" height="50.00" fill="#EEF4FF" stroke="#1A1A2E" stroke-width="1.50" rx="8.00" ry="8.00"/>
  <text x="105.44" y="822.00" font-family="Noto Sans, sans-serif" font-size="12.00" font-style="italic" fill="#1A1A2E" text-anchor="middle" dominant-baseline="middle">«action»</text>
  <text x="105.44" y="841.00" font-family="Noto Sans, sans-serif" font-size="14.00" font-weight="bold" fill="#1A1A2E" text-anchor="middle" dominant-baseline="middle">deployProduction</text>
  <rect x="214.88" y="810.00" width="110.00" height="50.00" fill="#EEF4FF" stroke="#1A1A2E" stroke-width="1.50" rx="8.00" ry="8.00"/>
  <text x="269.88" y="822.00" font-family="Noto Sans, sans-serif" font-size="12.00" font-style="italic" fill="#1A1A2E" text-anchor="middle" dominant-baseline="middle">«action»</text>
  <text x="269.88" y="841.00" font-family="Noto Sans, sans-serif" font-size="14.00" font-weight="bold" fill="#1A1A2E" text-anchor="middle" dominant-baseline="middle">rollback</text>
  <rect x="24.00" y="902.00" width="136.84" height="50.00" fill="#EEF4FF" stroke="#1A1A2E" stroke-width="1.50" rx="8.00" ry="8.00"/>
  <text x="92.42" y="914.00" font-family="Noto Sans, sans-serif" font-size="12.00" font-style="italic" fill="#1A1A2E" text-anchor="middle" dominant-baseline="middle">«action»</text>
  <text x="92.42" y="933.00" font-family="Noto Sans, sans-serif" font-size="14.00" font-weight="bold" fill="#1A1A2E" text-anchor="middle" dominant-baseline="middle">notifySuccess</text>
  <rect x="188.84" y="902.00" width="136.84" height="50.00" fill="#EEF4FF" stroke="#1A1A2E" stroke-width="1.50" rx="8.00" ry="8.00"/>
  <text x="257.26" y="914.00" font-family="Noto Sans, sans-serif" font-size="12.00" font-style="italic" fill="#1A1A2E" text-anchor="middle" dominant-baseline="middle">«action»</text>
  <text x="257.26" y="933.00" font-family="Noto Sans, sans-serif" font-size="14.00" font-weight="bold" fill="#1A1A2E" text-anchor="middle" dominant-baseline="middle">notifyFailure</text>
  <path d="M 79.00 124.00 L 79.00 138.00 A 4.00 4.00 0 0 0 83.00 142.00 L 114.46 142.00 A 4.00 4.00 0 0 1 118.46 146.00 L 118.46 166.00" fill="none" stroke="#1A1A2E" stroke-width="1.50" marker-end="url(#arrowhead-filled)"/>
  <path d="M 118.46 216.00 L 118.46 236.00 A 4.00 4.00 0 0 1 114.46 240.00 L 83.00 240.00 A 4.00 4.00 0 0 0 79.00 244.00 L 79.00 258.00" fill="none" stroke="#1A1A2E" stroke-width="1.50" marker-end="url(#arrowhead-filled)"/>
  <path d="M 79.00 308.00 L 79.00 350.00" fill="none" stroke="#1A1A2E" stroke-width="1.50" marker-end="url(#arrowhead-filled)"/>
  <path d="M 79.00 308.00 L 79.00 322.00 A 4.00 4.00 0 0 0 83.00 326.00 L 222.08 326.00 A 4.00 4.00 0 0 1 226.08 330.00 L 226.08 350.00" fill="none" stroke="#1A1A2E" stroke-width="1.50" marker-end="url(#arrowhead-filled)"/>
  <path d="M 79.00 400.00 L 79.00 414.00 A 4.00 4.00 0 0 0 83.00 418.00 L 97.10 418.00 A 4.00 4.00 0 0 1 101.10 422.00 L 101.10 442.00" fill="none" stroke="#1A1A2E" stroke-width="1.50" marker-end="url(#arrowhead-filled)"/>
  <path d="M 101.10 492.00 L 101.10 512.00 A 4.00 4.00 0 0 1 97.10 516.00 L 87.74 516.00 A 4.00 4.00 0 0 0 83.74 520.00 L 83.74 534.00" fill="none" stroke="#1A1A2E" stroke-width="1.50" marker-end="url(#arrowhead-filled)"/>
  <path d="M 226.08 400.00 L 226.08 512.00 A 4.00 4.00 0 0 1 222.08 516.00 L 87.74 516.00 A 4.00 4.00 0 0 0 83.74 520.00 L 83.74 534.00" fill="none" stroke="#1A1A2E" stroke-width="1.50" marker-end="url(#arrowhead-filled)"/>
  <path d="M 83.74 584.00 L 83.74 598.00 A 4.00 4.00 0 0 0 87.74 602.00 L 88.42 602.00 A 4.00 4.00 0 0 1 92.42 606.00 L 92.42 626.00" fill="none" stroke="#1A1A2E" stroke-width="1.50" marker-end="url(#arrowhead-filled)"/>
  <path d="M 92.42 676.00 L 92.42 696.00 A 4.00 4.00 0 0 1 88.42 700.00 L 83.00 700.00 A 4.00 4.00 0 0 0 79.00 704.00 L 79.00 718.00" fill="none" stroke="#1A1A2E" stroke-width="1.50" marker-end="url(#arrowhead-filled)"/>
  <path d="M 79.00 768.00 L 79.00 788.00 A 4.00 4.00 0 0 0 83.00 792.00 L 101.44 792.00 A 4.00 4.00 0 0 1 105.44 796.00 L 105.44 810.00" fill="none" stroke="#1A1A2E" stroke-width="1.50" marker-end="url(#arrowhead-filled)"/>
  <path d="M 79.00 768.00 L 79.00 782.00 A 4.00 4.00 0 0 0 83.00 786.00 L 265.88 786.00 A 4.00 4.00 0 0 1 269.88 790.00 L 269.88 810.00" fill="none" stroke="#1A1A2E" stroke-width="1.50" marker-end="url(#arrowhead-filled)"/>
  <path d="M 105.44 860.00 L 105.44 880.00 A 4.00 4.00 0 0 1 101.44 884.00 L 96.42 884.00 A 4.00 4.00 0 0 0 92.42 888.00 L 92.42 902.00" fill="none" stroke="#1A1A2E" stroke-width="1.50" marker-end="url(#arrowhead-filled)"/>
  <path d="M 269.88 860.00 L 269.88 880.00 A 4.00 4.00 0 0 1 265.88 884.00 L 261.26 884.00 A 4.00 4.00 0 0 0 257.26 888.00 L 257.26 902.00" fill="none" stroke="#1A1A2E" stroke-width="1.50" marker-end="url(#arrowhead-filled)"/>
  <circle cx="174.84" cy="25.00" r="10.00" fill="#1A1A2E"/>
  <path d="M 174.84 35.00 L 174.84 50.50 A 4.00 4.00 0 0 1 170.84 54.50 L 83.00 54.50 A 4.00 4.00 0 0 0 79.00 58.50 L 79.00 74.00" fill="none" stroke="#1A1A2E" stroke-width="1.50" marker-end="url(#arrowhead-filled)"/>
  <circle cx="174.84" cy="1001.00" r="10.00" fill="#1A1A2E"/>
  <circle cx="174.84" cy="1001.00" r="3.33" fill="white" stroke="#1A1A2E" stroke-width="1.50"/>
  <path d="M 92.42 952.00 L 92.42 967.50 A 4.00 4.00 0 0 0 96.42 971.50 L 170.84 971.50 A 4.00 4.00 0 0 1 174.84 975.50 L 174.84 991.00" fill="none" stroke="#1A1A2E" stroke-width="1.50" marker-end="url(#arrowhead-filled)"/>
  <path d="M 257.26 952.00 L 257.26 967.50 A 4.00 4.00 0 0 1 253.26 971.50 L 178.84 971.50 A 4.00 4.00 0 0 0 174.84 975.50 L 174.84 991.00" fill="none" stroke="#1A1A2E" stroke-width="1.50" marker-end="url(#arrowhead-filled)"/>
</svg>
