<svg xmlns="http://www.w3.org/2000/svg" width="966.92" height="428.00" viewBox="0 0 966.92 428.00">
  <defs>
    <marker id="arrowhead-open" markerWidth="10" markerHeight="7" refX="9" refY="3.5" orient="auto">
      <polygon points="0 0, 10 3.5, 0 7" fill="none" stroke="#1A1A2E" stroke-width="1.50"/>
    </marker>
    <marker id="arrowhead-filled" markerWidth="10" markerHeight="7" refX="9" refY="3.5" orient="auto">
      <polygon points="0 0, 10 3.5, 0 7" fill="#1A1A2E" stroke="#1A1A2E" stroke-width="1.50"/>
    </marker>
    <marker id="arrowhead-open-crossbar" markerWidth="10" markerHeight="7" refX="9" refY="3.5" orient="auto">
      <polygon points="0 0, 10 3.5, 0 7" fill="none" stroke="#1A1A2E" stroke-width="1.50"/>
      <line x1="7" y1="0" x2="7" y2="7" stroke="#1A1A2E" stroke-width="1.50"/>
    </marker>
    <marker id="arrowhead-diamond" markerWidth="14" markerHeight="8" refX="13" refY="4" orient="auto">
      <polygon points="1 4, 7 0, 13 4, 7 8" fill="none" stroke="#1A1A2E" stroke-width="1.50"/>
    </marker>
    <marker id="arrowhead-filled-diamond" markerWidth="14" markerHeight="8" refX="13" refY="4" orient="auto">
      <polygon points="1 4, 7 0, 13 4, 7 8" fill="#1A1A2E" stroke="#1A1A2E" stroke-width="1.50"/>
    </marker>
    <marker id="arrowhead-circle" markerWidth="10" markerHeight="10" refX="9" refY="5" orient="auto">
      <circle cx="5" cy="5" r="4" fill="none" stroke="#1A1A2E" stroke-width="1.50"/>
    </marker>
    <marker id="arrowhead-bar" markerWidth="4" markerHeight="12" refX="2" refY="6" orient="auto">
      <line x1="2" y1="0" x2="2" y2="12" stroke="#1A1A2E" stroke-width="1.50"/>
    </marker>
    <filter id="label-bg" x="-0.05" y="-0.05" width="1.1" height="1.1">
      <feFlood flood-color="#FFFFFF"/>
      <feComposite in="SourceGraphic" operator="over"/>
    </filter>
  </defs>
  <rect x="0.00" y="0.00" width="966.92" height="428.00" fill="#FFFFFF" stroke="#1A1A2E" stroke-width="1.50"/>
  <text x="483.46" y="12.00" font-family="Noto Sans, sans-serif" font-size="12.00" font-style="italic" fill="#1A1A2E" text-anchor="middle" dominant-baseline="middle">«part def»</text>
  <text x="483.46" y="31.00" font-family="Noto Sans, sans-serif" font-size="14.00" font-weight="bold" fill="#1A1A2E" text-anchor="middle" dominant-baseline="middle">Workstation</text>
  <rect x="554.48" y="76.00" width="110.00" height="50.00" fill="#EEF4FF" stroke="#1A1A2E" stroke-width="1.50" rx="8.00" ry="8.00"/>
  <text x="609.48" y="88.00" font-family="Noto Sans, sans-serif" font-size="12.00" font-style="italic" fill="#1A1A2E" text-anchor="middle" dominant-baseline="middle">«part»</text>
  <text x="609.48" y="107.00" font-family="Noto Sans, sans-serif" font-size="14.00" font-weight="bold" fill="#1A1A2E" text-anchor="middle" dominant-baseline="middle">cpu : Cpu</text>
  <rect x="818.76" y="76.00" width="116.16" height="50.00" fill="#EEF4FF" stroke="#1A1A2E" stroke-width="1.50" rx="8.00" ry="8.00"/>
  <text x="876.84" y="88.00" font-family="Noto Sans, sans-serif" font-size="12.00" font-style="italic" fill="#1A1A2E" text-anchor="middle" dominant-baseline="middle">«part»</text>
  <text x="876.84" y="107.00" font-family="Noto Sans, sans-serif" font-size="14.00" font-weight="bold" fill="#1A1A2E" text-anchor="middle" dominant-baseline="middle">memory : Ram</text>
  <rect x="554.48" y="346.00" width="133.52" height="50.00" fill="#EEF4FF" stroke="#1A1A2E" stroke-width="1.50" rx="8.00" ry="8.00"/>
  <text x="621.24" y="358.00" font-family="Noto Sans, sans-serif" font-size="12.00" font-style="italic" fill="#1A1A2E" text-anchor="middle" dominant-baseline="middle">«part»</text>
  <text x="621.24" y="377.00" font-family="Noto Sans, sans-serif" font-size="14.00" font-weight="bold" fill="#1A1A2E" text-anchor="middle" dominant-baseline="middle">graphics : Gpu</text>
  <rect x="554.48" y="186.00" width="124.84" height="50.00" fill="#EEF4FF" stroke="#1A1A2E" stroke-width="1.50" rx="8.00" ry="8.00"/>
  <text x="616.90" y="198.00" font-family="Noto Sans, sans-serif" font-size="12.00" font-style="italic" fill="#1A1A2E" text-anchor="middle" dominant-baseline="middle">«part»</text>
  <text x="616.90" y="217.00" font-family="Noto Sans, sans-serif" font-size="14.00" font-weight="bold" fill="#1A1A2E" text-anchor="middle" dominant-baseline="middle">storage : Ssd</text>
  <rect x="32.00" y="76.00" width="159.56" height="50.00" fill="#EEF4FF" stroke="#1A1A2E" stroke-width="1.50" rx="8.00" ry="8.00"/>
  <text x="111.78" y="88.00" font-family="Noto Sans, sans-serif" font-size="12.00" font-style="italic" fill="#1A1A2E" text-anchor="middle" dominant-baseline="middle">«part»</text>
  <text x="111.78" y="107.00" font-family="Noto Sans, sans-serif" font-size="14.00" font-weight="bold" fill="#1A1A2E" text-anchor="middle" dominant-baseline="middle">psu : PowerSupply</text>
  <rect x="554.48" y="266.00" width="194.28" height="50.00" fill="#EEF4FF" stroke="#1A1A2E" stroke-width="1.50" rx="8.00" ry="8.00"/>
  <text x="651.62" y="278.00" font-family="Noto Sans, sans-serif" font-size="12.00" font-style="italic" fill="#1A1A2E" text-anchor="middle" dominant-baseline="middle">«part»</text>
  <text x="651.62" y="297.00" font-family="Noto Sans, sans-serif" font-size="14.00" font-weight="bold" fill="#1A1A2E" text-anchor="middle" dominant-baseline="middle">network : NetworkCard</text>
  <rect x="261.56" y="76.00" width="176.92" height="86.00" fill="#EEF4FF" stroke="#1A1A2E" stroke-width="1.50" rx="8.00" ry="8.00"/>
  <text x="350.02" y="88.00" font-family="Noto Sans, sans-serif" font-size="12.00" font-style="italic" fill="#1A1A2E" text-anchor="middle" dominant-baseline="middle">«part»</text>
  <text x="350.02" y="107.00" font-family="Noto Sans, sans-serif" font-size="14.00" font-weight="bold" fill="#1A1A2E" text-anchor="middle" dominant-baseline="middle">board : Motherboard</text>
  <rect x="434.48" y="82.00" width="8.00" height="8.00" fill="#1A1A2E"/>
  <rect x="550.48" y="97.00" width="8.00" height="8.00" fill="#1A1A2E"/>
  <path d="M 438.48 86.00 L 444.48 86.00 A 4.00 4.00 0 0 1 448.48 90.00 L 448.48 97.00 A 4.00 4.00 0 0 0 452.48 101.00 L 554.48 101.00" fill="none" stroke="#1A1A2E" stroke-width="1.50"/>
  <rect x="434.48" y="98.50" width="8.00" height="8.00" fill="#1A1A2E"/>
  <rect x="814.76" y="112.00" width="8.00" height="8.00" fill="#1A1A2E"/>
  <path d="M 438.48 102.50 L 460.48 102.50 A 4.00 4.00 0 0 1 464.48 106.50 L 464.48 152.00 A 4.00 4.00 0 0 0 468.48 156.00 L 550.48 156.00 A 4.00 4.00 0 0 0 558.48 156.00 L 770.76 156.00 A 4.00 4.00 0 0 0 774.76 152.00 L 774.76 120.00 A 4.00 4.00 0 0 1 778.76 116.00 L 818.76 116.00" fill="none" stroke="#1A1A2E" stroke-width="1.50"/>
  <rect x="434.48" y="148.00" width="8.00" height="8.00" fill="#1A1A2E"/>
  <rect x="550.48" y="352.00" width="8.00" height="8.00" fill="#1A1A2E"/>
  <path d="M 438.48 152.00 L 508.48 152.00 A 4.00 4.00 0 0 1 512.48 156.00 L 512.48 352.00 A 4.00 4.00 0 0 0 516.48 356.00 L 554.48 356.00" fill="none" stroke="#1A1A2E" stroke-width="1.50"/>
  <rect x="434.48" y="115.00" width="8.00" height="8.00" fill="#1A1A2E"/>
  <rect x="550.48" y="207.00" width="8.00" height="8.00" fill="#1A1A2E"/>
  <path d="M 438.48 119.00 L 476.48 119.00 A 4.00 4.00 0 0 1 480.48 123.00 L 480.48 207.00 A 4.00 4.00 0 0 0 484.48 211.00 L 554.48 211.00" fill="none" stroke="#1A1A2E" stroke-width="1.50"/>
  <rect x="434.48" y="131.50" width="8.00" height="8.00" fill="#1A1A2E"/>
  <rect x="550.48" y="287.00" width="8.00" height="8.00" fill="#1A1A2E"/>
  <path d="M 438.48 135.50 L 492.48 135.50 A 4.00 4.00 0 0 1 496.48 139.50 L 496.48 287.00 A 4.00 4.00 0 0 0 500.48 291.00 L 554.48 291.00" fill="none" stroke="#1A1A2E" stroke-width="1.50"/>
  <rect x="187.56" y="82.00" width="8.00" height="8.00" fill="#1A1A2E"/>
  <rect x="257.56" y="115.00" width="8.00" height="8.00" fill="#1A1A2E"/>
  <path d="M 191.56 86.00 L 197.56 86.00 A 4.00 4.00 0 0 1 201.56 90.00 L 201.56 115.00 A 4.00 4.00 0 0 0 205.56 119.00 L 261.56 119.00" fill="none" stroke="#1A1A2E" stroke-width="1.50"/>
  <rect x="187.56" y="112.00" width="8.00" height="8.00" fill="#1A1A2E"/>
  <rect x="550.48" y="382.00" width="8.00" height="8.00" fill="#1A1A2E"/>
  <path d="M 191.56 116.00 L 213.56 116.00 A 4.00 4.00 0 0 1 217.56 120.00 L 217.56 188.00 A 4.00 4.00 0 0 0 221.56 192.00 L 257.56 192.00 A 4.00 4.00 0 0 0 265.56 192.00 L 524.48 192.00 A 4.00 4.00 0 0 1 528.48 196.00 L 528.48 382.00 A 4.00 4.00 0 0 0 532.48 386.00 L 554.48 386.00" fill="none" stroke="#1A1A2E" stroke-width="1.50"/>
  <rect x="660.48" y="97.00" width="8.00" height="8.00" fill="#1A1A2E"/>
  <rect x="814.76" y="82.00" width="8.00" height="8.00" fill="#1A1A2E"/>
  <path d="M 664.48 101.00 L 754.76 101.00 A 4.00 4.00 0 0 0 758.76 97.00 L 758.76 90.00 A 4.00 4.00 0 0 1 762.76 86.00 L 818.76 86.00" fill="none" stroke="#1A1A2E" stroke-width="1.50"/>
</svg>
