<svg xmlns="http://www.w3.org/2000/svg" width="629.87" height="625.07" viewBox="0 0 629.87 625.07">
  <defs>
    <marker id="arrowhead-open" markerWidth="10" markerHeight="7" refX="9" refY="3.5" orient="auto">
      <polygon points="0 0, 10 3.5, 0 7" fill="none" stroke="#1A1A2E" stroke-width="1.50"/>
    </marker>
    <marker id="arrowhead-filled" markerWidth="10" markerHeight="7" refX="9" refY="3.5" orient="auto">
      <polygon points="0 0, 10 3.5, 0 7" fill="#1A1A2E" stroke="#1A1A2E" stroke-width="1.50"/>
    </marker>
    <marker id="arrowhead-open-crossbar" markerWidth="12" markerHeight="7" refX="11" refY="3.5" orient="auto">
      <polygon points="0 0, 10 3.5, 0 7" fill="none" stroke="#1A1A2E" stroke-width="1.50"/>
      <line x1="10" y1="0" x2="10" y2="7" stroke="#1A1A2E" stroke-width="1.50"/>
    </marker>
    <marker id="arrowhead-diamond" markerWidth="14" markerHeight="8" refX="13" refY="4" orient="auto">
      <polygon points="1 4, 7 0, 13 4, 7 8" fill="none" stroke="#1A1A2E" stroke-width="1.50"/>
    </marker>
    <marker id="arrowhead-filled-diamond" markerWidth="14" markerHeight="8" refX="13" refY="4" orient="auto">
      <polygon points="1 4, 7 0, 13 4, 7 8" fill="#1A1A2E" stroke="#1A1A2E" stroke-width="1.50"/>
    </marker>
    <marker id="arrowhead-circle" markerWidth="10" markerHeight="10" refX="9" refY="5" orient="auto">
      <circle cx="5" cy="5" r="4" fill="none" stroke="#1A1A2E" stroke-width="1.50"/>
    </marker>
    <marker id="arrowhead-bar" markerWidth="4" markerHeight="12" refX="2" refY="6" orient="auto">
      <line x1="2" y1="0" x2="2" y2="12" stroke="#1A1A2E" stroke-width="1.50"/>
    </marker>
    <filter id="label-bg" x="-0.05" y="-0.05" width="1.1" height="1.1">
      <feFlood flood-color="#FFFFFF"/>
      <feComposite in="SourceGraphic" operator="over"/>
    </filter>
  </defs>
  <rect x="0.00" y="0.00" width="629.87" height="625.07" fill="#FFFFFF" stroke="#1A1A2E" stroke-width="1.50"/>
  <text x="314.94" y="12.00" font-family="Noto Sans, sans-serif" font-size="12.00" font-style="italic" fill="#1A1A2E" text-anchor="middle" dominant-baseline="middle">«part def»</text>
  <text x="314.94" y="31.00" font-family="Noto Sans, sans-serif" font-size="14.00" font-weight="bold" fill="#1A1A2E" text-anchor="middle" dominant-baseline="middle">Workstation</text>
  <rect x="478.67" y="379.11" width="110.00" height="50.00" fill="#EEF4FF" stroke="#1A1A2E" stroke-width="1.50" rx="8.00" ry="8.00"/>
  <text x="533.67" y="391.11" font-family="Noto Sans, sans-serif" font-size="12.00" font-style="italic" fill="#1A1A2E" text-anchor="middle" dominant-baseline="middle">«part»</text>
  <text x="533.67" y="410.11" font-family="Noto Sans, sans-serif" font-size="14.00" font-weight="bold" fill="#1A1A2E" text-anchor="middle" dominant-baseline="middle">cpu : Cpu</text>
  <rect x="477.71" y="247.95" width="116.16" height="50.00" fill="#EEF4FF" stroke="#1A1A2E" stroke-width="1.50" rx="8.00" ry="8.00"/>
  <text x="535.79" y="259.95" font-family="Noto Sans, sans-serif" font-size="12.00" font-style="italic" fill="#1A1A2E" text-anchor="middle" dominant-baseline="middle">«part»</text>
  <text x="535.79" y="278.95" font-family="Noto Sans, sans-serif" font-size="14.00" font-weight="bold" fill="#1A1A2E" text-anchor="middle" dominant-baseline="middle">memory : Ram</text>
  <rect x="49.64" y="372.99" width="133.52" height="50.00" fill="#EEF4FF" stroke="#1A1A2E" stroke-width="1.50" rx="8.00" ry="8.00"/>
  <text x="116.40" y="384.99" font-family="Noto Sans, sans-serif" font-size="12.00" font-style="italic" fill="#1A1A2E" text-anchor="middle" dominant-baseline="middle">«part»</text>
  <text x="116.40" y="403.99" font-family="Noto Sans, sans-serif" font-size="14.00" font-weight="bold" fill="#1A1A2E" text-anchor="middle" dominant-baseline="middle">graphics : Gpu</text>
  <rect x="259.46" y="539.07" width="124.84" height="50.00" fill="#EEF4FF" stroke="#1A1A2E" stroke-width="1.50" rx="8.00" ry="8.00"/>
  <text x="321.88" y="551.07" font-family="Noto Sans, sans-serif" font-size="12.00" font-style="italic" fill="#1A1A2E" text-anchor="middle" dominant-baseline="middle">«part»</text>
  <text x="321.88" y="570.07" font-family="Noto Sans, sans-serif" font-size="14.00" font-weight="bold" fill="#1A1A2E" text-anchor="middle" dominant-baseline="middle">storage : Ssd</text>
  <rect x="36.00" y="239.98" width="159.56" height="50.00" fill="#EEF4FF" stroke="#1A1A2E" stroke-width="1.50" rx="8.00" ry="8.00"/>
  <text x="115.78" y="251.98" font-family="Noto Sans, sans-serif" font-size="12.00" font-style="italic" fill="#1A1A2E" text-anchor="middle" dominant-baseline="middle">«part»</text>
  <text x="115.78" y="270.98" font-family="Noto Sans, sans-serif" font-size="14.00" font-weight="bold" fill="#1A1A2E" text-anchor="middle" dominant-baseline="middle">psu : PowerSupply</text>
  <rect x="233.26" y="80.00" width="194.28" height="50.00" fill="#EEF4FF" stroke="#1A1A2E" stroke-width="1.50" rx="8.00" ry="8.00"/>
  <text x="330.40" y="92.00" font-family="Noto Sans, sans-serif" font-size="12.00" font-style="italic" fill="#1A1A2E" text-anchor="middle" dominant-baseline="middle">«part»</text>
  <text x="330.40" y="111.00" font-family="Noto Sans, sans-serif" font-size="14.00" font-weight="bold" fill="#1A1A2E" text-anchor="middle" dominant-baseline="middle">network : NetworkCard</text>
  <rect x="240.56" y="309.10" width="176.92" height="50.00" fill="#EEF4FF" stroke="#1A1A2E" stroke-width="1.50" rx="8.00" ry="8.00"/>
  <text x="329.02" y="321.10" font-family="Noto Sans, sans-serif" font-size="12.00" font-style="italic" fill="#1A1A2E" text-anchor="middle" dominant-baseline="middle">«part»</text>
  <text x="329.02" y="340.10" font-family="Noto Sans, sans-serif" font-size="14.00" font-weight="bold" fill="#1A1A2E" text-anchor="middle" dominant-baseline="middle">board : Motherboard</text>
  <rect x="474.67" y="400.11" width="8.00" height="8.00" fill="#1A1A2E"/>
  <rect x="529.67" y="375.11" width="8.00" height="8.00" fill="#1A1A2E"/>
  <rect x="473.71" y="268.95" width="8.00" height="8.00" fill="#1A1A2E"/>
  <rect x="529.67" y="293.95" width="8.00" height="8.00" fill="#1A1A2E"/>
  <rect x="179.16" y="393.99" width="8.00" height="8.00" fill="#1A1A2E"/>
  <rect x="112.40" y="368.99" width="8.00" height="8.00" fill="#1A1A2E"/>
  <rect x="317.88" y="535.07" width="8.00" height="8.00" fill="#1A1A2E"/>
  <rect x="191.56" y="260.98" width="8.00" height="8.00" fill="#1A1A2E"/>
  <rect x="112.40" y="285.98" width="8.00" height="8.00" fill="#1A1A2E"/>
  <rect x="325.02" y="126.00" width="8.00" height="8.00" fill="#1A1A2E"/>
  <rect x="413.48" y="338.43" width="8.00" height="8.00" fill="#1A1A2E"/>
  <rect x="413.48" y="321.77" width="8.00" height="8.00" fill="#1A1A2E"/>
  <rect x="236.56" y="338.43" width="8.00" height="8.00" fill="#1A1A2E"/>
  <rect x="317.88" y="355.10" width="8.00" height="8.00" fill="#1A1A2E"/>
  <rect x="325.02" y="305.10" width="8.00" height="8.00" fill="#1A1A2E"/>
  <rect x="236.56" y="321.77" width="8.00" height="8.00" fill="#1A1A2E"/>
  <path d="M 417.48 342.43 L 456.67 342.43 A 4.00 4.00 0 0 1 460.67 346.43 L 460.67 400.11 A 4.00 4.00 0 0 0 464.67 404.11 L 478.67 404.11" fill="none" stroke="#1A1A2E" stroke-width="1.50"/>
  <path d="M 417.48 325.77 L 455.71 325.77 A 4.00 4.00 0 0 0 459.71 321.77 L 459.71 276.95 A 4.00 4.00 0 0 1 463.71 272.95 L 477.71 272.95" fill="none" stroke="#1A1A2E" stroke-width="1.50"/>
  <path d="M 240.56 342.43 L 226.56 342.43 A 4.00 4.00 0 0 0 222.56 346.43 L 222.56 393.99 A 4.00 4.00 0 0 1 218.56 397.99 L 183.16 397.99" fill="none" stroke="#1A1A2E" stroke-width="1.50"/>
  <path d="M 321.88 359.10 L 321.88 539.07" fill="none" stroke="#1A1A2E" stroke-width="1.50"/>
  <path d="M 329.02 309.10 L 329.02 130.00" fill="none" stroke="#1A1A2E" stroke-width="1.50"/>
  <path d="M 195.56 264.98 L 209.56 264.98 A 4.00 4.00 0 0 1 213.56 268.98 L 213.56 321.77 A 4.00 4.00 0 0 0 217.56 325.77 L 240.56 325.77" fill="none" stroke="#1A1A2E" stroke-width="1.50"/>
  <path d="M 116.40 289.98 L 116.40 372.99" fill="none" stroke="#1A1A2E" stroke-width="1.50"/>
  <path d="M 533.67 379.11 L 533.67 297.95" fill="none" stroke="#1A1A2E" stroke-width="1.50"/>
</svg>
