<svg xmlns="http://www.w3.org/2000/svg" width="640.34" height="581.13" viewBox="0 0 640.34 581.13">
  <defs>
    <marker id="arrowhead-open" markerWidth="10" markerHeight="7" refX="9" refY="3.5" orient="auto">
      <polygon points="0 0, 10 3.5, 0 7" fill="none" stroke="#1A1A2E" stroke-width="1.50"/>
    </marker>
    <marker id="arrowhead-filled" markerWidth="10" markerHeight="7" refX="9" refY="3.5" orient="auto">
      <polygon points="0 0, 10 3.5, 0 7" fill="#1A1A2E" stroke="#1A1A2E" stroke-width="1.50"/>
    </marker>
    <marker id="arrowhead-open-crossbar" markerWidth="10" markerHeight="7" refX="9" refY="3.5" orient="auto">
      <polygon points="0 0, 10 3.5, 0 7" fill="none" stroke="#1A1A2E" stroke-width="1.50"/>
      <line x1="7" y1="0" x2="7" y2="7" stroke="#1A1A2E" stroke-width="1.50"/>
    </marker>
    <marker id="arrowhead-diamond" markerWidth="14" markerHeight="8" refX="13" refY="4" orient="auto">
      <polygon points="1 4, 7 0, 13 4, 7 8" fill="none" stroke="#1A1A2E" stroke-width="1.50"/>
    </marker>
    <marker id="arrowhead-filled-diamond" markerWidth="14" markerHeight="8" refX="13" refY="4" orient="auto">
      <polygon points="1 4, 7 0, 13 4, 7 8" fill="#1A1A2E" stroke="#1A1A2E" stroke-width="1.50"/>
    </marker>
    <marker id="arrowhead-circle" markerWidth="10" markerHeight="10" refX="9" refY="5" orient="auto">
      <circle cx="5" cy="5" r="4" fill="none" stroke="#1A1A2E" stroke-width="1.50"/>
    </marker>
    <marker id="arrowhead-bar" markerWidth="4" markerHeight="12" refX="2" refY="6" orient="auto">
      <line x1="2" y1="0" x2="2" y2="12" stroke="#1A1A2E" stroke-width="1.50"/>
    </marker>
    <filter id="label-bg" x="-0.05" y="-0.05" width="1.1" height="1.1">
      <feFlood flood-color="#FFFFFF"/>
      <feComposite in="SourceGraphic" operator="over"/>
    </filter>
  </defs>
  <rect x="0.00" y="0.00" width="640.34" height="581.13" fill="#FFFFFF" stroke="#1A1A2E" stroke-width="1.50"/>
  <text x="320.17" y="12.00" font-family="Noto Sans, sans-serif" font-size="12.00" font-style="italic" fill="#1A1A2E" text-anchor="middle" dominant-baseline="middle">«part def»</text>
  <text x="320.17" y="31.00" font-family="Noto Sans, sans-serif" font-size="14.00" font-weight="bold" fill="#1A1A2E" text-anchor="middle" dominant-baseline="middle">Workstation</text>
  <rect x="496.00" y="324.00" width="120.00" height="60.00" fill="#EEF4FF" stroke="#1A1A2E" stroke-width="1.50" rx="8.00" ry="8.00"/>
  <text x="556.00" y="336.00" font-family="Noto Sans, sans-serif" font-size="12.00" font-style="italic" fill="#1A1A2E" text-anchor="middle" dominant-baseline="middle">«part»</text>
  <text x="556.00" y="355.00" font-family="Noto Sans, sans-serif" font-size="14.00" font-weight="bold" fill="#1A1A2E" text-anchor="middle" dominant-baseline="middle">cpu : Cpu</text>
  <rect x="432.00" y="444.00" width="120.00" height="60.00" fill="#EEF4FF" stroke="#1A1A2E" stroke-width="1.50" rx="8.00" ry="8.00"/>
  <text x="492.00" y="456.00" font-family="Noto Sans, sans-serif" font-size="12.00" font-style="italic" fill="#1A1A2E" text-anchor="middle" dominant-baseline="middle">«part»</text>
  <text x="492.00" y="475.00" font-family="Noto Sans, sans-serif" font-size="14.00" font-weight="bold" fill="#1A1A2E" text-anchor="middle" dominant-baseline="middle">memory : Ram</text>
  <rect x="84.00" y="132.00" width="144.00" height="60.00" fill="#EEF4FF" stroke="#1A1A2E" stroke-width="1.50" rx="8.00" ry="8.00"/>
  <text x="156.00" y="144.00" font-family="Noto Sans, sans-serif" font-size="12.00" font-style="italic" fill="#1A1A2E" text-anchor="middle" dominant-baseline="middle">«part»</text>
  <text x="156.00" y="163.00" font-family="Noto Sans, sans-serif" font-size="14.00" font-weight="bold" fill="#1A1A2E" text-anchor="middle" dominant-baseline="middle">graphics : Gpu</text>
  <rect x="168.00" y="492.00" width="132.00" height="60.00" fill="#EEF4FF" stroke="#1A1A2E" stroke-width="1.50" rx="8.00" ry="8.00"/>
  <text x="234.00" y="504.00" font-family="Noto Sans, sans-serif" font-size="12.00" font-style="italic" fill="#1A1A2E" text-anchor="middle" dominant-baseline="middle">«part»</text>
  <text x="234.00" y="523.00" font-family="Noto Sans, sans-serif" font-size="14.00" font-weight="bold" fill="#1A1A2E" text-anchor="middle" dominant-baseline="middle">storage : Ssd</text>
  <rect x="36.00" y="252.00" width="168.00" height="60.00" fill="#EEF4FF" stroke="#1A1A2E" stroke-width="1.50" rx="8.00" ry="8.00"/>
  <text x="120.00" y="264.00" font-family="Noto Sans, sans-serif" font-size="12.00" font-style="italic" fill="#1A1A2E" text-anchor="middle" dominant-baseline="middle">«part»</text>
  <text x="120.00" y="283.00" font-family="Noto Sans, sans-serif" font-size="14.00" font-weight="bold" fill="#1A1A2E" text-anchor="middle" dominant-baseline="middle">psu : PowerSupply</text>
  <rect x="336.00" y="84.00" width="204.00" height="60.00" fill="#EEF4FF" stroke="#1A1A2E" stroke-width="1.50" rx="8.00" ry="8.00"/>
  <text x="438.00" y="96.00" font-family="Noto Sans, sans-serif" font-size="12.00" font-style="italic" fill="#1A1A2E" text-anchor="middle" dominant-baseline="middle">«part»</text>
  <text x="438.00" y="115.00" font-family="Noto Sans, sans-serif" font-size="14.00" font-weight="bold" fill="#1A1A2E" text-anchor="middle" dominant-baseline="middle">network : NetworkCard</text>
  <rect x="272.00" y="288.00" width="180.00" height="60.00" fill="#EEF4FF" stroke="#1A1A2E" stroke-width="1.50" rx="8.00" ry="8.00"/>
  <text x="362.00" y="300.00" font-family="Noto Sans, sans-serif" font-size="12.00" font-style="italic" fill="#1A1A2E" text-anchor="middle" dominant-baseline="middle">«part»</text>
  <text x="362.00" y="319.00" font-family="Noto Sans, sans-serif" font-size="14.00" font-weight="bold" fill="#1A1A2E" text-anchor="middle" dominant-baseline="middle">board : Motherboard</text>
  <rect x="492.00" y="332.00" width="8.00" height="8.00" fill="#1A1A2E"/>
  <rect x="552.00" y="380.00" width="8.00" height="8.00" fill="#1A1A2E"/>
  <rect x="468.00" y="440.00" width="8.00" height="8.00" fill="#1A1A2E"/>
  <rect x="508.00" y="440.00" width="8.00" height="8.00" fill="#1A1A2E"/>
  <rect x="224.00" y="158.00" width="8.00" height="8.00" fill="#1A1A2E"/>
  <rect x="140.00" y="188.00" width="8.00" height="8.00" fill="#1A1A2E"/>
  <rect x="230.00" y="488.00" width="8.00" height="8.00" fill="#1A1A2E"/>
  <rect x="200.00" y="278.00" width="8.00" height="8.00" fill="#1A1A2E"/>
  <rect x="140.00" y="248.00" width="8.00" height="8.00" fill="#1A1A2E"/>
  <rect x="390.00" y="140.00" width="8.00" height="8.00" fill="#1A1A2E"/>
  <rect x="448.00" y="332.00" width="8.00" height="8.00" fill="#1A1A2E"/>
  <rect x="388.00" y="344.00" width="8.00" height="8.00" fill="#1A1A2E"/>
  <rect x="268.00" y="304.00" width="8.00" height="8.00" fill="#1A1A2E"/>
  <rect x="328.00" y="344.00" width="8.00" height="8.00" fill="#1A1A2E"/>
  <rect x="390.00" y="284.00" width="8.00" height="8.00" fill="#1A1A2E"/>
  <rect x="268.00" y="324.00" width="8.00" height="8.00" fill="#1A1A2E"/>
  <path d="M 452.00 336.00 L 496.00 336.00" fill="none" stroke="#1A1A2E" stroke-width="1.50"/>
  <path d="M 392.00 348.00 L 392.00 422.00 A 4.00 4.00 0 0 0 396.00 426.00 L 468.00 426.00 A 4.00 4.00 0 0 1 472.00 430.00 L 472.00 444.00" fill="none" stroke="#1A1A2E" stroke-width="1.50"/>
  <path d="M 272.00 308.00 L 258.00 308.00 A 4.00 4.00 0 0 1 254.00 304.00 L 254.00 166.00 A 4.00 4.00 0 0 0 250.00 162.00 L 228.00 162.00" fill="none" stroke="#1A1A2E" stroke-width="1.50"/>
  <path d="M 332.00 348.00 L 332.00 362.00 A 4.00 4.00 0 0 1 328.00 366.00 L 238.00 366.00 A 4.00 4.00 0 0 0 234.00 370.00 L 234.00 492.00" fill="none" stroke="#1A1A2E" stroke-width="1.50"/>
  <path d="M 394.00 288.00 L 394.00 144.00" fill="none" stroke="#1A1A2E" stroke-width="1.50"/>
  <path d="M 204.00 282.00 L 250.00 282.00 A 4.00 4.00 0 0 1 254.00 286.00 L 254.00 324.00 A 4.00 4.00 0 0 0 258.00 328.00 L 272.00 328.00" fill="none" stroke="#1A1A2E" stroke-width="1.50"/>
  <path d="M 144.00 252.00 L 144.00 192.00" fill="none" stroke="#1A1A2E" stroke-width="1.50"/>
  <path d="M 556.00 384.00 L 556.00 398.00 A 4.00 4.00 0 0 1 552.00 402.00 L 516.00 402.00 A 4.00 4.00 0 0 0 512.00 406.00 L 512.00 444.00" fill="none" stroke="#1A1A2E" stroke-width="1.50"/>
</svg>
