<svg xmlns="http://www.w3.org/2000/svg" width="497.20" height="478.00" viewBox="0 0 497.20 478.00">
  <defs>
    <marker id="arrowhead-open" markerWidth="10" markerHeight="7" refX="9" refY="3.5" orient="auto">
      <polygon points="0 0, 10 3.5, 0 7" fill="none" stroke="#1A1A2E" stroke-width="1.50"/>
    </marker>
    <marker id="arrowhead-filled" markerWidth="10" markerHeight="7" refX="9" refY="3.5" orient="auto">
      <polygon points="0 0, 10 3.5, 0 7" fill="#1A1A2E" stroke="#1A1A2E" stroke-width="1.50"/>
    </marker>
    <marker id="arrowhead-open-crossbar" markerWidth="10" markerHeight="7" refX="9" refY="3.5" orient="auto">
      <polygon points="0 0, 10 3.5, 0 7" fill="none" stroke="#1A1A2E" stroke-width="1.50"/>
      <line x1="7" y1="0" x2="7" y2="7" stroke="#1A1A2E" stroke-width="1.50"/>
    </marker>
    <marker id="arrowhead-diamond" markerWidth="14" markerHeight="8" refX="13" refY="4" orient="auto">
      <polygon points="1 4, 7 0, 13 4, 7 8" fill="none" stroke="#1A1A2E" stroke-width="1.50"/>
    </marker>
    <marker id="arrowhead-filled-diamond" markerWidth="14" markerHeight="8" refX="13" refY="4" orient="auto">
      <polygon points="1 4, 7 0, 13 4, 7 8" fill="#1A1A2E" stroke="#1A1A2E" stroke-width="1.50"/>
    </marker>
    <marker id="arrowhead-circle" markerWidth="10" markerHeight="10" refX="9" refY="5" orient="auto">
      <circle cx="5" cy="5" r="4" fill="none" stroke="#1A1A2E" stroke-width="1.50"/>
    </marker>
    <marker id="arrowhead-bar" markerWidth="4" markerHeight="12" refX="2" refY="6" orient="auto">
      <line x1="2" y1="0" x2="2" y2="12" stroke="#1A1A2E" stroke-width="1.50"/>
    </marker>
    <filter id="label-bg" x="-0.05" y="-0.05" width="1.1" height="1.1">
      <feFlood flood-color="#FFFFFF"/>
      <feComposite in="SourceGraphic" operator="over"/>
    </filter>
  </defs>
  <rect x="0.00" y="0.00" width="497.20" height="478.00" fill="#FFFFFF" stroke="#1A1A2E" stroke-width="1.50"/>
  <text x="248.60" y="12.00" font-family="Noto Sans, sans-serif" font-size="12.00" font-style="italic" fill="#1A1A2E" text-anchor="middle" dominant-baseline="middle">«part def»</text>
  <text x="248.60" y="31.00" font-family="Noto Sans, sans-serif" font-size="14.00" font-weight="bold" fill="#1A1A2E" text-anchor="middle" dominant-baseline="middle">Workstation</text>
  <rect x="280.92" y="266.00" width="110.00" height="50.00" fill="#EEF4FF" stroke="#1A1A2E" stroke-width="1.50" rx="8.00" ry="8.00"/>
  <text x="335.92" y="278.00" font-family="Noto Sans, sans-serif" font-size="12.00" font-style="italic" fill="#1A1A2E" text-anchor="middle" dominant-baseline="middle">«part»</text>
  <text x="335.92" y="297.00" font-family="Noto Sans, sans-serif" font-size="14.00" font-weight="bold" fill="#1A1A2E" text-anchor="middle" dominant-baseline="middle">cpu : Cpu</text>
  <rect x="280.92" y="56.00" width="116.16" height="50.00" fill="#EEF4FF" stroke="#1A1A2E" stroke-width="1.50" rx="8.00" ry="8.00"/>
  <text x="339.00" y="68.00" font-family="Noto Sans, sans-serif" font-size="12.00" font-style="italic" fill="#1A1A2E" text-anchor="middle" dominant-baseline="middle">«part»</text>
  <text x="339.00" y="87.00" font-family="Noto Sans, sans-serif" font-size="14.00" font-weight="bold" fill="#1A1A2E" text-anchor="middle" dominant-baseline="middle">memory : Ram</text>
  <rect x="280.92" y="406.00" width="133.52" height="50.00" fill="#EEF4FF" stroke="#1A1A2E" stroke-width="1.50" rx="8.00" ry="8.00"/>
  <text x="347.68" y="418.00" font-family="Noto Sans, sans-serif" font-size="12.00" font-style="italic" fill="#1A1A2E" text-anchor="middle" dominant-baseline="middle">«part»</text>
  <text x="347.68" y="437.00" font-family="Noto Sans, sans-serif" font-size="14.00" font-weight="bold" fill="#1A1A2E" text-anchor="middle" dominant-baseline="middle">graphics : Gpu</text>
  <rect x="280.92" y="126.00" width="124.84" height="50.00" fill="#EEF4FF" stroke="#1A1A2E" stroke-width="1.50" rx="8.00" ry="8.00"/>
  <text x="343.34" y="138.00" font-family="Noto Sans, sans-serif" font-size="12.00" font-style="italic" fill="#1A1A2E" text-anchor="middle" dominant-baseline="middle">«part»</text>
  <text x="343.34" y="157.00" font-family="Noto Sans, sans-serif" font-size="14.00" font-weight="bold" fill="#1A1A2E" text-anchor="middle" dominant-baseline="middle">storage : Ssd</text>
  <rect x="280.92" y="336.00" width="159.56" height="50.00" fill="#EEF4FF" stroke="#1A1A2E" stroke-width="1.50" rx="8.00" ry="8.00"/>
  <text x="360.70" y="348.00" font-family="Noto Sans, sans-serif" font-size="12.00" font-style="italic" fill="#1A1A2E" text-anchor="middle" dominant-baseline="middle">«part»</text>
  <text x="360.70" y="367.00" font-family="Noto Sans, sans-serif" font-size="14.00" font-weight="bold" fill="#1A1A2E" text-anchor="middle" dominant-baseline="middle">psu : PowerSupply</text>
  <rect x="280.92" y="196.00" width="194.28" height="50.00" fill="#EEF4FF" stroke="#1A1A2E" stroke-width="1.50" rx="8.00" ry="8.00"/>
  <text x="378.06" y="208.00" font-family="Noto Sans, sans-serif" font-size="12.00" font-style="italic" fill="#1A1A2E" text-anchor="middle" dominant-baseline="middle">«part»</text>
  <text x="378.06" y="227.00" font-family="Noto Sans, sans-serif" font-size="14.00" font-weight="bold" fill="#1A1A2E" text-anchor="middle" dominant-baseline="middle">network : NetworkCard</text>
  <rect x="12.00" y="231.00" width="176.92" height="50.00" fill="#EEF4FF" stroke="#1A1A2E" stroke-width="1.50" rx="8.00" ry="8.00"/>
  <text x="100.46" y="243.00" font-family="Noto Sans, sans-serif" font-size="12.00" font-style="italic" fill="#1A1A2E" text-anchor="middle" dominant-baseline="middle">«part»</text>
  <text x="100.46" y="262.00" font-family="Noto Sans, sans-serif" font-size="14.00" font-weight="bold" fill="#1A1A2E" text-anchor="middle" dominant-baseline="middle">board : Motherboard</text>
  <rect x="184.92" y="255.00" width="8.00" height="8.00" fill="#1A1A2E"/>
  <rect x="276.92" y="287.00" width="8.00" height="8.00" fill="#1A1A2E"/>
  <path d="M 188.92 259.00 L 230.92 259.00 A 4.00 4.00 0 0 1 234.92 263.00 L 234.92 287.00 A 4.00 4.00 0 0 0 238.92 291.00 L 280.92 291.00" fill="none" stroke="#1A1A2E" stroke-width="1.50"/>
  <rect x="184.92" y="237.00" width="8.00" height="8.00" fill="#1A1A2E"/>
  <rect x="276.92" y="77.00" width="8.00" height="8.00" fill="#1A1A2E"/>
  <path d="M 188.92 241.00 L 194.92 241.00 A 4.00 4.00 0 0 0 198.92 237.00 L 198.92 85.00 A 4.00 4.00 0 0 1 202.92 81.00 L 280.92 81.00" fill="none" stroke="#1A1A2E" stroke-width="1.50"/>
  <rect x="184.92" y="267.00" width="8.00" height="8.00" fill="#1A1A2E"/>
  <rect x="276.92" y="427.00" width="8.00" height="8.00" fill="#1A1A2E"/>
  <path d="M 188.92 271.00 L 254.92 271.00 A 4.00 4.00 0 0 1 258.92 275.00 L 258.92 427.00 A 4.00 4.00 0 0 0 262.92 431.00 L 280.92 431.00" fill="none" stroke="#1A1A2E" stroke-width="1.50"/>
  <rect x="184.92" y="243.00" width="8.00" height="8.00" fill="#1A1A2E"/>
  <rect x="276.92" y="147.00" width="8.00" height="8.00" fill="#1A1A2E"/>
  <path d="M 188.92 247.00 L 206.92 247.00 A 4.00 4.00 0 0 0 210.92 243.00 L 210.92 155.00 A 4.00 4.00 0 0 1 214.92 151.00 L 280.92 151.00" fill="none" stroke="#1A1A2E" stroke-width="1.50"/>
  <rect x="184.92" y="249.00" width="8.00" height="8.00" fill="#1A1A2E"/>
  <rect x="276.92" y="217.00" width="8.00" height="8.00" fill="#1A1A2E"/>
  <path d="M 188.92 253.00 L 218.92 253.00 A 4.00 4.00 0 0 0 222.92 249.00 L 222.92 225.00 A 4.00 4.00 0 0 1 226.92 221.00 L 280.92 221.00" fill="none" stroke="#1A1A2E" stroke-width="1.50"/>
  <rect x="184.92" y="261.00" width="8.00" height="8.00" fill="#1A1A2E"/>
  <rect x="276.92" y="357.00" width="8.00" height="8.00" fill="#1A1A2E"/>
  <path d="M 188.92 265.00 L 242.92 265.00 A 4.00 4.00 0 0 1 246.92 269.00 L 246.92 357.00 A 4.00 4.00 0 0 0 250.92 361.00 L 280.92 361.00" fill="none" stroke="#1A1A2E" stroke-width="1.50"/>
  <rect x="331.92" y="262.00" width="8.00" height="8.00" fill="#1A1A2E"/>
  <rect x="331.92" y="102.00" width="8.00" height="8.00" fill="#1A1A2E"/>
  <rect x="343.68" y="402.00" width="8.00" height="8.00" fill="#1A1A2E"/>
  <rect x="343.68" y="382.00" width="8.00" height="8.00" fill="#1A1A2E"/>
  <path d="M 347.68 386.00 L 347.68 406.00" fill="none" stroke="#1A1A2E" stroke-width="1.50"/>
  <path d="M 335.92 266.00 L 335.92 252.00 A 4.00 4.00 0 0 0 331.92 248.00 L 284.92 248.00 A 4.00 4.00 0 0 1 280.92 244.00 L 280.92 128.00 A 4.00 4.00 0 0 1 284.92 124.00 L 331.92 124.00 A 4.00 4.00 0 0 0 335.92 120.00 L 335.92 106.00" fill="none" stroke="#1A1A2E" stroke-width="1.50"/>
</svg>
